solid Default
  facet normal -1.000000e+00 0.000000e+00 0.000000e+00
    outer loop
      vertex -6.100000e+00 2.250000e+00 3.800000e+00
      vertex -6.100000e+00 2.250000e+00 0.000000e+00
      vertex -6.100000e+00 -2.250000e+00 3.800000e+00
    endloop
  endfacet
  facet normal -1.000000e+00 0.000000e+00 0.000000e+00
    outer loop
      vertex -6.100000e+00 -2.250000e+00 3.800000e+00
      vertex -6.100000e+00 2.250000e+00 0.000000e+00
      vertex -6.100000e+00 -2.250000e+00 0.000000e+00
    endloop
  endfacet
  facet normal 0.000000e+00 0.000000e+00 1.000000e+00
    outer loop
      vertex 6.100000e+00 2.250000e+00 3.800000e+00
      vertex -6.100000e+00 2.250000e+00 3.800000e+00
      vertex 6.100000e+00 -2.250000e+00 3.800000e+00
    endloop
  endfacet
  facet normal 0.000000e+00 0.000000e+00 1.000000e+00
    outer loop
      vertex 6.100000e+00 -2.250000e+00 3.800000e+00
      vertex -6.100000e+00 2.250000e+00 3.800000e+00
      vertex -6.100000e+00 -2.250000e+00 3.800000e+00
    endloop
  endfacet
  facet normal 1.000000e+00 0.000000e+00 0.000000e+00
    outer loop
      vertex 6.100000e+00 2.250000e+00 0.000000e+00
      vertex 6.100000e+00 2.250000e+00 3.800000e+00
      vertex 6.100000e+00 -2.250000e+00 0.000000e+00
    endloop
  endfacet
  facet normal 1.000000e+00 0.000000e+00 0.000000e+00
    outer loop
      vertex 6.100000e+00 -2.250000e+00 0.000000e+00
      vertex 6.100000e+00 2.250000e+00 3.800000e+00
      vertex 6.100000e+00 -2.250000e+00 3.800000e+00
    endloop
  endfacet
  facet normal 0.000000e+00 0.000000e+00 -1.000000e+00
    outer loop
      vertex -6.100000e+00 2.250000e+00 0.000000e+00
      vertex 6.100000e+00 2.250000e+00 0.000000e+00
      vertex -6.100000e+00 -2.250000e+00 0.000000e+00
    endloop
  endfacet
  facet normal 0.000000e+00 0.000000e+00 -1.000000e+00
    outer loop
      vertex -6.100000e+00 -2.250000e+00 0.000000e+00
      vertex 6.100000e+00 2.250000e+00 0.000000e+00
      vertex 6.100000e+00 -2.250000e+00 0.000000e+00
    endloop
  endfacet
  facet normal 0.000000e+00 1.000000e+00 0.000000e+00
    outer loop
      vertex 6.100000e+00 2.250000e+00 3.800000e+00
      vertex 6.100000e+00 2.250000e+00 0.000000e+00
      vertex -6.100000e+00 2.250000e+00 3.800000e+00
    endloop
  endfacet
  facet normal 0.000000e+00 1.000000e+00 0.000000e+00
    outer loop
      vertex -6.100000e+00 2.250000e+00 3.800000e+00
      vertex 6.100000e+00 2.250000e+00 0.000000e+00
      vertex -6.100000e+00 2.250000e+00 0.000000e+00
    endloop
  endfacet
  facet normal 0.000000e+00 -1.000000e+00 0.000000e+00
    outer loop
      vertex 6.100000e+00 -2.250000e+00 0.000000e+00
      vertex 6.100000e+00 -2.250000e+00 3.800000e+00
      vertex -6.100000e+00 -2.250000e+00 0.000000e+00
    endloop
  endfacet
  facet normal 0.000000e+00 -1.000000e+00 0.000000e+00
    outer loop
      vertex -6.100000e+00 -2.250000e+00 0.000000e+00
      vertex 6.100000e+00 -2.250000e+00 3.800000e+00
      vertex -6.100000e+00 -2.250000e+00 3.800000e+00
    endloop
  endfacet
endsolid Default
