solid Default
  facet normal 9.995260e-01 3.078532e-02 0.000000e+00
    outer loop
      vertex 4.826000e+01 -2.413000e+01 2.540000e+00
      vertex 4.826000e+01 -2.413000e+01 0.000000e+00
      vertex 4.805413e+01 -1.967713e+01 0.000000e+00
    endloop
  endfacet
  facet normal 9.981027e-01 6.157063e-02 0.000000e+00
    outer loop
      vertex 4.826000e+01 -2.413000e+01 2.540000e+00
      vertex 4.805413e+01 -1.967713e+01 0.000000e+00
      vertex 4.805413e+01 -1.967713e+01 2.540000e+00
    endloop
  endfacet
  facet normal 9.924217e-01 1.228786e-01 0.000000e+00
    outer loop
      vertex 4.805413e+01 -1.967713e+01 2.540000e+00
      vertex 4.805413e+01 -1.967713e+01 0.000000e+00
      vertex 4.743828e+01 -1.526225e+01 0.000000e+00
    endloop
  endfacet
  facet normal 9.881640e-01 1.534013e-01 0.000000e+00
    outer loop
      vertex 4.805413e+01 -1.967713e+01 2.540000e+00
      vertex 4.743828e+01 -1.526225e+01 0.000000e+00
      vertex 4.743828e+01 -1.526225e+01 2.540000e+00
    endloop
  endfacet
  facet normal 9.768504e-01 2.139236e-01 0.000000e+00
    outer loop
      vertex 4.743828e+01 -1.526225e+01 2.540000e+00
      vertex 4.743828e+01 -1.526225e+01 0.000000e+00
      vertex 4.641771e+01 -1.092302e+01 0.000000e+00
    endloop
  endfacet
  facet normal 9.697946e-01 2.439232e-01 0.000000e+00
    outer loop
      vertex 4.743828e+01 -1.526225e+01 2.540000e+00
      vertex 4.641771e+01 -1.092302e+01 0.000000e+00
      vertex 4.641771e+01 -1.092302e+01 2.540000e+00
    endloop
  endfacet
  facet normal 9.529449e-01 3.031434e-01 0.000000e+00
    outer loop
      vertex 4.641771e+01 -1.092302e+01 2.540000e+00
      vertex 4.641771e+01 -1.092302e+01 0.000000e+00
      vertex 4.500111e+01 -6.696476e+00 0.000000e+00
    endloop
  endfacet
  facet normal 9.431512e-01 3.323640e-01 0.000000e+00
    outer loop
      vertex 4.641771e+01 -1.092302e+01 2.540000e+00
      vertex 4.500111e+01 -6.696476e+00 0.000000e+00
      vertex 4.500111e+01 -6.696476e+00 2.540000e+00
    endloop
  endfacet
  facet normal 9.209093e-01 3.897769e-01 0.000000e+00
    outer loop
      vertex 4.500111e+01 -6.696476e+00 2.540000e+00
      vertex 4.500111e+01 -6.696476e+00 0.000000e+00
      vertex 4.320059e+01 -2.618666e+00 0.000000e+00
    endloop
  endfacet
  facet normal 9.084612e-01 4.179692e-01 0.000000e+00
    outer loop
      vertex 4.500111e+01 -6.696476e+00 2.540000e+00
      vertex 4.320059e+01 -2.618666e+00 0.000000e+00
      vertex 4.320059e+01 -2.618666e+00 2.540000e+00
    endloop
  endfacet
  facet normal 8.810168e-01 4.730850e-01 0.000000e+00
    outer loop
      vertex 4.320059e+01 -2.618666e+00 2.540000e+00
      vertex 4.320059e+01 -2.618666e+00 0.000000e+00
      vertex 4.103148e+01 1.275616e+00 0.000000e+00
    endloop
  endfacet
  facet normal 8.660206e-01 5.000085e-01 0.000000e+00
    outer loop
      vertex 4.320059e+01 -2.618666e+00 2.540000e+00
      vertex 4.103148e+01 1.275616e+00 0.000000e+00
      vertex 4.103148e+01 1.275616e+00 2.540000e+00
    endloop
  endfacet
  facet normal 8.336077e-01 5.523568e-01 0.000000e+00
    outer loop
      vertex 4.103148e+01 1.275616e+00 2.540000e+00
      vertex 4.103148e+01 1.275616e+00 0.000000e+00
      vertex 3.851231e+01 4.953148e+00 0.000000e+00
    endloop
  endfacet
  facet normal 8.161913e-01 5.777817e-01 0.000000e+00
    outer loop
      vertex 4.103148e+01 1.275616e+00 2.540000e+00
      vertex 3.851231e+01 4.953148e+00 0.000000e+00
      vertex 3.851231e+01 4.953148e+00 2.540000e+00
    endloop
  endfacet
  facet normal 7.790867e-01 6.269162e-01 0.000000e+00
    outer loop
      vertex 3.851231e+01 4.953148e+00 2.540000e+00
      vertex 3.851231e+01 4.953148e+00 0.000000e+00
      vertex 3.566457e+01 8.382555e+00 0.000000e+00
    endloop
  endfacet
  facet normal 7.593986e-01 6.506256e-01 0.000000e+00
    outer loop
      vertex 3.851231e+01 4.953148e+00 2.540000e+00
      vertex 3.566457e+01 8.382555e+00 0.000000e+00
      vertex 3.566457e+01 8.382555e+00 2.540000e+00
    endloop
  endfacet
  facet normal 7.179187e-01 6.961269e-01 0.000000e+00
    outer loop
      vertex 3.566457e+01 8.382555e+00 2.540000e+00
      vertex 3.566457e+01 8.382555e+00 0.000000e+00
      vertex 3.251255e+01 1.153457e+01 0.000000e+00
    endloop
  endfacet
  facet normal 6.961269e-01 7.179187e-01 0.000000e+00
    outer loop
      vertex 3.566457e+01 8.382555e+00 2.540000e+00
      vertex 3.251255e+01 1.153457e+01 0.000000e+00
      vertex 3.251255e+01 1.153457e+01 2.540000e+00
    endloop
  endfacet
  facet normal 6.506256e-01 7.593986e-01 0.000000e+00
    outer loop
      vertex 3.251255e+01 1.153457e+01 2.540000e+00
      vertex 3.251255e+01 1.153457e+01 0.000000e+00
      vertex 2.908315e+01 1.438231e+01 0.000000e+00
    endloop
  endfacet
  facet normal 6.269162e-01 7.790867e-01 0.000000e+00
    outer loop
      vertex 3.251255e+01 1.153457e+01 2.540000e+00
      vertex 2.908315e+01 1.438231e+01 0.000000e+00
      vertex 2.908315e+01 1.438231e+01 2.540000e+00
    endloop
  endfacet
  facet normal 5.777817e-01 8.161913e-01 0.000000e+00
    outer loop
      vertex 2.908315e+01 1.438231e+01 2.540000e+00
      vertex 2.908315e+01 1.438231e+01 0.000000e+00
      vertex 2.540562e+01 1.690148e+01 0.000000e+00
    endloop
  endfacet
  facet normal 5.523568e-01 8.336077e-01 0.000000e+00
    outer loop
      vertex 2.908315e+01 1.438231e+01 2.540000e+00
      vertex 2.540562e+01 1.690148e+01 0.000000e+00
      vertex 2.540562e+01 1.690148e+01 2.540000e+00
    endloop
  endfacet
  facet normal 5.000084e-01 8.660206e-01 0.000000e+00
    outer loop
      vertex 2.540562e+01 1.690148e+01 2.540000e+00
      vertex 2.540562e+01 1.690148e+01 0.000000e+00
      vertex 2.151133e+01 1.907058e+01 0.000000e+00
    endloop
  endfacet
  facet normal 4.730849e-01 8.810169e-01 0.000000e+00
    outer loop
      vertex 2.540562e+01 1.690148e+01 2.540000e+00
      vertex 2.151133e+01 1.907058e+01 0.000000e+00
      vertex 2.151133e+01 1.907058e+01 2.540000e+00
    endloop
  endfacet
  facet normal 4.179692e-01 9.084612e-01 0.000000e+00
    outer loop
      vertex 2.151133e+01 1.907058e+01 2.540000e+00
      vertex 2.151133e+01 1.907058e+01 0.000000e+00
      vertex 1.743352e+01 2.087111e+01 0.000000e+00
    endloop
  endfacet
  facet normal 3.897769e-01 9.209093e-01 0.000000e+00
    outer loop
      vertex 2.151133e+01 1.907058e+01 2.540000e+00
      vertex 1.743352e+01 2.087111e+01 0.000000e+00
      vertex 1.743352e+01 2.087111e+01 2.540000e+00
    endloop
  endfacet
  facet normal 3.323640e-01 9.431512e-01 0.000000e+00
    outer loop
      vertex 1.743352e+01 2.087111e+01 2.540000e+00
      vertex 1.743352e+01 2.087111e+01 0.000000e+00
      vertex 1.320698e+01 2.228771e+01 0.000000e+00
    endloop
  endfacet
  facet normal 3.031434e-01 9.529449e-01 0.000000e+00
    outer loop
      vertex 1.743352e+01 2.087111e+01 2.540000e+00
      vertex 1.320698e+01 2.228771e+01 0.000000e+00
      vertex 1.320698e+01 2.228771e+01 2.540000e+00
    endloop
  endfacet
  facet normal 2.439232e-01 9.697946e-01 0.000000e+00
    outer loop
      vertex 1.320698e+01 2.228771e+01 2.540000e+00
      vertex 1.320698e+01 2.228771e+01 0.000000e+00
      vertex 8.867752e+00 2.330828e+01 0.000000e+00
    endloop
  endfacet
  facet normal 2.139235e-01 9.768504e-01 0.000000e+00
    outer loop
      vertex 1.320698e+01 2.228771e+01 2.540000e+00
      vertex 8.867752e+00 2.330828e+01 0.000000e+00
      vertex 8.867752e+00 2.330828e+01 2.540000e+00
    endloop
  endfacet
  facet normal 1.534013e-01 9.881640e-01 0.000000e+00
    outer loop
      vertex 8.867752e+00 2.330828e+01 2.540000e+00
      vertex 8.867752e+00 2.330828e+01 0.000000e+00
      vertex 4.452873e+00 2.392414e+01 0.000000e+00
    endloop
  endfacet
  facet normal 1.228786e-01 9.924217e-01 0.000000e+00
    outer loop
      vertex 8.867752e+00 2.330828e+01 2.540000e+00
      vertex 4.452873e+00 2.392414e+01 0.000000e+00
      vertex 4.452873e+00 2.392414e+01 2.540000e+00
    endloop
  endfacet
  facet normal 6.157063e-02 9.981027e-01 0.000000e+00
    outer loop
      vertex 4.452873e+00 2.392414e+01 2.540000e+00
      vertex 4.452873e+00 2.392414e+01 0.000000e+00
      vertex 0.000000e+00 2.413000e+01 0.000000e+00
    endloop
  endfacet
  facet normal 3.078532e-02 9.995260e-01 0.000000e+00
    outer loop
      vertex 4.452873e+00 2.392414e+01 2.540000e+00
      vertex 0.000000e+00 2.413000e+01 0.000000e+00
      vertex 0.000000e+00 2.413000e+01 2.540000e+00
    endloop
  endfacet
  facet normal -3.078532e-02 9.995260e-01 0.000000e+00
    outer loop
      vertex 0.000000e+00 2.413000e+01 2.540000e+00
      vertex 0.000000e+00 2.413000e+01 0.000000e+00
      vertex -4.452873e+00 2.392414e+01 0.000000e+00
    endloop
  endfacet
  facet normal -6.157063e-02 9.981027e-01 0.000000e+00
    outer loop
      vertex 0.000000e+00 2.413000e+01 2.540000e+00
      vertex -4.452873e+00 2.392414e+01 0.000000e+00
      vertex -4.452873e+00 2.392414e+01 2.540000e+00
    endloop
  endfacet
  facet normal -1.228786e-01 9.924217e-01 0.000000e+00
    outer loop
      vertex -4.452873e+00 2.392414e+01 2.540000e+00
      vertex -4.452873e+00 2.392414e+01 0.000000e+00
      vertex -8.867752e+00 2.330828e+01 0.000000e+00
    endloop
  endfacet
  facet normal -1.534013e-01 9.881640e-01 0.000000e+00
    outer loop
      vertex -4.452873e+00 2.392414e+01 2.540000e+00
      vertex -8.867752e+00 2.330828e+01 0.000000e+00
      vertex -8.867752e+00 2.330828e+01 2.540000e+00
    endloop
  endfacet
  facet normal -2.139236e-01 9.768504e-01 0.000000e+00
    outer loop
      vertex -8.867752e+00 2.330828e+01 2.540000e+00
      vertex -8.867752e+00 2.330828e+01 0.000000e+00
      vertex -1.320698e+01 2.228771e+01 0.000000e+00
    endloop
  endfacet
  facet normal -2.439232e-01 9.697946e-01 0.000000e+00
    outer loop
      vertex -8.867752e+00 2.330828e+01 2.540000e+00
      vertex -1.320698e+01 2.228771e+01 0.000000e+00
      vertex -1.320698e+01 2.228771e+01 2.540000e+00
    endloop
  endfacet
  facet normal -3.031434e-01 9.529449e-01 0.000000e+00
    outer loop
      vertex -1.320698e+01 2.228771e+01 2.540000e+00
      vertex -1.320698e+01 2.228771e+01 0.000000e+00
      vertex -1.743352e+01 2.087111e+01 0.000000e+00
    endloop
  endfacet
  facet normal -3.323640e-01 9.431512e-01 0.000000e+00
    outer loop
      vertex -1.320698e+01 2.228771e+01 2.540000e+00
      vertex -1.743352e+01 2.087111e+01 0.000000e+00
      vertex -1.743352e+01 2.087111e+01 2.540000e+00
    endloop
  endfacet
  facet normal -3.897769e-01 9.209093e-01 0.000000e+00
    outer loop
      vertex -1.743352e+01 2.087111e+01 2.540000e+00
      vertex -1.743352e+01 2.087111e+01 0.000000e+00
      vertex -2.151133e+01 1.907058e+01 0.000000e+00
    endloop
  endfacet
  facet normal -4.179692e-01 9.084612e-01 0.000000e+00
    outer loop
      vertex -1.743352e+01 2.087111e+01 2.540000e+00
      vertex -2.151133e+01 1.907058e+01 0.000000e+00
      vertex -2.151133e+01 1.907058e+01 2.540000e+00
    endloop
  endfacet
  facet normal -4.730850e-01 8.810168e-01 0.000000e+00
    outer loop
      vertex -2.151133e+01 1.907058e+01 2.540000e+00
      vertex -2.151133e+01 1.907058e+01 0.000000e+00
      vertex -2.540561e+01 1.690148e+01 0.000000e+00
    endloop
  endfacet
  facet normal -5.000085e-01 8.660206e-01 0.000000e+00
    outer loop
      vertex -2.151133e+01 1.907058e+01 2.540000e+00
      vertex -2.540561e+01 1.690148e+01 0.000000e+00
      vertex -2.540561e+01 1.690148e+01 2.540000e+00
    endloop
  endfacet
  facet normal -5.523568e-01 8.336077e-01 0.000000e+00
    outer loop
      vertex -2.540561e+01 1.690148e+01 2.540000e+00
      vertex -2.540561e+01 1.690148e+01 0.000000e+00
      vertex -2.908315e+01 1.438231e+01 0.000000e+00
    endloop
  endfacet
  facet normal -5.777817e-01 8.161913e-01 0.000000e+00
    outer loop
      vertex -2.540561e+01 1.690148e+01 2.540000e+00
      vertex -2.908315e+01 1.438231e+01 0.000000e+00
      vertex -2.908315e+01 1.438231e+01 2.540000e+00
    endloop
  endfacet
  facet normal -6.269162e-01 7.790867e-01 0.000000e+00
    outer loop
      vertex -2.908315e+01 1.438231e+01 2.540000e+00
      vertex -2.908315e+01 1.438231e+01 0.000000e+00
      vertex -3.251255e+01 1.153457e+01 0.000000e+00
    endloop
  endfacet
  facet normal -6.506256e-01 7.593986e-01 0.000000e+00
    outer loop
      vertex -2.908315e+01 1.438231e+01 2.540000e+00
      vertex -3.251255e+01 1.153457e+01 0.000000e+00
      vertex -3.251255e+01 1.153457e+01 2.540000e+00
    endloop
  endfacet
  facet normal -6.961269e-01 7.179187e-01 0.000000e+00
    outer loop
      vertex -3.251255e+01 1.153457e+01 2.540000e+00
      vertex -3.251255e+01 1.153457e+01 0.000000e+00
      vertex -3.566457e+01 8.382555e+00 0.000000e+00
    endloop
  endfacet
  facet normal -7.179187e-01 6.961269e-01 0.000000e+00
    outer loop
      vertex -3.251255e+01 1.153457e+01 2.540000e+00
      vertex -3.566457e+01 8.382555e+00 0.000000e+00
      vertex -3.566457e+01 8.382555e+00 2.540000e+00
    endloop
  endfacet
  facet normal -7.593986e-01 6.506256e-01 0.000000e+00
    outer loop
      vertex -3.566457e+01 8.382555e+00 2.540000e+00
      vertex -3.566457e+01 8.382555e+00 0.000000e+00
      vertex -3.851231e+01 4.953148e+00 0.000000e+00
    endloop
  endfacet
  facet normal -7.790867e-01 6.269162e-01 0.000000e+00
    outer loop
      vertex -3.566457e+01 8.382555e+00 2.540000e+00
      vertex -3.851231e+01 4.953148e+00 0.000000e+00
      vertex -3.851231e+01 4.953148e+00 2.540000e+00
    endloop
  endfacet
  facet normal -8.161913e-01 5.777817e-01 0.000000e+00
    outer loop
      vertex -3.851231e+01 4.953148e+00 2.540000e+00
      vertex -3.851231e+01 4.953148e+00 0.000000e+00
      vertex -4.103148e+01 1.275616e+00 0.000000e+00
    endloop
  endfacet
  facet normal -8.336077e-01 5.523568e-01 0.000000e+00
    outer loop
      vertex -3.851231e+01 4.953148e+00 2.540000e+00
      vertex -4.103148e+01 1.275616e+00 0.000000e+00
      vertex -4.103148e+01 1.275616e+00 2.540000e+00
    endloop
  endfacet
  facet normal -8.660206e-01 5.000084e-01 0.000000e+00
    outer loop
      vertex -4.103148e+01 1.275616e+00 2.540000e+00
      vertex -4.103148e+01 1.275616e+00 0.000000e+00
      vertex -4.320058e+01 -2.618666e+00 0.000000e+00
    endloop
  endfacet
  facet normal -8.810169e-01 4.730849e-01 0.000000e+00
    outer loop
      vertex -4.103148e+01 1.275616e+00 2.540000e+00
      vertex -4.320058e+01 -2.618666e+00 0.000000e+00
      vertex -4.320058e+01 -2.618666e+00 2.540000e+00
    endloop
  endfacet
  facet normal -9.084612e-01 4.179692e-01 0.000000e+00
    outer loop
      vertex -4.320058e+01 -2.618666e+00 2.540000e+00
      vertex -4.320058e+01 -2.618666e+00 0.000000e+00
      vertex -4.500111e+01 -6.696476e+00 0.000000e+00
    endloop
  endfacet
  facet normal -9.209093e-01 3.897769e-01 0.000000e+00
    outer loop
      vertex -4.320058e+01 -2.618666e+00 2.540000e+00
      vertex -4.500111e+01 -6.696476e+00 0.000000e+00
      vertex -4.500111e+01 -6.696476e+00 2.540000e+00
    endloop
  endfacet
  facet normal -9.431512e-01 3.323640e-01 0.000000e+00
    outer loop
      vertex -4.500111e+01 -6.696476e+00 2.540000e+00
      vertex -4.500111e+01 -6.696476e+00 0.000000e+00
      vertex -4.641770e+01 -1.092302e+01 0.000000e+00
    endloop
  endfacet
  facet normal -9.529449e-01 3.031434e-01 0.000000e+00
    outer loop
      vertex -4.500111e+01 -6.696476e+00 2.540000e+00
      vertex -4.641770e+01 -1.092302e+01 0.000000e+00
      vertex -4.641770e+01 -1.092302e+01 2.540000e+00
    endloop
  endfacet
  facet normal -9.697946e-01 2.439232e-01 0.000000e+00
    outer loop
      vertex -4.641770e+01 -1.092302e+01 2.540000e+00
      vertex -4.641770e+01 -1.092302e+01 0.000000e+00
      vertex -4.743828e+01 -1.526225e+01 0.000000e+00
    endloop
  endfacet
  facet normal -9.768504e-01 2.139235e-01 0.000000e+00
    outer loop
      vertex -4.641770e+01 -1.092302e+01 2.540000e+00
      vertex -4.743828e+01 -1.526225e+01 0.000000e+00
      vertex -4.743828e+01 -1.526225e+01 2.540000e+00
    endloop
  endfacet
  facet normal -9.881640e-01 1.534013e-01 0.000000e+00
    outer loop
      vertex -4.743828e+01 -1.526225e+01 2.540000e+00
      vertex -4.743828e+01 -1.526225e+01 0.000000e+00
      vertex -4.805413e+01 -1.967713e+01 0.000000e+00
    endloop
  endfacet
  facet normal -9.924217e-01 1.228786e-01 0.000000e+00
    outer loop
      vertex -4.743828e+01 -1.526225e+01 2.540000e+00
      vertex -4.805413e+01 -1.967713e+01 0.000000e+00
      vertex -4.805413e+01 -1.967713e+01 2.540000e+00
    endloop
  endfacet
  facet normal -9.981027e-01 6.157063e-02 0.000000e+00
    outer loop
      vertex -4.805413e+01 -1.967713e+01 2.540000e+00
      vertex -4.805413e+01 -1.967713e+01 0.000000e+00
      vertex -4.826000e+01 -2.413000e+01 0.000000e+00
    endloop
  endfacet
  facet normal -9.995260e-01 3.078532e-02 0.000000e+00
    outer loop
      vertex -4.805413e+01 -1.967713e+01 2.540000e+00
      vertex -4.826000e+01 -2.413000e+01 0.000000e+00
      vertex -4.826000e+01 -2.413000e+01 2.540000e+00
    endloop
  endfacet
  facet normal -1.224647e-16 -1.000000e+00 0.000000e+00
    outer loop
      vertex -4.572000e+01 -2.413000e+01 2.540000e+00
      vertex -4.826000e+01 -2.413000e+01 2.540000e+00
      vertex -4.572000e+01 -2.413000e+01 0.000000e+00
    endloop
  endfacet
  facet normal -1.224647e-16 -1.000000e+00 0.000000e+00
    outer loop
      vertex -4.572000e+01 -2.413000e+01 0.000000e+00
      vertex -4.826000e+01 -2.413000e+01 2.540000e+00
      vertex -4.826000e+01 -2.413000e+01 0.000000e+00
    endloop
  endfacet
  facet normal 9.994969e-01 -3.171728e-02 0.000000e+00
    outer loop
      vertex -4.572000e+01 -2.413000e+01 2.540000e+00
      vertex -4.572000e+01 -2.413000e+01 0.000000e+00
      vertex -4.551298e+01 -1.978404e+01 2.540000e+00
    endloop
  endfacet
  facet normal 9.979860e-01 -6.343456e-02 0.000000e+00
    outer loop
      vertex -4.551298e+01 -1.978404e+01 2.540000e+00
      vertex -4.572000e+01 -2.413000e+01 0.000000e+00
      vertex -4.551298e+01 -1.978404e+01 0.000000e+00
    endloop
  endfacet
  facet normal 9.919562e-01 -1.265819e-01 0.000000e+00
    outer loop
      vertex -4.551298e+01 -1.978404e+01 2.540000e+00
      vertex -4.551298e+01 -1.978404e+01 0.000000e+00
      vertex -4.489378e+01 -1.547743e+01 2.540000e+00
    endloop
  endfacet
  facet normal 9.874372e-01 -1.580119e-01 0.000000e+00
    outer loop
      vertex -4.489378e+01 -1.547743e+01 2.540000e+00
      vertex -4.551298e+01 -1.978404e+01 0.000000e+00
      vertex -4.489378e+01 -1.547743e+01 0.000000e+00
    endloop
  endfacet
  facet normal 9.754322e-01 -2.203001e-01 0.000000e+00
    outer loop
      vertex -4.489378e+01 -1.547743e+01 2.540000e+00
      vertex -4.489378e+01 -1.547743e+01 0.000000e+00
      vertex -4.386802e+01 -1.124919e+01 2.540000e+00
    endloop
  endfacet
  facet normal 9.679461e-01 -2.511583e-01 0.000000e+00
    outer loop
      vertex -4.386802e+01 -1.124919e+01 2.540000e+00
      vertex -4.489378e+01 -1.547743e+01 0.000000e+00
      vertex -4.386802e+01 -1.124919e+01 0.000000e+00
    endloop
  endfacet
  facet normal 9.500744e-01 -3.120233e-01 0.000000e+00
    outer loop
      vertex -4.386802e+01 -1.124919e+01 2.540000e+00
      vertex -4.386802e+01 -1.124919e+01 0.000000e+00
      vertex -4.244498e+01 -7.137592e+00 2.540000e+00
    endloop
  endfacet
  facet normal 9.396890e-01 -3.420302e-01 0.000000e+00
    outer loop
      vertex -4.244498e+01 -7.137592e+00 2.540000e+00
      vertex -4.386802e+01 -1.124919e+01 0.000000e+00
      vertex -4.244498e+01 -7.137592e+00 0.000000e+00
    endloop
  endfacet
  facet normal 9.161127e-01 -4.009208e-01 0.000000e+00
    outer loop
      vertex -4.244498e+01 -7.137592e+00 2.540000e+00
      vertex -4.244498e+01 -7.137592e+00 0.000000e+00
      vertex -4.063756e+01 -3.179882e+00 2.540000e+00
    endloop
  endfacet
  facet normal 9.029219e-01 -4.298046e-01 0.000000e+00
    outer loop
      vertex -4.063756e+01 -3.179882e+00 2.540000e+00
      vertex -4.244498e+01 -7.137592e+00 0.000000e+00
      vertex -4.063756e+01 -3.179882e+00 0.000000e+00
    endloop
  endfacet
  facet normal 8.738545e-01 -4.861874e-01 0.000000e+00
    outer loop
      vertex -4.063756e+01 -3.179882e+00 2.540000e+00
      vertex -4.063756e+01 -3.179882e+00 0.000000e+00
      vertex -3.846211e+01 5.880985e-01 2.540000e+00
    endloop
  endfacet
  facet normal 8.579779e-01 -5.136866e-01 0.000000e+00
    outer loop
      vertex -3.846211e+01 5.880985e-01 2.540000e+00
      vertex -4.063756e+01 -3.179882e+00 0.000000e+00
      vertex -3.846211e+01 5.880985e-01 0.000000e+00
    endloop
  endfacet
  facet normal 8.236827e-01 -5.670511e-01 0.000000e+00
    outer loop
      vertex -3.846211e+01 5.880985e-01 2.540000e+00
      vertex -3.846211e+01 5.880985e-01 0.000000e+00
      vertex -3.593835e+01 4.132231e+00 2.540000e+00
    endloop
  endfacet
  facet normal 8.052639e-01 -5.929165e-01 0.000000e+00
    outer loop
      vertex -3.593835e+01 4.132231e+00 2.540000e+00
      vertex -3.846211e+01 5.880985e-01 0.000000e+00
      vertex -3.593835e+01 4.132231e+00 0.000000e+00
    endloop
  endfacet
  facet normal 7.660513e-01 -6.427795e-01 0.000000e+00
    outer loop
      vertex -3.593835e+01 4.132231e+00 2.540000e+00
      vertex -3.593835e+01 4.132231e+00 0.000000e+00
      vertex -3.308912e+01 7.420412e+00 2.540000e+00
    endloop
  endfacet
  facet normal 7.452573e-01 -6.667770e-01 0.000000e+00
    outer loop
      vertex -3.308912e+01 7.420412e+00 2.540000e+00
      vertex -3.593835e+01 4.132231e+00 0.000000e+00
      vertex -3.308912e+01 7.420412e+00 0.000000e+00
    endloop
  endfacet
  facet normal 7.014825e-01 -7.126867e-01 0.000000e+00
    outer loop
      vertex -3.308912e+01 7.420412e+00 2.540000e+00
      vertex -3.308912e+01 7.420412e+00 0.000000e+00
      vertex -2.994023e+01 1.042287e+01 2.540000e+00
    endloop
  endfacet
  facet normal 6.785015e-01 -7.345989e-01 0.000000e+00
    outer loop
      vertex -2.994023e+01 1.042287e+01 2.540000e+00
      vertex -3.308912e+01 7.420412e+00 0.000000e+00
      vertex -2.994023e+01 1.042287e+01 0.000000e+00
    endloop
  endfacet
  facet normal 6.305609e-01 -7.761397e-01 0.000000e+00
    outer loop
      vertex -2.994023e+01 1.042287e+01 2.540000e+00
      vertex -2.994023e+01 1.042287e+01 0.000000e+00
      vertex -2.652020e+01 1.311241e+01 2.540000e+00
    endloop
  endfacet
  facet normal 6.056012e-01 -7.957683e-01 0.000000e+00
    outer loop
      vertex -2.652020e+01 1.311241e+01 2.540000e+00
      vertex -2.994023e+01 1.042287e+01 0.000000e+00
      vertex -2.652020e+01 1.311241e+01 0.000000e+00
    endloop
  endfacet
  facet normal 5.539289e-01 -8.325640e-01 0.000000e+00
    outer loop
      vertex -2.652020e+01 1.311241e+01 2.540000e+00
      vertex -2.652020e+01 1.311241e+01 0.000000e+00
      vertex -2.286000e+01 1.546468e+01 2.540000e+00
    endloop
  endfacet
  facet normal 5.272164e-01 -8.497310e-01 0.000000e+00
    outer loop
      vertex -2.286000e+01 1.546468e+01 2.540000e+00
      vertex -2.652020e+01 1.311241e+01 0.000000e+00
      vertex -2.286000e+01 1.546468e+01 0.000000e+00
    endloop
  endfacet
  facet normal 4.722805e-01 -8.814483e-01 0.000000e+00
    outer loop
      vertex -2.286000e+01 1.546468e+01 2.540000e+00
      vertex -2.286000e+01 1.546468e+01 0.000000e+00
      vertex -1.899277e+01 1.745838e+01 2.540000e+00
    endloop
  endfacet
  facet normal 4.440571e-01 -8.959985e-01 0.000000e+00
    outer loop
      vertex -1.899277e+01 1.745838e+01 2.540000e+00
      vertex -2.286000e+01 1.546468e+01 0.000000e+00
      vertex -1.899277e+01 1.745838e+01 0.000000e+00
    endloop
  endfacet
  facet normal 3.863550e-01 -9.223502e-01 0.000000e+00
    outer loop
      vertex -1.899277e+01 1.745838e+01 2.540000e+00
      vertex -1.899277e+01 1.745838e+01 0.000000e+00
      vertex -1.495354e+01 1.907544e+01 2.540000e+00
    endloop
  endfacet
  facet normal 3.568762e-01 -9.341516e-01 0.000000e+00
    outer loop
      vertex -1.495354e+01 1.907544e+01 2.540000e+00
      vertex -1.899277e+01 1.745838e+01 0.000000e+00
      vertex -1.495354e+01 1.907544e+01 0.000000e+00
    endloop
  endfacet
  facet normal 2.969305e-01 -9.548991e-01 0.000000e+00
    outer loop
      vertex -1.495354e+01 1.907544e+01 2.540000e+00
      vertex -1.495354e+01 1.907544e+01 0.000000e+00
      vertex -1.077890e+01 2.030123e+01 2.540000e+00
    endloop
  endfacet
  facet normal 2.664635e-01 -9.638450e-01 0.000000e+00
    outer loop
      vertex -1.077890e+01 2.030123e+01 2.540000e+00
      vertex -1.495354e+01 1.907544e+01 0.000000e+00
      vertex -1.077890e+01 2.030123e+01 0.000000e+00
    endloop
  endfacet
  facet normal 2.048171e-01 -9.788003e-01 0.000000e+00
    outer loop
      vertex -1.077890e+01 2.030123e+01 2.540000e+00
      vertex -1.077890e+01 2.030123e+01 0.000000e+00
      vertex -6.506630e+00 2.112464e+01 2.540000e+00
    endloop
  endfacet
  facet normal 1.736377e-01 -9.848096e-01 0.000000e+00
    outer loop
      vertex -6.506630e+00 2.112464e+01 2.540000e+00
      vertex -1.077890e+01 2.030123e+01 0.000000e+00
      vertex -6.506630e+00 2.112464e+01 0.000000e+00
    endloop
  endfacet
  facet normal 1.108488e-01 -9.938373e-01 0.000000e+00
    outer loop
      vertex -6.506630e+00 2.112464e+01 2.540000e+00
      vertex -6.506630e+00 2.112464e+01 0.000000e+00
      vertex -2.175446e+00 2.153821e+01 2.540000e+00
    endloop
  endfacet
  facet normal 7.923932e-02 -9.968556e-01 0.000000e+00
    outer loop
      vertex -2.175446e+00 2.153821e+01 2.540000e+00
      vertex -6.506630e+00 2.112464e+01 0.000000e+00
      vertex -2.175446e+00 2.153821e+01 0.000000e+00
    endloop
  endfacet
  facet normal 1.587662e-02 -9.998740e-01 0.000000e+00
    outer loop
      vertex -2.175446e+00 2.153821e+01 2.540000e+00
      vertex -2.175446e+00 2.153821e+01 0.000000e+00
      vertex 2.175449e+00 2.153821e+01 2.540000e+00
    endloop
  endfacet
  facet normal -1.587662e-02 -9.998740e-01 0.000000e+00
    outer loop
      vertex 2.175449e+00 2.153821e+01 2.540000e+00
      vertex -2.175446e+00 2.153821e+01 0.000000e+00
      vertex 2.175449e+00 2.153821e+01 0.000000e+00
    endloop
  endfacet
  facet normal -7.923933e-02 -9.968556e-01 0.000000e+00
    outer loop
      vertex 2.175449e+00 2.153821e+01 2.540000e+00
      vertex 2.175449e+00 2.153821e+01 0.000000e+00
      vertex 6.506634e+00 2.112464e+01 2.540000e+00
    endloop
  endfacet
  facet normal -1.108488e-01 -9.938373e-01 0.000000e+00
    outer loop
      vertex 6.506634e+00 2.112464e+01 2.540000e+00
      vertex 2.175449e+00 2.153821e+01 0.000000e+00
      vertex 6.506634e+00 2.112464e+01 0.000000e+00
    endloop
  endfacet
  facet normal -1.736377e-01 -9.848096e-01 0.000000e+00
    outer loop
      vertex 6.506634e+00 2.112464e+01 2.540000e+00
      vertex 6.506634e+00 2.112464e+01 0.000000e+00
      vertex 1.077890e+01 2.030123e+01 2.540000e+00
    endloop
  endfacet
  facet normal -2.048171e-01 -9.788003e-01 0.000000e+00
    outer loop
      vertex 1.077890e+01 2.030123e+01 2.540000e+00
      vertex 6.506634e+00 2.112464e+01 0.000000e+00
      vertex 1.077890e+01 2.030123e+01 0.000000e+00
    endloop
  endfacet
  facet normal -2.664635e-01 -9.638450e-01 0.000000e+00
    outer loop
      vertex 1.077890e+01 2.030123e+01 2.540000e+00
      vertex 1.077890e+01 2.030123e+01 0.000000e+00
      vertex 1.495355e+01 1.907544e+01 2.540000e+00
    endloop
  endfacet
  facet normal -2.969305e-01 -9.548991e-01 0.000000e+00
    outer loop
      vertex 1.495355e+01 1.907544e+01 2.540000e+00
      vertex 1.077890e+01 2.030123e+01 0.000000e+00
      vertex 1.495355e+01 1.907544e+01 0.000000e+00
    endloop
  endfacet
  facet normal -3.568763e-01 -9.341516e-01 0.000000e+00
    outer loop
      vertex 1.495355e+01 1.907544e+01 2.540000e+00
      vertex 1.495355e+01 1.907544e+01 0.000000e+00
      vertex 1.899277e+01 1.745838e+01 2.540000e+00
    endloop
  endfacet
  facet normal -3.863550e-01 -9.223502e-01 0.000000e+00
    outer loop
      vertex 1.899277e+01 1.745838e+01 2.540000e+00
      vertex 1.495355e+01 1.907544e+01 0.000000e+00
      vertex 1.899277e+01 1.745838e+01 0.000000e+00
    endloop
  endfacet
  facet normal -4.440571e-01 -8.959985e-01 0.000000e+00
    outer loop
      vertex 1.899277e+01 1.745838e+01 2.540000e+00
      vertex 1.899277e+01 1.745838e+01 0.000000e+00
      vertex 2.286000e+01 1.546468e+01 2.540000e+00
    endloop
  endfacet
  facet normal -4.722805e-01 -8.814483e-01 0.000000e+00
    outer loop
      vertex 2.286000e+01 1.546468e+01 2.540000e+00
      vertex 1.899277e+01 1.745838e+01 0.000000e+00
      vertex 2.286000e+01 1.546468e+01 0.000000e+00
    endloop
  endfacet
  facet normal -5.272164e-01 -8.497310e-01 0.000000e+00
    outer loop
      vertex 2.286000e+01 1.546468e+01 2.540000e+00
      vertex 2.286000e+01 1.546468e+01 0.000000e+00
      vertex 2.652021e+01 1.311241e+01 2.540000e+00
    endloop
  endfacet
  facet normal -5.539289e-01 -8.325640e-01 0.000000e+00
    outer loop
      vertex 2.652021e+01 1.311241e+01 2.540000e+00
      vertex 2.286000e+01 1.546468e+01 0.000000e+00
      vertex 2.652021e+01 1.311241e+01 0.000000e+00
    endloop
  endfacet
  facet normal -6.056012e-01 -7.957683e-01 0.000000e+00
    outer loop
      vertex 2.652021e+01 1.311241e+01 2.540000e+00
      vertex 2.652021e+01 1.311241e+01 0.000000e+00
      vertex 2.994024e+01 1.042287e+01 2.540000e+00
    endloop
  endfacet
  facet normal -6.305609e-01 -7.761397e-01 0.000000e+00
    outer loop
      vertex 2.994024e+01 1.042287e+01 2.540000e+00
      vertex 2.652021e+01 1.311241e+01 0.000000e+00
      vertex 2.994024e+01 1.042287e+01 0.000000e+00
    endloop
  endfacet
  facet normal -6.785015e-01 -7.345989e-01 0.000000e+00
    outer loop
      vertex 2.994024e+01 1.042287e+01 2.540000e+00
      vertex 2.994024e+01 1.042287e+01 0.000000e+00
      vertex 3.308912e+01 7.420412e+00 2.540000e+00
    endloop
  endfacet
  facet normal -7.014825e-01 -7.126867e-01 0.000000e+00
    outer loop
      vertex 3.308912e+01 7.420412e+00 2.540000e+00
      vertex 2.994024e+01 1.042287e+01 0.000000e+00
      vertex 3.308912e+01 7.420412e+00 0.000000e+00
    endloop
  endfacet
  facet normal -7.452573e-01 -6.667770e-01 0.000000e+00
    outer loop
      vertex 3.308912e+01 7.420412e+00 2.540000e+00
      vertex 3.308912e+01 7.420412e+00 0.000000e+00
      vertex 3.593835e+01 4.132231e+00 2.540000e+00
    endloop
  endfacet
  facet normal -7.660513e-01 -6.427795e-01 0.000000e+00
    outer loop
      vertex 3.593835e+01 4.132231e+00 2.540000e+00
      vertex 3.308912e+01 7.420412e+00 0.000000e+00
      vertex 3.593835e+01 4.132231e+00 0.000000e+00
    endloop
  endfacet
  facet normal -8.052639e-01 -5.929165e-01 0.000000e+00
    outer loop
      vertex 3.593835e+01 4.132231e+00 2.540000e+00
      vertex 3.593835e+01 4.132231e+00 0.000000e+00
      vertex 3.846211e+01 5.880985e-01 2.540000e+00
    endloop
  endfacet
  facet normal -8.236827e-01 -5.670511e-01 0.000000e+00
    outer loop
      vertex 3.846211e+01 5.880985e-01 2.540000e+00
      vertex 3.593835e+01 4.132231e+00 0.000000e+00
      vertex 3.846211e+01 5.880985e-01 0.000000e+00
    endloop
  endfacet
  facet normal -8.579779e-01 -5.136866e-01 0.000000e+00
    outer loop
      vertex 3.846211e+01 5.880985e-01 2.540000e+00
      vertex 3.846211e+01 5.880985e-01 0.000000e+00
      vertex 4.063755e+01 -3.179882e+00 2.540000e+00
    endloop
  endfacet
  facet normal -8.738545e-01 -4.861874e-01 0.000000e+00
    outer loop
      vertex 4.063755e+01 -3.179882e+00 2.540000e+00
      vertex 3.846211e+01 5.880985e-01 0.000000e+00
      vertex 4.063755e+01 -3.179882e+00 0.000000e+00
    endloop
  endfacet
  facet normal -9.029219e-01 -4.298046e-01 0.000000e+00
    outer loop
      vertex 4.063755e+01 -3.179882e+00 2.540000e+00
      vertex 4.063755e+01 -3.179882e+00 0.000000e+00
      vertex 4.244498e+01 -7.137592e+00 2.540000e+00
    endloop
  endfacet
  facet normal -9.161127e-01 -4.009208e-01 0.000000e+00
    outer loop
      vertex 4.244498e+01 -7.137592e+00 2.540000e+00
      vertex 4.063755e+01 -3.179882e+00 0.000000e+00
      vertex 4.244498e+01 -7.137592e+00 0.000000e+00
    endloop
  endfacet
  facet normal -9.396890e-01 -3.420302e-01 0.000000e+00
    outer loop
      vertex 4.244498e+01 -7.137592e+00 2.540000e+00
      vertex 4.244498e+01 -7.137592e+00 0.000000e+00
      vertex 4.386802e+01 -1.124919e+01 2.540000e+00
    endloop
  endfacet
  facet normal -9.500744e-01 -3.120233e-01 0.000000e+00
    outer loop
      vertex 4.386802e+01 -1.124919e+01 2.540000e+00
      vertex 4.244498e+01 -7.137592e+00 0.000000e+00
      vertex 4.386802e+01 -1.124919e+01 0.000000e+00
    endloop
  endfacet
  facet normal -9.679461e-01 -2.511583e-01 0.000000e+00
    outer loop
      vertex 4.386802e+01 -1.124919e+01 2.540000e+00
      vertex 4.386802e+01 -1.124919e+01 0.000000e+00
      vertex 4.489378e+01 -1.547743e+01 2.540000e+00
    endloop
  endfacet
  facet normal -9.754322e-01 -2.203001e-01 0.000000e+00
    outer loop
      vertex 4.489378e+01 -1.547743e+01 2.540000e+00
      vertex 4.386802e+01 -1.124919e+01 0.000000e+00
      vertex 4.489378e+01 -1.547743e+01 0.000000e+00
    endloop
  endfacet
  facet normal -9.874372e-01 -1.580119e-01 0.000000e+00
    outer loop
      vertex 4.489378e+01 -1.547743e+01 2.540000e+00
      vertex 4.489378e+01 -1.547743e+01 0.000000e+00
      vertex 4.551298e+01 -1.978404e+01 2.540000e+00
    endloop
  endfacet
  facet normal -9.919562e-01 -1.265819e-01 0.000000e+00
    outer loop
      vertex 4.551298e+01 -1.978404e+01 2.540000e+00
      vertex 4.489378e+01 -1.547743e+01 0.000000e+00
      vertex 4.551298e+01 -1.978404e+01 0.000000e+00
    endloop
  endfacet
  facet normal -9.979860e-01 -6.343456e-02 0.000000e+00
    outer loop
      vertex 4.551298e+01 -1.978404e+01 2.540000e+00
      vertex 4.551298e+01 -1.978404e+01 0.000000e+00
      vertex 4.572000e+01 -2.413000e+01 2.540000e+00
    endloop
  endfacet
  facet normal -9.994969e-01 -3.171728e-02 0.000000e+00
    outer loop
      vertex 4.572000e+01 -2.413000e+01 2.540000e+00
      vertex 4.551298e+01 -1.978404e+01 0.000000e+00
      vertex 4.572000e+01 -2.413000e+01 0.000000e+00
    endloop
  endfacet
  facet normal 0.000000e+00 -1.000000e+00 0.000000e+00
    outer loop
      vertex 4.826000e+01 -2.413000e+01 2.540000e+00
      vertex 4.572000e+01 -2.413000e+01 2.540000e+00
      vertex 4.826000e+01 -2.413000e+01 0.000000e+00
    endloop
  endfacet
  facet normal 0.000000e+00 -1.000000e+00 0.000000e+00
    outer loop
      vertex 4.826000e+01 -2.413000e+01 0.000000e+00
      vertex 4.572000e+01 -2.413000e+01 2.540000e+00
      vertex 4.572000e+01 -2.413000e+01 0.000000e+00
    endloop
  endfacet
  facet normal 0.000000e+00 0.000000e+00 1.000000e+00
    outer loop
      vertex -2.175446e+00 2.153821e+01 2.540000e+00
      vertex -4.452873e+00 2.392414e+01 2.540000e+00
      vertex -6.506630e+00 2.112464e+01 2.540000e+00
    endloop
  endfacet
  facet normal 0.000000e+00 0.000000e+00 1.000000e+00
    outer loop
      vertex -6.506630e+00 2.112464e+01 2.540000e+00
      vertex -4.452873e+00 2.392414e+01 2.540000e+00
      vertex -8.867752e+00 2.330828e+01 2.540000e+00
    endloop
  endfacet
  facet normal 0.000000e+00 0.000000e+00 1.000000e+00
    outer loop
      vertex -6.506630e+00 2.112464e+01 2.540000e+00
      vertex -8.867752e+00 2.330828e+01 2.540000e+00
      vertex -1.077890e+01 2.030123e+01 2.540000e+00
    endloop
  endfacet
  facet normal 0.000000e+00 0.000000e+00 1.000000e+00
    outer loop
      vertex -1.077890e+01 2.030123e+01 2.540000e+00
      vertex -8.867752e+00 2.330828e+01 2.540000e+00
      vertex -1.320698e+01 2.228771e+01 2.540000e+00
    endloop
  endfacet
  facet normal 0.000000e+00 0.000000e+00 1.000000e+00
    outer loop
      vertex -1.077890e+01 2.030123e+01 2.540000e+00
      vertex -1.320698e+01 2.228771e+01 2.540000e+00
      vertex -1.495354e+01 1.907544e+01 2.540000e+00
    endloop
  endfacet
  facet normal 0.000000e+00 0.000000e+00 1.000000e+00
    outer loop
      vertex -1.495354e+01 1.907544e+01 2.540000e+00
      vertex -1.320698e+01 2.228771e+01 2.540000e+00
      vertex -1.743352e+01 2.087111e+01 2.540000e+00
    endloop
  endfacet
  facet normal 0.000000e+00 0.000000e+00 1.000000e+00
    outer loop
      vertex -1.495354e+01 1.907544e+01 2.540000e+00
      vertex -1.743352e+01 2.087111e+01 2.540000e+00
      vertex -1.899277e+01 1.745838e+01 2.540000e+00
    endloop
  endfacet
  facet normal 0.000000e+00 0.000000e+00 1.000000e+00
    outer loop
      vertex -1.899277e+01 1.745838e+01 2.540000e+00
      vertex -1.743352e+01 2.087111e+01 2.540000e+00
      vertex -2.151133e+01 1.907058e+01 2.540000e+00
    endloop
  endfacet
  facet normal 0.000000e+00 0.000000e+00 1.000000e+00
    outer loop
      vertex -1.899277e+01 1.745838e+01 2.540000e+00
      vertex -2.151133e+01 1.907058e+01 2.540000e+00
      vertex -2.286000e+01 1.546468e+01 2.540000e+00
    endloop
  endfacet
  facet normal 0.000000e+00 0.000000e+00 1.000000e+00
    outer loop
      vertex -2.286000e+01 1.546468e+01 2.540000e+00
      vertex -2.151133e+01 1.907058e+01 2.540000e+00
      vertex -2.540561e+01 1.690148e+01 2.540000e+00
    endloop
  endfacet
  facet normal 0.000000e+00 0.000000e+00 1.000000e+00
    outer loop
      vertex -2.286000e+01 1.546468e+01 2.540000e+00
      vertex -2.540561e+01 1.690148e+01 2.540000e+00
      vertex -2.652020e+01 1.311241e+01 2.540000e+00
    endloop
  endfacet
  facet normal 0.000000e+00 0.000000e+00 1.000000e+00
    outer loop
      vertex -2.652020e+01 1.311241e+01 2.540000e+00
      vertex -2.540561e+01 1.690148e+01 2.540000e+00
      vertex -2.908315e+01 1.438231e+01 2.540000e+00
    endloop
  endfacet
  facet normal 0.000000e+00 0.000000e+00 1.000000e+00
    outer loop
      vertex -2.652020e+01 1.311241e+01 2.540000e+00
      vertex -2.908315e+01 1.438231e+01 2.540000e+00
      vertex -2.994023e+01 1.042287e+01 2.540000e+00
    endloop
  endfacet
  facet normal 0.000000e+00 0.000000e+00 1.000000e+00
    outer loop
      vertex -2.994023e+01 1.042287e+01 2.540000e+00
      vertex -2.908315e+01 1.438231e+01 2.540000e+00
      vertex -3.251255e+01 1.153457e+01 2.540000e+00
    endloop
  endfacet
  facet normal 0.000000e+00 0.000000e+00 1.000000e+00
    outer loop
      vertex -2.994023e+01 1.042287e+01 2.540000e+00
      vertex -3.251255e+01 1.153457e+01 2.540000e+00
      vertex -3.308912e+01 7.420412e+00 2.540000e+00
    endloop
  endfacet
  facet normal 0.000000e+00 0.000000e+00 1.000000e+00
    outer loop
      vertex -3.308912e+01 7.420412e+00 2.540000e+00
      vertex -3.251255e+01 1.153457e+01 2.540000e+00
      vertex -3.566457e+01 8.382555e+00 2.540000e+00
    endloop
  endfacet
  facet normal 0.000000e+00 0.000000e+00 1.000000e+00
    outer loop
      vertex -3.308912e+01 7.420412e+00 2.540000e+00
      vertex -3.566457e+01 8.382555e+00 2.540000e+00
      vertex -3.593835e+01 4.132231e+00 2.540000e+00
    endloop
  endfacet
  facet normal 0.000000e+00 0.000000e+00 1.000000e+00
    outer loop
      vertex -3.593835e+01 4.132231e+00 2.540000e+00
      vertex -3.566457e+01 8.382555e+00 2.540000e+00
      vertex -3.851231e+01 4.953148e+00 2.540000e+00
    endloop
  endfacet
  facet normal 0.000000e+00 0.000000e+00 1.000000e+00
    outer loop
      vertex -3.593835e+01 4.132231e+00 2.540000e+00
      vertex -3.851231e+01 4.953148e+00 2.540000e+00
      vertex -3.846211e+01 5.880985e-01 2.540000e+00
    endloop
  endfacet
  facet normal 0.000000e+00 0.000000e+00 1.000000e+00
    outer loop
      vertex -3.846211e+01 5.880985e-01 2.540000e+00
      vertex -3.851231e+01 4.953148e+00 2.540000e+00
      vertex -4.103148e+01 1.275616e+00 2.540000e+00
    endloop
  endfacet
  facet normal 0.000000e+00 0.000000e+00 1.000000e+00
    outer loop
      vertex -3.846211e+01 5.880985e-01 2.540000e+00
      vertex -4.103148e+01 1.275616e+00 2.540000e+00
      vertex -4.063756e+01 -3.179882e+00 2.540000e+00
    endloop
  endfacet
  facet normal 0.000000e+00 0.000000e+00 1.000000e+00
    outer loop
      vertex -4.063756e+01 -3.179882e+00 2.540000e+00
      vertex -4.103148e+01 1.275616e+00 2.540000e+00
      vertex -4.320058e+01 -2.618666e+00 2.540000e+00
    endloop
  endfacet
  facet normal 0.000000e+00 0.000000e+00 1.000000e+00
    outer loop
      vertex -4.063756e+01 -3.179882e+00 2.540000e+00
      vertex -4.320058e+01 -2.618666e+00 2.540000e+00
      vertex -4.244498e+01 -7.137592e+00 2.540000e+00
    endloop
  endfacet
  facet normal 0.000000e+00 0.000000e+00 1.000000e+00
    outer loop
      vertex -4.244498e+01 -7.137592e+00 2.540000e+00
      vertex -4.320058e+01 -2.618666e+00 2.540000e+00
      vertex -4.500111e+01 -6.696476e+00 2.540000e+00
    endloop
  endfacet
  facet normal 0.000000e+00 0.000000e+00 1.000000e+00
    outer loop
      vertex -4.244498e+01 -7.137592e+00 2.540000e+00
      vertex -4.500111e+01 -6.696476e+00 2.540000e+00
      vertex -4.386802e+01 -1.124919e+01 2.540000e+00
    endloop
  endfacet
  facet normal 0.000000e+00 0.000000e+00 1.000000e+00
    outer loop
      vertex -4.386802e+01 -1.124919e+01 2.540000e+00
      vertex -4.500111e+01 -6.696476e+00 2.540000e+00
      vertex -4.641770e+01 -1.092302e+01 2.540000e+00
    endloop
  endfacet
  facet normal 0.000000e+00 0.000000e+00 1.000000e+00
    outer loop
      vertex -4.386802e+01 -1.124919e+01 2.540000e+00
      vertex -4.641770e+01 -1.092302e+01 2.540000e+00
      vertex -4.489378e+01 -1.547743e+01 2.540000e+00
    endloop
  endfacet
  facet normal 0.000000e+00 0.000000e+00 1.000000e+00
    outer loop
      vertex -4.489378e+01 -1.547743e+01 2.540000e+00
      vertex -4.641770e+01 -1.092302e+01 2.540000e+00
      vertex -4.743828e+01 -1.526225e+01 2.540000e+00
    endloop
  endfacet
  facet normal 0.000000e+00 0.000000e+00 1.000000e+00
    outer loop
      vertex -4.489378e+01 -1.547743e+01 2.540000e+00
      vertex -4.743828e+01 -1.526225e+01 2.540000e+00
      vertex -4.551298e+01 -1.978404e+01 2.540000e+00
    endloop
  endfacet
  facet normal 0.000000e+00 0.000000e+00 1.000000e+00
    outer loop
      vertex -4.551298e+01 -1.978404e+01 2.540000e+00
      vertex -4.743828e+01 -1.526225e+01 2.540000e+00
      vertex -4.805413e+01 -1.967713e+01 2.540000e+00
    endloop
  endfacet
  facet normal 0.000000e+00 0.000000e+00 1.000000e+00
    outer loop
      vertex -4.551298e+01 -1.978404e+01 2.540000e+00
      vertex -4.805413e+01 -1.967713e+01 2.540000e+00
      vertex -4.572000e+01 -2.413000e+01 2.540000e+00
    endloop
  endfacet
  facet normal 0.000000e+00 0.000000e+00 1.000000e+00
    outer loop
      vertex -4.572000e+01 -2.413000e+01 2.540000e+00
      vertex -4.805413e+01 -1.967713e+01 2.540000e+00
      vertex -4.826000e+01 -2.413000e+01 2.540000e+00
    endloop
  endfacet
  facet normal 0.000000e+00 0.000000e+00 1.000000e+00
    outer loop
      vertex 4.572000e+01 -2.413000e+01 2.540000e+00
      vertex 4.826000e+01 -2.413000e+01 2.540000e+00
      vertex 4.551298e+01 -1.978404e+01 2.540000e+00
    endloop
  endfacet
  facet normal 0.000000e+00 0.000000e+00 1.000000e+00
    outer loop
      vertex 4.551298e+01 -1.978404e+01 2.540000e+00
      vertex 4.826000e+01 -2.413000e+01 2.540000e+00
      vertex 4.805413e+01 -1.967713e+01 2.540000e+00
    endloop
  endfacet
  facet normal 0.000000e+00 0.000000e+00 1.000000e+00
    outer loop
      vertex 4.551298e+01 -1.978404e+01 2.540000e+00
      vertex 4.805413e+01 -1.967713e+01 2.540000e+00
      vertex 4.489378e+01 -1.547743e+01 2.540000e+00
    endloop
  endfacet
  facet normal 0.000000e+00 0.000000e+00 1.000000e+00
    outer loop
      vertex 4.489378e+01 -1.547743e+01 2.540000e+00
      vertex 4.805413e+01 -1.967713e+01 2.540000e+00
      vertex 4.743828e+01 -1.526225e+01 2.540000e+00
    endloop
  endfacet
  facet normal 0.000000e+00 0.000000e+00 1.000000e+00
    outer loop
      vertex 4.489378e+01 -1.547743e+01 2.540000e+00
      vertex 4.743828e+01 -1.526225e+01 2.540000e+00
      vertex 4.386802e+01 -1.124919e+01 2.540000e+00
    endloop
  endfacet
  facet normal 0.000000e+00 0.000000e+00 1.000000e+00
    outer loop
      vertex 4.386802e+01 -1.124919e+01 2.540000e+00
      vertex 4.743828e+01 -1.526225e+01 2.540000e+00
      vertex 4.641771e+01 -1.092302e+01 2.540000e+00
    endloop
  endfacet
  facet normal 0.000000e+00 0.000000e+00 1.000000e+00
    outer loop
      vertex 4.386802e+01 -1.124919e+01 2.540000e+00
      vertex 4.641771e+01 -1.092302e+01 2.540000e+00
      vertex 4.244498e+01 -7.137592e+00 2.540000e+00
    endloop
  endfacet
  facet normal 0.000000e+00 0.000000e+00 1.000000e+00
    outer loop
      vertex 4.244498e+01 -7.137592e+00 2.540000e+00
      vertex 4.641771e+01 -1.092302e+01 2.540000e+00
      vertex 4.500111e+01 -6.696476e+00 2.540000e+00
    endloop
  endfacet
  facet normal 0.000000e+00 0.000000e+00 1.000000e+00
    outer loop
      vertex 4.244498e+01 -7.137592e+00 2.540000e+00
      vertex 4.500111e+01 -6.696476e+00 2.540000e+00
      vertex 4.063755e+01 -3.179882e+00 2.540000e+00
    endloop
  endfacet
  facet normal 0.000000e+00 0.000000e+00 1.000000e+00
    outer loop
      vertex 4.063755e+01 -3.179882e+00 2.540000e+00
      vertex 4.500111e+01 -6.696476e+00 2.540000e+00
      vertex 4.320059e+01 -2.618666e+00 2.540000e+00
    endloop
  endfacet
  facet normal 0.000000e+00 0.000000e+00 1.000000e+00
    outer loop
      vertex 4.063755e+01 -3.179882e+00 2.540000e+00
      vertex 4.320059e+01 -2.618666e+00 2.540000e+00
      vertex 3.846211e+01 5.880985e-01 2.540000e+00
    endloop
  endfacet
  facet normal 0.000000e+00 0.000000e+00 1.000000e+00
    outer loop
      vertex 3.846211e+01 5.880985e-01 2.540000e+00
      vertex 4.320059e+01 -2.618666e+00 2.540000e+00
      vertex 4.103148e+01 1.275616e+00 2.540000e+00
    endloop
  endfacet
  facet normal 0.000000e+00 0.000000e+00 1.000000e+00
    outer loop
      vertex 3.846211e+01 5.880985e-01 2.540000e+00
      vertex 4.103148e+01 1.275616e+00 2.540000e+00
      vertex 3.593835e+01 4.132231e+00 2.540000e+00
    endloop
  endfacet
  facet normal 0.000000e+00 0.000000e+00 1.000000e+00
    outer loop
      vertex 3.593835e+01 4.132231e+00 2.540000e+00
      vertex 4.103148e+01 1.275616e+00 2.540000e+00
      vertex 3.851231e+01 4.953148e+00 2.540000e+00
    endloop
  endfacet
  facet normal 0.000000e+00 0.000000e+00 1.000000e+00
    outer loop
      vertex 3.593835e+01 4.132231e+00 2.540000e+00
      vertex 3.851231e+01 4.953148e+00 2.540000e+00
      vertex 3.308912e+01 7.420412e+00 2.540000e+00
    endloop
  endfacet
  facet normal 0.000000e+00 0.000000e+00 1.000000e+00
    outer loop
      vertex 3.308912e+01 7.420412e+00 2.540000e+00
      vertex 3.851231e+01 4.953148e+00 2.540000e+00
      vertex 3.566457e+01 8.382555e+00 2.540000e+00
    endloop
  endfacet
  facet normal 0.000000e+00 0.000000e+00 1.000000e+00
    outer loop
      vertex 3.308912e+01 7.420412e+00 2.540000e+00
      vertex 3.566457e+01 8.382555e+00 2.540000e+00
      vertex 2.994024e+01 1.042287e+01 2.540000e+00
    endloop
  endfacet
  facet normal 0.000000e+00 0.000000e+00 1.000000e+00
    outer loop
      vertex 2.994024e+01 1.042287e+01 2.540000e+00
      vertex 3.566457e+01 8.382555e+00 2.540000e+00
      vertex 3.251255e+01 1.153457e+01 2.540000e+00
    endloop
  endfacet
  facet normal 0.000000e+00 0.000000e+00 1.000000e+00
    outer loop
      vertex 2.994024e+01 1.042287e+01 2.540000e+00
      vertex 3.251255e+01 1.153457e+01 2.540000e+00
      vertex 2.652021e+01 1.311241e+01 2.540000e+00
    endloop
  endfacet
  facet normal 0.000000e+00 0.000000e+00 1.000000e+00
    outer loop
      vertex 2.652021e+01 1.311241e+01 2.540000e+00
      vertex 3.251255e+01 1.153457e+01 2.540000e+00
      vertex 2.908315e+01 1.438231e+01 2.540000e+00
    endloop
  endfacet
  facet normal 0.000000e+00 0.000000e+00 1.000000e+00
    outer loop
      vertex 2.652021e+01 1.311241e+01 2.540000e+00
      vertex 2.908315e+01 1.438231e+01 2.540000e+00
      vertex 2.286000e+01 1.546468e+01 2.540000e+00
    endloop
  endfacet
  facet normal 0.000000e+00 0.000000e+00 1.000000e+00
    outer loop
      vertex 2.286000e+01 1.546468e+01 2.540000e+00
      vertex 2.908315e+01 1.438231e+01 2.540000e+00
      vertex 2.540562e+01 1.690148e+01 2.540000e+00
    endloop
  endfacet
  facet normal 0.000000e+00 0.000000e+00 1.000000e+00
    outer loop
      vertex 2.286000e+01 1.546468e+01 2.540000e+00
      vertex 2.540562e+01 1.690148e+01 2.540000e+00
      vertex 1.899277e+01 1.745838e+01 2.540000e+00
    endloop
  endfacet
  facet normal 0.000000e+00 0.000000e+00 1.000000e+00
    outer loop
      vertex 1.899277e+01 1.745838e+01 2.540000e+00
      vertex 2.540562e+01 1.690148e+01 2.540000e+00
      vertex 2.151133e+01 1.907058e+01 2.540000e+00
    endloop
  endfacet
  facet normal 0.000000e+00 0.000000e+00 1.000000e+00
    outer loop
      vertex 1.899277e+01 1.745838e+01 2.540000e+00
      vertex 2.151133e+01 1.907058e+01 2.540000e+00
      vertex 1.495355e+01 1.907544e+01 2.540000e+00
    endloop
  endfacet
  facet normal 0.000000e+00 0.000000e+00 1.000000e+00
    outer loop
      vertex 1.495355e+01 1.907544e+01 2.540000e+00
      vertex 2.151133e+01 1.907058e+01 2.540000e+00
      vertex 1.743352e+01 2.087111e+01 2.540000e+00
    endloop
  endfacet
  facet normal 0.000000e+00 0.000000e+00 1.000000e+00
    outer loop
      vertex 1.495355e+01 1.907544e+01 2.540000e+00
      vertex 1.743352e+01 2.087111e+01 2.540000e+00
      vertex 1.077890e+01 2.030123e+01 2.540000e+00
    endloop
  endfacet
  facet normal 0.000000e+00 0.000000e+00 1.000000e+00
    outer loop
      vertex 1.077890e+01 2.030123e+01 2.540000e+00
      vertex 1.743352e+01 2.087111e+01 2.540000e+00
      vertex 1.320698e+01 2.228771e+01 2.540000e+00
    endloop
  endfacet
  facet normal 0.000000e+00 0.000000e+00 1.000000e+00
    outer loop
      vertex 1.077890e+01 2.030123e+01 2.540000e+00
      vertex 1.320698e+01 2.228771e+01 2.540000e+00
      vertex 6.506634e+00 2.112464e+01 2.540000e+00
    endloop
  endfacet
  facet normal 0.000000e+00 0.000000e+00 1.000000e+00
    outer loop
      vertex 6.506634e+00 2.112464e+01 2.540000e+00
      vertex 1.320698e+01 2.228771e+01 2.540000e+00
      vertex 8.867752e+00 2.330828e+01 2.540000e+00
    endloop
  endfacet
  facet normal 0.000000e+00 0.000000e+00 1.000000e+00
    outer loop
      vertex 6.506634e+00 2.112464e+01 2.540000e+00
      vertex 8.867752e+00 2.330828e+01 2.540000e+00
      vertex 2.175449e+00 2.153821e+01 2.540000e+00
    endloop
  endfacet
  facet normal 0.000000e+00 0.000000e+00 1.000000e+00
    outer loop
      vertex 2.175449e+00 2.153821e+01 2.540000e+00
      vertex 8.867752e+00 2.330828e+01 2.540000e+00
      vertex 4.452873e+00 2.392414e+01 2.540000e+00
    endloop
  endfacet
  facet normal 0.000000e+00 0.000000e+00 1.000000e+00
    outer loop
      vertex 2.175449e+00 2.153821e+01 2.540000e+00
      vertex 4.452873e+00 2.392414e+01 2.540000e+00
      vertex -2.175446e+00 2.153821e+01 2.540000e+00
    endloop
  endfacet
  facet normal 0.000000e+00 0.000000e+00 1.000000e+00
    outer loop
      vertex -2.175446e+00 2.153821e+01 2.540000e+00
      vertex 4.452873e+00 2.392414e+01 2.540000e+00
      vertex 0.000000e+00 2.413000e+01 2.540000e+00
    endloop
  endfacet
  facet normal 0.000000e+00 0.000000e+00 1.000000e+00
    outer loop
      vertex -2.175446e+00 2.153821e+01 2.540000e+00
      vertex 0.000000e+00 2.413000e+01 2.540000e+00
      vertex -4.452873e+00 2.392414e+01 2.540000e+00
    endloop
  endfacet
  facet normal 0.000000e+00 0.000000e+00 -1.000000e+00
    outer loop
      vertex 4.826000e+01 -2.413000e+01 0.000000e+00
      vertex 4.572000e+01 -2.413000e+01 0.000000e+00
      vertex 4.805413e+01 -1.967713e+01 0.000000e+00
    endloop
  endfacet
  facet normal 0.000000e+00 0.000000e+00 -1.000000e+00
    outer loop
      vertex 4.805413e+01 -1.967713e+01 0.000000e+00
      vertex 4.572000e+01 -2.413000e+01 0.000000e+00
      vertex 4.551298e+01 -1.978404e+01 0.000000e+00
    endloop
  endfacet
  facet normal 0.000000e+00 0.000000e+00 -1.000000e+00
    outer loop
      vertex 4.805413e+01 -1.967713e+01 0.000000e+00
      vertex 4.551298e+01 -1.978404e+01 0.000000e+00
      vertex 4.743828e+01 -1.526225e+01 0.000000e+00
    endloop
  endfacet
  facet normal 0.000000e+00 0.000000e+00 -1.000000e+00
    outer loop
      vertex 4.743828e+01 -1.526225e+01 0.000000e+00
      vertex 4.551298e+01 -1.978404e+01 0.000000e+00
      vertex 4.489378e+01 -1.547743e+01 0.000000e+00
    endloop
  endfacet
  facet normal 0.000000e+00 0.000000e+00 -1.000000e+00
    outer loop
      vertex 4.743828e+01 -1.526225e+01 0.000000e+00
      vertex 4.489378e+01 -1.547743e+01 0.000000e+00
      vertex 4.641771e+01 -1.092302e+01 0.000000e+00
    endloop
  endfacet
  facet normal 0.000000e+00 0.000000e+00 -1.000000e+00
    outer loop
      vertex 4.641771e+01 -1.092302e+01 0.000000e+00
      vertex 4.489378e+01 -1.547743e+01 0.000000e+00
      vertex 4.386802e+01 -1.124919e+01 0.000000e+00
    endloop
  endfacet
  facet normal 0.000000e+00 0.000000e+00 -1.000000e+00
    outer loop
      vertex 4.641771e+01 -1.092302e+01 0.000000e+00
      vertex 4.386802e+01 -1.124919e+01 0.000000e+00
      vertex 4.500111e+01 -6.696476e+00 0.000000e+00
    endloop
  endfacet
  facet normal 0.000000e+00 0.000000e+00 -1.000000e+00
    outer loop
      vertex 4.500111e+01 -6.696476e+00 0.000000e+00
      vertex 4.386802e+01 -1.124919e+01 0.000000e+00
      vertex 4.244498e+01 -7.137592e+00 0.000000e+00
    endloop
  endfacet
  facet normal 0.000000e+00 0.000000e+00 -1.000000e+00
    outer loop
      vertex 4.500111e+01 -6.696476e+00 0.000000e+00
      vertex 4.244498e+01 -7.137592e+00 0.000000e+00
      vertex 4.320059e+01 -2.618666e+00 0.000000e+00
    endloop
  endfacet
  facet normal 0.000000e+00 0.000000e+00 -1.000000e+00
    outer loop
      vertex 4.320059e+01 -2.618666e+00 0.000000e+00
      vertex 4.244498e+01 -7.137592e+00 0.000000e+00
      vertex 4.063755e+01 -3.179882e+00 0.000000e+00
    endloop
  endfacet
  facet normal 0.000000e+00 0.000000e+00 -1.000000e+00
    outer loop
      vertex 4.320059e+01 -2.618666e+00 0.000000e+00
      vertex 4.063755e+01 -3.179882e+00 0.000000e+00
      vertex 4.103148e+01 1.275616e+00 0.000000e+00
    endloop
  endfacet
  facet normal 0.000000e+00 0.000000e+00 -1.000000e+00
    outer loop
      vertex 4.103148e+01 1.275616e+00 0.000000e+00
      vertex 4.063755e+01 -3.179882e+00 0.000000e+00
      vertex 3.846211e+01 5.880985e-01 0.000000e+00
    endloop
  endfacet
  facet normal 0.000000e+00 0.000000e+00 -1.000000e+00
    outer loop
      vertex 4.103148e+01 1.275616e+00 0.000000e+00
      vertex 3.846211e+01 5.880985e-01 0.000000e+00
      vertex 3.851231e+01 4.953148e+00 0.000000e+00
    endloop
  endfacet
  facet normal 0.000000e+00 0.000000e+00 -1.000000e+00
    outer loop
      vertex 3.851231e+01 4.953148e+00 0.000000e+00
      vertex 3.846211e+01 5.880985e-01 0.000000e+00
      vertex 3.593835e+01 4.132231e+00 0.000000e+00
    endloop
  endfacet
  facet normal 0.000000e+00 0.000000e+00 -1.000000e+00
    outer loop
      vertex 3.851231e+01 4.953148e+00 0.000000e+00
      vertex 3.593835e+01 4.132231e+00 0.000000e+00
      vertex 3.566457e+01 8.382555e+00 0.000000e+00
    endloop
  endfacet
  facet normal 0.000000e+00 0.000000e+00 -1.000000e+00
    outer loop
      vertex 3.566457e+01 8.382555e+00 0.000000e+00
      vertex 3.593835e+01 4.132231e+00 0.000000e+00
      vertex 3.308912e+01 7.420412e+00 0.000000e+00
    endloop
  endfacet
  facet normal 0.000000e+00 0.000000e+00 -1.000000e+00
    outer loop
      vertex 3.566457e+01 8.382555e+00 0.000000e+00
      vertex 3.308912e+01 7.420412e+00 0.000000e+00
      vertex 3.251255e+01 1.153457e+01 0.000000e+00
    endloop
  endfacet
  facet normal 0.000000e+00 0.000000e+00 -1.000000e+00
    outer loop
      vertex 3.251255e+01 1.153457e+01 0.000000e+00
      vertex 3.308912e+01 7.420412e+00 0.000000e+00
      vertex 2.994024e+01 1.042287e+01 0.000000e+00
    endloop
  endfacet
  facet normal 0.000000e+00 0.000000e+00 -1.000000e+00
    outer loop
      vertex 3.251255e+01 1.153457e+01 0.000000e+00
      vertex 2.994024e+01 1.042287e+01 0.000000e+00
      vertex 2.908315e+01 1.438231e+01 0.000000e+00
    endloop
  endfacet
  facet normal 0.000000e+00 0.000000e+00 -1.000000e+00
    outer loop
      vertex 2.908315e+01 1.438231e+01 0.000000e+00
      vertex 2.994024e+01 1.042287e+01 0.000000e+00
      vertex 2.652021e+01 1.311241e+01 0.000000e+00
    endloop
  endfacet
  facet normal 0.000000e+00 0.000000e+00 -1.000000e+00
    outer loop
      vertex 2.908315e+01 1.438231e+01 0.000000e+00
      vertex 2.652021e+01 1.311241e+01 0.000000e+00
      vertex 2.540562e+01 1.690148e+01 0.000000e+00
    endloop
  endfacet
  facet normal 0.000000e+00 0.000000e+00 -1.000000e+00
    outer loop
      vertex 2.540562e+01 1.690148e+01 0.000000e+00
      vertex 2.652021e+01 1.311241e+01 0.000000e+00
      vertex 2.286000e+01 1.546468e+01 0.000000e+00
    endloop
  endfacet
  facet normal 0.000000e+00 0.000000e+00 -1.000000e+00
    outer loop
      vertex 2.540562e+01 1.690148e+01 0.000000e+00
      vertex 2.286000e+01 1.546468e+01 0.000000e+00
      vertex 2.151133e+01 1.907058e+01 0.000000e+00
    endloop
  endfacet
  facet normal 0.000000e+00 0.000000e+00 -1.000000e+00
    outer loop
      vertex 2.151133e+01 1.907058e+01 0.000000e+00
      vertex 2.286000e+01 1.546468e+01 0.000000e+00
      vertex 1.899277e+01 1.745838e+01 0.000000e+00
    endloop
  endfacet
  facet normal 0.000000e+00 0.000000e+00 -1.000000e+00
    outer loop
      vertex 2.151133e+01 1.907058e+01 0.000000e+00
      vertex 1.899277e+01 1.745838e+01 0.000000e+00
      vertex 1.743352e+01 2.087111e+01 0.000000e+00
    endloop
  endfacet
  facet normal 0.000000e+00 0.000000e+00 -1.000000e+00
    outer loop
      vertex 1.743352e+01 2.087111e+01 0.000000e+00
      vertex 1.899277e+01 1.745838e+01 0.000000e+00
      vertex 1.495355e+01 1.907544e+01 0.000000e+00
    endloop
  endfacet
  facet normal 0.000000e+00 0.000000e+00 -1.000000e+00
    outer loop
      vertex 1.743352e+01 2.087111e+01 0.000000e+00
      vertex 1.495355e+01 1.907544e+01 0.000000e+00
      vertex 1.320698e+01 2.228771e+01 0.000000e+00
    endloop
  endfacet
  facet normal 0.000000e+00 0.000000e+00 -1.000000e+00
    outer loop
      vertex 1.320698e+01 2.228771e+01 0.000000e+00
      vertex 1.495355e+01 1.907544e+01 0.000000e+00
      vertex 1.077890e+01 2.030123e+01 0.000000e+00
    endloop
  endfacet
  facet normal 0.000000e+00 0.000000e+00 -1.000000e+00
    outer loop
      vertex 1.320698e+01 2.228771e+01 0.000000e+00
      vertex 1.077890e+01 2.030123e+01 0.000000e+00
      vertex 8.867752e+00 2.330828e+01 0.000000e+00
    endloop
  endfacet
  facet normal 0.000000e+00 0.000000e+00 -1.000000e+00
    outer loop
      vertex 8.867752e+00 2.330828e+01 0.000000e+00
      vertex 1.077890e+01 2.030123e+01 0.000000e+00
      vertex 6.506634e+00 2.112464e+01 0.000000e+00
    endloop
  endfacet
  facet normal 0.000000e+00 0.000000e+00 -1.000000e+00
    outer loop
      vertex 8.867752e+00 2.330828e+01 0.000000e+00
      vertex 6.506634e+00 2.112464e+01 0.000000e+00
      vertex 4.452873e+00 2.392414e+01 0.000000e+00
    endloop
  endfacet
  facet normal 0.000000e+00 0.000000e+00 -1.000000e+00
    outer loop
      vertex 4.452873e+00 2.392414e+01 0.000000e+00
      vertex 6.506634e+00 2.112464e+01 0.000000e+00
      vertex 2.175449e+00 2.153821e+01 0.000000e+00
    endloop
  endfacet
  facet normal 0.000000e+00 0.000000e+00 -1.000000e+00
    outer loop
      vertex 4.452873e+00 2.392414e+01 0.000000e+00
      vertex 2.175449e+00 2.153821e+01 0.000000e+00
      vertex 0.000000e+00 2.413000e+01 0.000000e+00
    endloop
  endfacet
  facet normal 0.000000e+00 0.000000e+00 -1.000000e+00
    outer loop
      vertex 0.000000e+00 2.413000e+01 0.000000e+00
      vertex 2.175449e+00 2.153821e+01 0.000000e+00
      vertex -2.175446e+00 2.153821e+01 0.000000e+00
    endloop
  endfacet
  facet normal 0.000000e+00 0.000000e+00 -1.000000e+00
    outer loop
      vertex -4.572000e+01 -2.413000e+01 0.000000e+00
      vertex -4.826000e+01 -2.413000e+01 0.000000e+00
      vertex -4.551298e+01 -1.978404e+01 0.000000e+00
    endloop
  endfacet
  facet normal 0.000000e+00 0.000000e+00 -1.000000e+00
    outer loop
      vertex -4.551298e+01 -1.978404e+01 0.000000e+00
      vertex -4.826000e+01 -2.413000e+01 0.000000e+00
      vertex -4.805413e+01 -1.967713e+01 0.000000e+00
    endloop
  endfacet
  facet normal 0.000000e+00 0.000000e+00 -1.000000e+00
    outer loop
      vertex -4.551298e+01 -1.978404e+01 0.000000e+00
      vertex -4.805413e+01 -1.967713e+01 0.000000e+00
      vertex -4.489378e+01 -1.547743e+01 0.000000e+00
    endloop
  endfacet
  facet normal 0.000000e+00 0.000000e+00 -1.000000e+00
    outer loop
      vertex -4.489378e+01 -1.547743e+01 0.000000e+00
      vertex -4.805413e+01 -1.967713e+01 0.000000e+00
      vertex -4.743828e+01 -1.526225e+01 0.000000e+00
    endloop
  endfacet
  facet normal 0.000000e+00 0.000000e+00 -1.000000e+00
    outer loop
      vertex -4.489378e+01 -1.547743e+01 0.000000e+00
      vertex -4.743828e+01 -1.526225e+01 0.000000e+00
      vertex -4.386802e+01 -1.124919e+01 0.000000e+00
    endloop
  endfacet
  facet normal 0.000000e+00 0.000000e+00 -1.000000e+00
    outer loop
      vertex -4.386802e+01 -1.124919e+01 0.000000e+00
      vertex -4.743828e+01 -1.526225e+01 0.000000e+00
      vertex -4.641770e+01 -1.092302e+01 0.000000e+00
    endloop
  endfacet
  facet normal 0.000000e+00 0.000000e+00 -1.000000e+00
    outer loop
      vertex -4.386802e+01 -1.124919e+01 0.000000e+00
      vertex -4.641770e+01 -1.092302e+01 0.000000e+00
      vertex -4.244498e+01 -7.137592e+00 0.000000e+00
    endloop
  endfacet
  facet normal 0.000000e+00 0.000000e+00 -1.000000e+00
    outer loop
      vertex -4.244498e+01 -7.137592e+00 0.000000e+00
      vertex -4.641770e+01 -1.092302e+01 0.000000e+00
      vertex -4.500111e+01 -6.696476e+00 0.000000e+00
    endloop
  endfacet
  facet normal 0.000000e+00 0.000000e+00 -1.000000e+00
    outer loop
      vertex -4.244498e+01 -7.137592e+00 0.000000e+00
      vertex -4.500111e+01 -6.696476e+00 0.000000e+00
      vertex -4.063756e+01 -3.179882e+00 0.000000e+00
    endloop
  endfacet
  facet normal 0.000000e+00 0.000000e+00 -1.000000e+00
    outer loop
      vertex -4.063756e+01 -3.179882e+00 0.000000e+00
      vertex -4.500111e+01 -6.696476e+00 0.000000e+00
      vertex -4.320058e+01 -2.618666e+00 0.000000e+00
    endloop
  endfacet
  facet normal 0.000000e+00 0.000000e+00 -1.000000e+00
    outer loop
      vertex -4.063756e+01 -3.179882e+00 0.000000e+00
      vertex -4.320058e+01 -2.618666e+00 0.000000e+00
      vertex -3.846211e+01 5.880985e-01 0.000000e+00
    endloop
  endfacet
  facet normal 0.000000e+00 0.000000e+00 -1.000000e+00
    outer loop
      vertex -3.846211e+01 5.880985e-01 0.000000e+00
      vertex -4.320058e+01 -2.618666e+00 0.000000e+00
      vertex -4.103148e+01 1.275616e+00 0.000000e+00
    endloop
  endfacet
  facet normal 0.000000e+00 0.000000e+00 -1.000000e+00
    outer loop
      vertex -3.846211e+01 5.880985e-01 0.000000e+00
      vertex -4.103148e+01 1.275616e+00 0.000000e+00
      vertex -3.593835e+01 4.132231e+00 0.000000e+00
    endloop
  endfacet
  facet normal 0.000000e+00 0.000000e+00 -1.000000e+00
    outer loop
      vertex -3.593835e+01 4.132231e+00 0.000000e+00
      vertex -4.103148e+01 1.275616e+00 0.000000e+00
      vertex -3.851231e+01 4.953148e+00 0.000000e+00
    endloop
  endfacet
  facet normal 0.000000e+00 0.000000e+00 -1.000000e+00
    outer loop
      vertex -3.593835e+01 4.132231e+00 0.000000e+00
      vertex -3.851231e+01 4.953148e+00 0.000000e+00
      vertex -3.308912e+01 7.420412e+00 0.000000e+00
    endloop
  endfacet
  facet normal 0.000000e+00 0.000000e+00 -1.000000e+00
    outer loop
      vertex -3.308912e+01 7.420412e+00 0.000000e+00
      vertex -3.851231e+01 4.953148e+00 0.000000e+00
      vertex -3.566457e+01 8.382555e+00 0.000000e+00
    endloop
  endfacet
  facet normal 0.000000e+00 0.000000e+00 -1.000000e+00
    outer loop
      vertex -3.308912e+01 7.420412e+00 0.000000e+00
      vertex -3.566457e+01 8.382555e+00 0.000000e+00
      vertex -2.994023e+01 1.042287e+01 0.000000e+00
    endloop
  endfacet
  facet normal 0.000000e+00 0.000000e+00 -1.000000e+00
    outer loop
      vertex -2.994023e+01 1.042287e+01 0.000000e+00
      vertex -3.566457e+01 8.382555e+00 0.000000e+00
      vertex -3.251255e+01 1.153457e+01 0.000000e+00
    endloop
  endfacet
  facet normal 0.000000e+00 0.000000e+00 -1.000000e+00
    outer loop
      vertex -2.994023e+01 1.042287e+01 0.000000e+00
      vertex -3.251255e+01 1.153457e+01 0.000000e+00
      vertex -2.652020e+01 1.311241e+01 0.000000e+00
    endloop
  endfacet
  facet normal 0.000000e+00 0.000000e+00 -1.000000e+00
    outer loop
      vertex -2.652020e+01 1.311241e+01 0.000000e+00
      vertex -3.251255e+01 1.153457e+01 0.000000e+00
      vertex -2.908315e+01 1.438231e+01 0.000000e+00
    endloop
  endfacet
  facet normal 0.000000e+00 0.000000e+00 -1.000000e+00
    outer loop
      vertex -2.652020e+01 1.311241e+01 0.000000e+00
      vertex -2.908315e+01 1.438231e+01 0.000000e+00
      vertex -2.286000e+01 1.546468e+01 0.000000e+00
    endloop
  endfacet
  facet normal 0.000000e+00 0.000000e+00 -1.000000e+00
    outer loop
      vertex -2.286000e+01 1.546468e+01 0.000000e+00
      vertex -2.908315e+01 1.438231e+01 0.000000e+00
      vertex -2.540561e+01 1.690148e+01 0.000000e+00
    endloop
  endfacet
  facet normal 0.000000e+00 0.000000e+00 -1.000000e+00
    outer loop
      vertex -2.286000e+01 1.546468e+01 0.000000e+00
      vertex -2.540561e+01 1.690148e+01 0.000000e+00
      vertex -1.899277e+01 1.745838e+01 0.000000e+00
    endloop
  endfacet
  facet normal 0.000000e+00 0.000000e+00 -1.000000e+00
    outer loop
      vertex -1.899277e+01 1.745838e+01 0.000000e+00
      vertex -2.540561e+01 1.690148e+01 0.000000e+00
      vertex -2.151133e+01 1.907058e+01 0.000000e+00
    endloop
  endfacet
  facet normal 0.000000e+00 0.000000e+00 -1.000000e+00
    outer loop
      vertex -1.899277e+01 1.745838e+01 0.000000e+00
      vertex -2.151133e+01 1.907058e+01 0.000000e+00
      vertex -1.495354e+01 1.907544e+01 0.000000e+00
    endloop
  endfacet
  facet normal 0.000000e+00 0.000000e+00 -1.000000e+00
    outer loop
      vertex -1.495354e+01 1.907544e+01 0.000000e+00
      vertex -2.151133e+01 1.907058e+01 0.000000e+00
      vertex -1.743352e+01 2.087111e+01 0.000000e+00
    endloop
  endfacet
  facet normal 0.000000e+00 0.000000e+00 -1.000000e+00
    outer loop
      vertex -1.495354e+01 1.907544e+01 0.000000e+00
      vertex -1.743352e+01 2.087111e+01 0.000000e+00
      vertex -1.077890e+01 2.030123e+01 0.000000e+00
    endloop
  endfacet
  facet normal 0.000000e+00 0.000000e+00 -1.000000e+00
    outer loop
      vertex -1.077890e+01 2.030123e+01 0.000000e+00
      vertex -1.743352e+01 2.087111e+01 0.000000e+00
      vertex -1.320698e+01 2.228771e+01 0.000000e+00
    endloop
  endfacet
  facet normal 0.000000e+00 0.000000e+00 -1.000000e+00
    outer loop
      vertex -1.077890e+01 2.030123e+01 0.000000e+00
      vertex -1.320698e+01 2.228771e+01 0.000000e+00
      vertex -6.506630e+00 2.112464e+01 0.000000e+00
    endloop
  endfacet
  facet normal 0.000000e+00 0.000000e+00 -1.000000e+00
    outer loop
      vertex -6.506630e+00 2.112464e+01 0.000000e+00
      vertex -1.320698e+01 2.228771e+01 0.000000e+00
      vertex -8.867752e+00 2.330828e+01 0.000000e+00
    endloop
  endfacet
  facet normal 0.000000e+00 0.000000e+00 -1.000000e+00
    outer loop
      vertex -6.506630e+00 2.112464e+01 0.000000e+00
      vertex -8.867752e+00 2.330828e+01 0.000000e+00
      vertex -2.175446e+00 2.153821e+01 0.000000e+00
    endloop
  endfacet
  facet normal 0.000000e+00 0.000000e+00 -1.000000e+00
    outer loop
      vertex -2.175446e+00 2.153821e+01 0.000000e+00
      vertex -8.867752e+00 2.330828e+01 0.000000e+00
      vertex -4.452873e+00 2.392414e+01 0.000000e+00
    endloop
  endfacet
  facet normal 0.000000e+00 0.000000e+00 -1.000000e+00
    outer loop
      vertex -2.175446e+00 2.153821e+01 0.000000e+00
      vertex -4.452873e+00 2.392414e+01 0.000000e+00
      vertex 0.000000e+00 2.413000e+01 0.000000e+00
    endloop
  endfacet
endsolid Default
