solid Default
  facet normal -1.224647e-16 1.836970e-16 1.000000e+00
    outer loop
      vertex -6.974998e+00 7.000000e+00 3.363802e+01
      vertex -1.647500e+01 7.000000e+00 3.363802e+01
      vertex -6.974998e+00 -3.800000e+00 3.363802e+01
    endloop
  endfacet
  facet normal -1.224647e-16 1.836970e-16 1.000000e+00
    outer loop
      vertex -6.974998e+00 -3.800000e+00 3.363802e+01
      vertex -1.647500e+01 7.000000e+00 3.363802e+01
      vertex -1.647500e+01 -7.000000e+00 3.363802e+01
    endloop
  endfacet
  facet normal -1.224647e-16 1.836970e-16 1.000000e+00
    outer loop
      vertex -6.974998e+00 -3.800000e+00 3.363802e+01
      vertex -1.647500e+01 -7.000000e+00 3.363802e+01
      vertex 1.647500e+01 -3.800000e+00 3.363802e+01
    endloop
  endfacet
  facet normal -1.224647e-16 1.836970e-16 1.000000e+00
    outer loop
      vertex 1.647500e+01 -3.800000e+00 3.363802e+01
      vertex -1.647500e+01 -7.000000e+00 3.363802e+01
      vertex 1.647500e+01 -7.000000e+00 3.363802e+01
    endloop
  endfacet
  facet normal -1.000000e+00 -2.249640e-32 -1.224647e-16
    outer loop
      vertex -1.647500e+01 -7.000000e+00 3.363802e+01
      vertex -1.647500e+01 7.000000e+00 3.363802e+01
      vertex -1.647500e+01 -7.000000e+00 2.571758e-15
    endloop
  endfacet
  facet normal -1.000000e+00 -2.249640e-32 -1.224647e-16
    outer loop
      vertex -1.647500e+01 -7.000000e+00 2.571758e-15
      vertex -1.647500e+01 7.000000e+00 3.363802e+01
      vertex -1.647500e+01 7.000000e+00 0.000000e+00
    endloop
  endfacet
  facet normal 1.579414e-16 -1.000000e+00 1.836970e-16
    outer loop
      vertex 1.647500e+01 -7.000000e+00 3.363802e+01
      vertex -1.647500e+01 -7.000000e+00 3.363802e+01
      vertex 1.647500e+01 -7.000000e+00 6.606970e-15
    endloop
  endfacet
  facet normal 1.579414e-16 -1.000000e+00 1.836970e-16
    outer loop
      vertex 1.647500e+01 -7.000000e+00 6.606970e-15
      vertex -1.647500e+01 -7.000000e+00 3.363802e+01
      vertex -1.647500e+01 -7.000000e+00 2.571758e-15
    endloop
  endfacet
  facet normal 1.000000e+00 2.249640e-32 1.224647e-16
    outer loop
      vertex 1.647500e+01 -3.800000e+00 3.363802e+01
      vertex 1.647500e+01 -7.000000e+00 3.363802e+01
      vertex 1.647500e+01 -3.800000e+00 1.081901e+01
    endloop
  endfacet
  facet normal 1.000000e+00 2.249640e-32 1.224647e-16
    outer loop
      vertex 1.647500e+01 -3.800000e+00 1.081901e+01
      vertex 1.647500e+01 -7.000000e+00 3.363802e+01
      vertex 1.647500e+01 -7.000000e+00 6.606970e-15
    endloop
  endfacet
  facet normal 1.000000e+00 2.249640e-32 1.224647e-16
    outer loop
      vertex 1.647500e+01 -3.800000e+00 1.081901e+01
      vertex 1.647500e+01 -7.000000e+00 6.606970e-15
      vertex 1.647500e+01 2.000003e-01 1.081901e+01
    endloop
  endfacet
  facet normal 1.000000e+00 2.249640e-32 1.224647e-16
    outer loop
      vertex 1.647500e+01 2.000003e-01 1.081901e+01
      vertex 1.647500e+01 -7.000000e+00 6.606970e-15
      vertex 1.647500e+01 7.000000e+00 4.035211e-15
    endloop
  endfacet
  facet normal 1.000000e+00 2.249640e-32 1.224647e-16
    outer loop
      vertex 1.647500e+01 2.000003e-01 1.081901e+01
      vertex 1.647500e+01 7.000000e+00 4.035211e-15
      vertex 1.647500e+01 2.000003e-01 3.363802e+01
    endloop
  endfacet
  facet normal 1.000000e+00 2.249640e-32 1.224647e-16
    outer loop
      vertex 1.647500e+01 2.000003e-01 3.363802e+01
      vertex 1.647500e+01 7.000000e+00 4.035211e-15
      vertex 1.647500e+01 7.000000e+00 3.363802e+01
    endloop
  endfacet
  facet normal 0.000000e+00 1.000000e+00 -1.836970e-16
    outer loop
      vertex -1.974998e+00 7.000000e+00 3.363802e+01
      vertex 1.647500e+01 7.000000e+00 3.363802e+01
      vertex -1.974998e+00 7.000000e+00 1.081901e+01
    endloop
  endfacet
  facet normal 0.000000e+00 1.000000e+00 -1.836970e-16
    outer loop
      vertex -1.974998e+00 7.000000e+00 1.081901e+01
      vertex 1.647500e+01 7.000000e+00 3.363802e+01
      vertex 1.647500e+01 7.000000e+00 4.035211e-15
    endloop
  endfacet
  facet normal 0.000000e+00 1.000000e+00 -1.836970e-16
    outer loop
      vertex -1.974998e+00 7.000000e+00 1.081901e+01
      vertex 1.647500e+01 7.000000e+00 4.035211e-15
      vertex -6.974998e+00 7.000000e+00 1.081901e+01
    endloop
  endfacet
  facet normal 0.000000e+00 1.000000e+00 -1.836970e-16
    outer loop
      vertex -6.974998e+00 7.000000e+00 1.081901e+01
      vertex 1.647500e+01 7.000000e+00 4.035211e-15
      vertex -1.647500e+01 7.000000e+00 0.000000e+00
    endloop
  endfacet
  facet normal 0.000000e+00 1.000000e+00 -1.836970e-16
    outer loop
      vertex -6.974998e+00 7.000000e+00 1.081901e+01
      vertex -1.647500e+01 7.000000e+00 0.000000e+00
      vertex -6.974998e+00 7.000000e+00 3.363802e+01
    endloop
  endfacet
  facet normal 0.000000e+00 1.000000e+00 -1.836970e-16
    outer loop
      vertex -6.974998e+00 7.000000e+00 3.363802e+01
      vertex -1.647500e+01 7.000000e+00 0.000000e+00
      vertex -1.647500e+01 7.000000e+00 3.363802e+01
    endloop
  endfacet
  facet normal -1.224647e-16 1.836970e-16 1.000000e+00
    outer loop
      vertex 1.647500e+01 2.000003e-01 3.363802e+01
      vertex 1.647500e+01 7.000000e+00 3.363802e+01
      vertex -1.974998e+00 2.000003e-01 3.363802e+01
    endloop
  endfacet
  facet normal -1.224647e-16 1.836970e-16 1.000000e+00
    outer loop
      vertex -1.974998e+00 2.000003e-01 3.363802e+01
      vertex 1.647500e+01 7.000000e+00 3.363802e+01
      vertex -1.974998e+00 7.000000e+00 3.363802e+01
    endloop
  endfacet
  facet normal 1.224647e-16 -1.836970e-16 -1.000000e+00
    outer loop
      vertex 1.647500e+01 7.000000e+00 4.035211e-15
      vertex 1.647500e+01 -7.000000e+00 6.606970e-15
      vertex -1.647500e+01 7.000000e+00 0.000000e+00
    endloop
  endfacet
  facet normal 1.224647e-16 -1.836970e-16 -1.000000e+00
    outer loop
      vertex -1.647500e+01 7.000000e+00 0.000000e+00
      vertex 1.647500e+01 -7.000000e+00 6.606970e-15
      vertex -1.647500e+01 -7.000000e+00 2.571758e-15
    endloop
  endfacet
  facet normal -1.000000e+00 -2.249640e-32 -1.224647e-16
    outer loop
      vertex -1.974998e+00 7.000000e+00 1.081901e+01
      vertex -1.974998e+00 2.000003e-01 1.081901e+01
      vertex -1.974998e+00 7.000000e+00 3.363802e+01
    endloop
  endfacet
  facet normal -1.000000e+00 -2.249640e-32 -1.224647e-16
    outer loop
      vertex -1.974998e+00 7.000000e+00 3.363802e+01
      vertex -1.974998e+00 2.000003e-01 1.081901e+01
      vertex -1.974998e+00 2.000003e-01 3.363802e+01
    endloop
  endfacet
  facet normal 1.000000e+00 2.249640e-32 1.224647e-16
    outer loop
      vertex -6.974998e+00 7.000000e+00 1.081901e+01
      vertex -6.974998e+00 7.000000e+00 3.363802e+01
      vertex -6.974998e+00 -3.800000e+00 1.081901e+01
    endloop
  endfacet
  facet normal 1.000000e+00 2.249640e-32 1.224647e-16
    outer loop
      vertex -6.974998e+00 -3.800000e+00 1.081901e+01
      vertex -6.974998e+00 7.000000e+00 3.363802e+01
      vertex -6.974998e+00 -3.800000e+00 3.363802e+01
    endloop
  endfacet
  facet normal 0.000000e+00 1.000000e+00 -1.836970e-16
    outer loop
      vertex 1.647500e+01 -3.800000e+00 1.081901e+01
      vertex -6.974998e+00 -3.800000e+00 1.081901e+01
      vertex 1.647500e+01 -3.800000e+00 3.363802e+01
    endloop
  endfacet
  facet normal 0.000000e+00 1.000000e+00 -1.836970e-16
    outer loop
      vertex 1.647500e+01 -3.800000e+00 3.363802e+01
      vertex -6.974998e+00 -3.800000e+00 1.081901e+01
      vertex -6.974998e+00 -3.800000e+00 3.363802e+01
    endloop
  endfacet
  facet normal 1.479508e-16 -1.000000e+00 1.836970e-16
    outer loop
      vertex 1.647500e+01 2.000003e-01 1.081901e+01
      vertex 1.647500e+01 2.000003e-01 3.363802e+01
      vertex -1.974998e+00 2.000003e-01 1.081901e+01
    endloop
  endfacet
  facet normal 1.479508e-16 -1.000000e+00 1.836970e-16
    outer loop
      vertex -1.974998e+00 2.000003e-01 1.081901e+01
      vertex 1.647500e+01 2.000003e-01 3.363802e+01
      vertex -1.974998e+00 2.000003e-01 3.363802e+01
    endloop
  endfacet
  facet normal -1.224647e-16 1.836970e-16 1.000000e+00
    outer loop
      vertex -1.974998e+00 7.000000e+00 1.081901e+01
      vertex -6.974998e+00 7.000000e+00 1.081901e+01
      vertex -1.974998e+00 2.000003e-01 1.081901e+01
    endloop
  endfacet
  facet normal -1.224647e-16 1.836970e-16 1.000000e+00
    outer loop
      vertex -1.974998e+00 2.000003e-01 1.081901e+01
      vertex -6.974998e+00 7.000000e+00 1.081901e+01
      vertex -6.974998e+00 -3.800000e+00 1.081901e+01
    endloop
  endfacet
  facet normal -1.224647e-16 1.836970e-16 1.000000e+00
    outer loop
      vertex -1.974998e+00 2.000003e-01 1.081901e+01
      vertex -6.974998e+00 -3.800000e+00 1.081901e+01
      vertex 1.647500e+01 2.000003e-01 1.081901e+01
    endloop
  endfacet
  facet normal -1.224647e-16 1.836970e-16 1.000000e+00
    outer loop
      vertex 1.647500e+01 2.000003e-01 1.081901e+01
      vertex -6.974998e+00 -3.800000e+00 1.081901e+01
      vertex 1.647500e+01 -3.800000e+00 1.081901e+01
    endloop
  endfacet
endsolid Default
