solid Default
  facet normal 0.000000e+00 0.000000e+00 1.000000e+00
    outer loop
      vertex -1.147500e+01 1.222516e+01 8.610000e+01
      vertex -1.647500e+01 1.681901e+01 8.610000e+01
      vertex -1.147500e+01 -1.222516e+01 8.610000e+01
    endloop
  endfacet
  facet normal 0.000000e+00 0.000000e+00 1.000000e+00
    outer loop
      vertex -1.147500e+01 -1.222516e+01 8.610000e+01
      vertex -1.647500e+01 1.681901e+01 8.610000e+01
      vertex -1.647500e+01 -1.681901e+01 8.610000e+01
    endloop
  endfacet
  facet normal 0.000000e+00 0.000000e+00 1.000000e+00
    outer loop
      vertex -1.147500e+01 -1.222516e+01 8.610000e+01
      vertex -1.647500e+01 -1.681901e+01 8.610000e+01
      vertex 1.147500e+01 -1.291000e+01 8.610000e+01
    endloop
  endfacet
  facet normal 0.000000e+00 0.000000e+00 1.000000e+00
    outer loop
      vertex 1.147500e+01 -1.291000e+01 8.610000e+01
      vertex -1.647500e+01 -1.681901e+01 8.610000e+01
      vertex 1.647500e+01 -1.681901e+01 8.610000e+01
    endloop
  endfacet
  facet normal 0.000000e+00 0.000000e+00 1.000000e+00
    outer loop
      vertex 1.147500e+01 -1.291000e+01 8.610000e+01
      vertex 1.647500e+01 -1.681901e+01 8.610000e+01
      vertex 1.147500e+01 1.291000e+01 8.610000e+01
    endloop
  endfacet
  facet normal 0.000000e+00 0.000000e+00 1.000000e+00
    outer loop
      vertex 1.147500e+01 1.291000e+01 8.610000e+01
      vertex 1.647500e+01 -1.681901e+01 8.610000e+01
      vertex 1.647500e+01 1.681901e+01 8.610000e+01
    endloop
  endfacet
  facet normal 0.000000e+00 0.000000e+00 1.000000e+00
    outer loop
      vertex 1.147500e+01 1.291000e+01 8.610000e+01
      vertex 1.647500e+01 1.681901e+01 8.610000e+01
      vertex -1.147500e+01 1.222516e+01 8.610000e+01
    endloop
  endfacet
  facet normal 0.000000e+00 0.000000e+00 1.000000e+00
    outer loop
      vertex -1.147500e+01 1.222516e+01 8.610000e+01
      vertex 1.647500e+01 1.681901e+01 8.610000e+01
      vertex -1.647500e+01 1.681901e+01 8.610000e+01
    endloop
  endfacet
  facet normal 0.000000e+00 0.000000e+00 -1.000000e+00
    outer loop
      vertex 1.147500e+01 1.291000e+01 0.000000e+00
      vertex 1.647500e+01 1.681901e+01 0.000000e+00
      vertex 1.147500e+01 -1.291000e+01 0.000000e+00
    endloop
  endfacet
  facet normal 0.000000e+00 0.000000e+00 -1.000000e+00
    outer loop
      vertex 1.147500e+01 -1.291000e+01 0.000000e+00
      vertex 1.647500e+01 1.681901e+01 0.000000e+00
      vertex 1.647500e+01 -1.681901e+01 0.000000e+00
    endloop
  endfacet
  facet normal 0.000000e+00 0.000000e+00 -1.000000e+00
    outer loop
      vertex 1.147500e+01 -1.291000e+01 0.000000e+00
      vertex 1.647500e+01 -1.681901e+01 0.000000e+00
      vertex -1.147500e+01 -1.222516e+01 0.000000e+00
    endloop
  endfacet
  facet normal 0.000000e+00 0.000000e+00 -1.000000e+00
    outer loop
      vertex -1.147500e+01 -1.222516e+01 0.000000e+00
      vertex 1.647500e+01 -1.681901e+01 0.000000e+00
      vertex -1.647500e+01 -1.681901e+01 0.000000e+00
    endloop
  endfacet
  facet normal 0.000000e+00 0.000000e+00 -1.000000e+00
    outer loop
      vertex -1.147500e+01 -1.222516e+01 0.000000e+00
      vertex -1.647500e+01 -1.681901e+01 0.000000e+00
      vertex -1.147500e+01 1.222516e+01 0.000000e+00
    endloop
  endfacet
  facet normal 0.000000e+00 0.000000e+00 -1.000000e+00
    outer loop
      vertex -1.147500e+01 1.222516e+01 0.000000e+00
      vertex -1.647500e+01 -1.681901e+01 0.000000e+00
      vertex -1.647500e+01 1.681901e+01 0.000000e+00
    endloop
  endfacet
  facet normal 0.000000e+00 0.000000e+00 -1.000000e+00
    outer loop
      vertex -1.147500e+01 1.222516e+01 0.000000e+00
      vertex -1.647500e+01 1.681901e+01 0.000000e+00
      vertex 1.147500e+01 1.291000e+01 0.000000e+00
    endloop
  endfacet
  facet normal 0.000000e+00 0.000000e+00 -1.000000e+00
    outer loop
      vertex 1.147500e+01 1.291000e+01 0.000000e+00
      vertex -1.647500e+01 1.681901e+01 0.000000e+00
      vertex 1.647500e+01 1.681901e+01 0.000000e+00
    endloop
  endfacet
  facet normal 1.000000e+00 0.000000e+00 0.000000e+00
    outer loop
      vertex 1.647500e+01 1.681901e+01 8.610000e+01
      vertex 1.647500e+01 -1.681901e+01 8.610000e+01
      vertex 1.647500e+01 1.681901e+01 0.000000e+00
    endloop
  endfacet
  facet normal 1.000000e+00 0.000000e+00 0.000000e+00
    outer loop
      vertex 1.647500e+01 1.681901e+01 0.000000e+00
      vertex 1.647500e+01 -1.681901e+01 8.610000e+01
      vertex 1.647500e+01 -1.681901e+01 0.000000e+00
    endloop
  endfacet
  facet normal 0.000000e+00 1.000000e+00 0.000000e+00
    outer loop
      vertex -1.647500e+01 1.681901e+01 8.610000e+01
      vertex 1.647500e+01 1.681901e+01 8.610000e+01
      vertex -1.647500e+01 1.681901e+01 0.000000e+00
    endloop
  endfacet
  facet normal 0.000000e+00 1.000000e+00 0.000000e+00
    outer loop
      vertex -1.647500e+01 1.681901e+01 0.000000e+00
      vertex 1.647500e+01 1.681901e+01 8.610000e+01
      vertex 1.647500e+01 1.681901e+01 0.000000e+00
    endloop
  endfacet
  facet normal -1.000000e+00 0.000000e+00 0.000000e+00
    outer loop
      vertex -1.647500e+01 -1.681901e+01 8.610000e+01
      vertex -1.647500e+01 1.681901e+01 8.610000e+01
      vertex -1.647500e+01 -1.681901e+01 0.000000e+00
    endloop
  endfacet
  facet normal -1.000000e+00 0.000000e+00 0.000000e+00
    outer loop
      vertex -1.647500e+01 -1.681901e+01 0.000000e+00
      vertex -1.647500e+01 1.681901e+01 8.610000e+01
      vertex -1.647500e+01 1.681901e+01 0.000000e+00
    endloop
  endfacet
  facet normal 0.000000e+00 -1.000000e+00 0.000000e+00
    outer loop
      vertex 1.647500e+01 -1.681901e+01 8.610000e+01
      vertex -1.647500e+01 -1.681901e+01 8.610000e+01
      vertex 1.647500e+01 -1.681901e+01 0.000000e+00
    endloop
  endfacet
  facet normal 0.000000e+00 -1.000000e+00 0.000000e+00
    outer loop
      vertex 1.647500e+01 -1.681901e+01 0.000000e+00
      vertex -1.647500e+01 -1.681901e+01 8.610000e+01
      vertex -1.647500e+01 -1.681901e+01 0.000000e+00
    endloop
  endfacet
  facet normal 2.982727e-02 9.995551e-01 0.000000e+00
    outer loop
      vertex -1.147500e+01 -1.222516e+01 8.610000e+01
      vertex 1.147500e+01 -1.291000e+01 8.610000e+01
      vertex -1.147500e+01 -1.222516e+01 0.000000e+00
    endloop
  endfacet
  facet normal 2.982727e-02 9.995551e-01 0.000000e+00
    outer loop
      vertex -1.147500e+01 -1.222516e+01 0.000000e+00
      vertex 1.147500e+01 -1.291000e+01 8.610000e+01
      vertex 1.147500e+01 -1.291000e+01 0.000000e+00
    endloop
  endfacet
  facet normal -1.000000e+00 0.000000e+00 0.000000e+00
    outer loop
      vertex 1.147500e+01 -1.291000e+01 8.610000e+01
      vertex 1.147500e+01 1.291000e+01 8.610000e+01
      vertex 1.147500e+01 -1.291000e+01 0.000000e+00
    endloop
  endfacet
  facet normal -1.000000e+00 0.000000e+00 0.000000e+00
    outer loop
      vertex 1.147500e+01 -1.291000e+01 0.000000e+00
      vertex 1.147500e+01 1.291000e+01 8.610000e+01
      vertex 1.147500e+01 1.291000e+01 0.000000e+00
    endloop
  endfacet
  facet normal 2.982727e-02 -9.995551e-01 0.000000e+00
    outer loop
      vertex 1.147500e+01 1.291000e+01 8.610000e+01
      vertex -1.147500e+01 1.222516e+01 8.610000e+01
      vertex 1.147500e+01 1.291000e+01 0.000000e+00
    endloop
  endfacet
  facet normal 2.982727e-02 -9.995551e-01 0.000000e+00
    outer loop
      vertex 1.147500e+01 1.291000e+01 0.000000e+00
      vertex -1.147500e+01 1.222516e+01 8.610000e+01
      vertex -1.147500e+01 1.222516e+01 0.000000e+00
    endloop
  endfacet
  facet normal 1.000000e+00 1.418978e-16 0.000000e+00
    outer loop
      vertex -1.147500e+01 1.222516e+01 8.610000e+01
      vertex -1.147500e+01 -1.222516e+01 8.610000e+01
      vertex -1.147500e+01 1.222516e+01 0.000000e+00
    endloop
  endfacet
  facet normal 1.000000e+00 1.418978e-16 0.000000e+00
    outer loop
      vertex -1.147500e+01 1.222516e+01 0.000000e+00
      vertex -1.147500e+01 -1.222516e+01 8.610000e+01
      vertex -1.147500e+01 -1.222516e+01 0.000000e+00
    endloop
  endfacet
endsolid Default
