solid Default
  facet normal 0.000000e+00 0.000000e+00 1.000000e+00
    outer loop
      vertex -2.642000e+01 4.900002e+00 8.000000e+00
      vertex -3.350000e+01 4.900002e+00 8.000000e+00
      vertex -2.642000e+01 -2.590000e+00 8.000000e+00
    endloop
  endfacet
  facet normal 0.000000e+00 0.000000e+00 1.000000e+00
    outer loop
      vertex -2.642000e+01 -2.590000e+00 8.000000e+00
      vertex -3.350000e+01 4.900002e+00 8.000000e+00
      vertex -3.350000e+01 -4.900002e+00 8.000000e+00
    endloop
  endfacet
  facet normal 0.000000e+00 0.000000e+00 1.000000e+00
    outer loop
      vertex -2.642000e+01 -2.590000e+00 8.000000e+00
      vertex -3.350000e+01 -4.900002e+00 8.000000e+00
      vertex -1.372000e+01 -2.590000e+00 8.000000e+00
    endloop
  endfacet
  facet normal 0.000000e+00 0.000000e+00 1.000000e+00
    outer loop
      vertex -1.372000e+01 -2.590000e+00 8.000000e+00
      vertex -3.350000e+01 -4.900002e+00 8.000000e+00
      vertex 3.350000e+01 -4.900002e+00 8.000000e+00
    endloop
  endfacet
  facet normal 0.000000e+00 0.000000e+00 1.000000e+00
    outer loop
      vertex -1.372000e+01 -2.590000e+00 8.000000e+00
      vertex 3.350000e+01 -4.900002e+00 8.000000e+00
      vertex -1.372000e+01 4.900002e+00 8.000000e+00
    endloop
  endfacet
  facet normal 0.000000e+00 0.000000e+00 1.000000e+00
    outer loop
      vertex -1.372000e+01 4.900002e+00 8.000000e+00
      vertex 3.350000e+01 -4.900002e+00 8.000000e+00
      vertex 3.350000e+01 4.900002e+00 8.000000e+00
    endloop
  endfacet
  facet normal 0.000000e+00 1.000000e+00 0.000000e+00
    outer loop
      vertex -1.372000e+01 6.900002e+00 1.200000e+00
      vertex 3.550000e+01 6.900002e+00 0.000000e+00
      vertex -3.550000e+01 6.900002e+00 0.000000e+00
    endloop
  endfacet
  facet normal 0.000000e+00 1.000000e+00 0.000000e+00
    outer loop
      vertex 3.550000e+01 6.900002e+00 0.000000e+00
      vertex -1.372000e+01 6.900002e+00 1.200000e+00
      vertex 3.550000e+01 6.900002e+00 7.785000e+01
    endloop
  endfacet
  facet normal 0.000000e+00 1.000000e+00 0.000000e+00
    outer loop
      vertex 3.550000e+01 6.900002e+00 7.785000e+01
      vertex -1.372000e+01 6.900002e+00 1.200000e+00
      vertex -1.372000e+01 6.900002e+00 8.000000e+00
    endloop
  endfacet
  facet normal 0.000000e+00 1.000000e+00 0.000000e+00
    outer loop
      vertex 3.550000e+01 6.900002e+00 7.785000e+01
      vertex -1.372000e+01 6.900002e+00 8.000000e+00
      vertex -3.550000e+01 6.900002e+00 7.785000e+01
    endloop
  endfacet
  facet normal 0.000000e+00 1.000000e+00 0.000000e+00
    outer loop
      vertex -3.550000e+01 6.900002e+00 7.785000e+01
      vertex -1.372000e+01 6.900002e+00 8.000000e+00
      vertex -2.642000e+01 6.900002e+00 8.000000e+00
    endloop
  endfacet
  facet normal 0.000000e+00 1.000000e+00 0.000000e+00
    outer loop
      vertex -3.550000e+01 6.900002e+00 7.785000e+01
      vertex -2.642000e+01 6.900002e+00 8.000000e+00
      vertex -3.550000e+01 6.900002e+00 0.000000e+00
    endloop
  endfacet
  facet normal 0.000000e+00 1.000000e+00 0.000000e+00
    outer loop
      vertex -3.550000e+01 6.900002e+00 0.000000e+00
      vertex -2.642000e+01 6.900002e+00 8.000000e+00
      vertex -2.642000e+01 6.900002e+00 1.200000e+00
    endloop
  endfacet
  facet normal 0.000000e+00 1.000000e+00 0.000000e+00
    outer loop
      vertex -3.550000e+01 6.900002e+00 0.000000e+00
      vertex -2.642000e+01 6.900002e+00 1.200000e+00
      vertex -1.372000e+01 6.900002e+00 1.200000e+00
    endloop
  endfacet
  facet normal 0.000000e+00 0.000000e+00 1.000000e+00
    outer loop
      vertex -3.350000e+01 4.900002e+00 7.785000e+01
      vertex -3.550000e+01 6.900002e+00 7.785000e+01
      vertex -3.350000e+01 -4.900002e+00 7.785000e+01
    endloop
  endfacet
  facet normal 0.000000e+00 0.000000e+00 1.000000e+00
    outer loop
      vertex -3.350000e+01 -4.900002e+00 7.785000e+01
      vertex -3.550000e+01 6.900002e+00 7.785000e+01
      vertex -3.550000e+01 -6.900002e+00 7.785000e+01
    endloop
  endfacet
  facet normal 0.000000e+00 0.000000e+00 1.000000e+00
    outer loop
      vertex -3.350000e+01 -4.900002e+00 7.785000e+01
      vertex -3.550000e+01 -6.900002e+00 7.785000e+01
      vertex 3.350000e+01 -4.900002e+00 7.785000e+01
    endloop
  endfacet
  facet normal 0.000000e+00 0.000000e+00 1.000000e+00
    outer loop
      vertex 3.350000e+01 -4.900002e+00 7.785000e+01
      vertex -3.550000e+01 -6.900002e+00 7.785000e+01
      vertex 3.550000e+01 -6.900002e+00 7.785000e+01
    endloop
  endfacet
  facet normal 0.000000e+00 0.000000e+00 1.000000e+00
    outer loop
      vertex 3.350000e+01 -4.900002e+00 7.785000e+01
      vertex 3.550000e+01 -6.900002e+00 7.785000e+01
      vertex 3.350000e+01 4.900002e+00 7.785000e+01
    endloop
  endfacet
  facet normal 0.000000e+00 0.000000e+00 1.000000e+00
    outer loop
      vertex 3.350000e+01 4.900002e+00 7.785000e+01
      vertex 3.550000e+01 -6.900002e+00 7.785000e+01
      vertex 3.550000e+01 6.900002e+00 7.785000e+01
    endloop
  endfacet
  facet normal 0.000000e+00 0.000000e+00 1.000000e+00
    outer loop
      vertex 3.350000e+01 4.900002e+00 7.785000e+01
      vertex 3.550000e+01 6.900002e+00 7.785000e+01
      vertex -3.350000e+01 4.900002e+00 7.785000e+01
    endloop
  endfacet
  facet normal 0.000000e+00 0.000000e+00 1.000000e+00
    outer loop
      vertex -3.350000e+01 4.900002e+00 7.785000e+01
      vertex 3.550000e+01 6.900002e+00 7.785000e+01
      vertex -3.550000e+01 6.900002e+00 7.785000e+01
    endloop
  endfacet
  facet normal -1.000000e+00 0.000000e+00 0.000000e+00
    outer loop
      vertex -3.550000e+01 -6.900002e+00 0.000000e+00
      vertex -3.550000e+01 -6.900002e+00 7.785000e+01
      vertex -3.550000e+01 6.900002e+00 0.000000e+00
    endloop
  endfacet
  facet normal -1.000000e+00 0.000000e+00 0.000000e+00
    outer loop
      vertex -3.550000e+01 6.900002e+00 0.000000e+00
      vertex -3.550000e+01 -6.900002e+00 7.785000e+01
      vertex -3.550000e+01 6.900002e+00 7.785000e+01
    endloop
  endfacet
  facet normal 0.000000e+00 -1.000000e+00 0.000000e+00
    outer loop
      vertex 3.550000e+01 -6.900002e+00 0.000000e+00
      vertex 3.550000e+01 -6.900002e+00 7.785000e+01
      vertex -3.550000e+01 -6.900002e+00 0.000000e+00
    endloop
  endfacet
  facet normal 0.000000e+00 -1.000000e+00 0.000000e+00
    outer loop
      vertex -3.550000e+01 -6.900002e+00 0.000000e+00
      vertex 3.550000e+01 -6.900002e+00 7.785000e+01
      vertex -3.550000e+01 -6.900002e+00 7.785000e+01
    endloop
  endfacet
  facet normal 1.000000e+00 0.000000e+00 0.000000e+00
    outer loop
      vertex 3.550000e+01 6.900002e+00 0.000000e+00
      vertex 3.550000e+01 6.900002e+00 7.785000e+01
      vertex 3.550000e+01 -6.900002e+00 0.000000e+00
    endloop
  endfacet
  facet normal 1.000000e+00 0.000000e+00 0.000000e+00
    outer loop
      vertex 3.550000e+01 -6.900002e+00 0.000000e+00
      vertex 3.550000e+01 6.900002e+00 7.785000e+01
      vertex 3.550000e+01 -6.900002e+00 7.785000e+01
    endloop
  endfacet
  facet normal 1.000000e+00 0.000000e+00 0.000000e+00
    outer loop
      vertex -3.350000e+01 4.900002e+00 7.785000e+01
      vertex -3.350000e+01 -4.900002e+00 7.785000e+01
      vertex -3.350000e+01 4.900002e+00 8.000000e+00
    endloop
  endfacet
  facet normal 1.000000e+00 0.000000e+00 0.000000e+00
    outer loop
      vertex -3.350000e+01 4.900002e+00 8.000000e+00
      vertex -3.350000e+01 -4.900002e+00 7.785000e+01
      vertex -3.350000e+01 -4.900002e+00 8.000000e+00
    endloop
  endfacet
  facet normal 0.000000e+00 1.000000e+00 0.000000e+00
    outer loop
      vertex -3.350000e+01 -4.900002e+00 7.785000e+01
      vertex 3.350000e+01 -4.900002e+00 7.785000e+01
      vertex -3.350000e+01 -4.900002e+00 8.000000e+00
    endloop
  endfacet
  facet normal 0.000000e+00 1.000000e+00 0.000000e+00
    outer loop
      vertex -3.350000e+01 -4.900002e+00 8.000000e+00
      vertex 3.350000e+01 -4.900002e+00 7.785000e+01
      vertex 3.350000e+01 -4.900002e+00 8.000000e+00
    endloop
  endfacet
  facet normal -1.000000e+00 0.000000e+00 0.000000e+00
    outer loop
      vertex 3.350000e+01 -4.900002e+00 7.785000e+01
      vertex 3.350000e+01 4.900002e+00 7.785000e+01
      vertex 3.350000e+01 -4.900002e+00 8.000000e+00
    endloop
  endfacet
  facet normal -1.000000e+00 0.000000e+00 0.000000e+00
    outer loop
      vertex 3.350000e+01 -4.900002e+00 8.000000e+00
      vertex 3.350000e+01 4.900002e+00 7.785000e+01
      vertex 3.350000e+01 4.900002e+00 8.000000e+00
    endloop
  endfacet
  facet normal 0.000000e+00 -1.000000e+00 0.000000e+00
    outer loop
      vertex 3.350000e+01 4.900002e+00 8.000000e+00
      vertex 3.350000e+01 4.900002e+00 7.785000e+01
      vertex -1.372000e+01 4.900002e+00 8.000000e+00
    endloop
  endfacet
  facet normal 0.000000e+00 -1.000000e+00 0.000000e+00
    outer loop
      vertex -1.372000e+01 4.900002e+00 8.000000e+00
      vertex 3.350000e+01 4.900002e+00 7.785000e+01
      vertex -3.350000e+01 4.900002e+00 7.785000e+01
    endloop
  endfacet
  facet normal 0.000000e+00 -1.000000e+00 0.000000e+00
    outer loop
      vertex -1.372000e+01 4.900002e+00 8.000000e+00
      vertex -3.350000e+01 4.900002e+00 7.785000e+01
      vertex -2.642000e+01 4.900002e+00 8.000000e+00
    endloop
  endfacet
  facet normal 0.000000e+00 -1.000000e+00 0.000000e+00
    outer loop
      vertex -2.642000e+01 4.900002e+00 8.000000e+00
      vertex -3.350000e+01 4.900002e+00 7.785000e+01
      vertex -3.350000e+01 4.900002e+00 8.000000e+00
    endloop
  endfacet
  facet normal 0.000000e+00 0.000000e+00 -1.000000e+00
    outer loop
      vertex -3.550000e+01 -6.900002e+00 6.938894e-15
      vertex -3.550000e+01 6.900002e+00 6.938894e-15
      vertex 3.550000e+01 -6.900002e+00 6.938894e-15
    endloop
  endfacet
  facet normal 0.000000e+00 0.000000e+00 -1.000000e+00
    outer loop
      vertex 3.550000e+01 -6.900002e+00 6.938894e-15
      vertex -3.550000e+01 6.900002e+00 6.938894e-15
      vertex 3.550000e+01 6.900002e+00 6.938894e-15
    endloop
  endfacet
  facet normal 1.000000e+00 0.000000e+00 0.000000e+00
    outer loop
      vertex -2.642000e+01 -2.590000e+00 8.000000e+00
      vertex -2.642000e+01 -2.590000e+00 1.200000e+00
      vertex -2.642000e+01 4.900002e+00 8.000000e+00
    endloop
  endfacet
  facet normal 1.000000e+00 0.000000e+00 0.000000e+00
    outer loop
      vertex -2.642000e+01 4.900002e+00 8.000000e+00
      vertex -2.642000e+01 -2.590000e+00 1.200000e+00
      vertex -2.642000e+01 6.900002e+00 1.200000e+00
    endloop
  endfacet
  facet normal 1.000000e+00 0.000000e+00 0.000000e+00
    outer loop
      vertex -2.642000e+01 4.900002e+00 8.000000e+00
      vertex -2.642000e+01 6.900002e+00 1.200000e+00
      vertex -2.642000e+01 6.900002e+00 8.000000e+00
    endloop
  endfacet
  facet normal -1.000000e+00 0.000000e+00 0.000000e+00
    outer loop
      vertex -1.372000e+01 6.900002e+00 8.000000e+00
      vertex -1.372000e+01 6.900002e+00 1.200000e+00
      vertex -1.372000e+01 4.900002e+00 8.000000e+00
    endloop
  endfacet
  facet normal -1.000000e+00 0.000000e+00 0.000000e+00
    outer loop
      vertex -1.372000e+01 4.900002e+00 8.000000e+00
      vertex -1.372000e+01 6.900002e+00 1.200000e+00
      vertex -1.372000e+01 -2.590000e+00 1.200000e+00
    endloop
  endfacet
  facet normal -1.000000e+00 0.000000e+00 0.000000e+00
    outer loop
      vertex -1.372000e+01 4.900002e+00 8.000000e+00
      vertex -1.372000e+01 -2.590000e+00 1.200000e+00
      vertex -1.372000e+01 -2.590000e+00 8.000000e+00
    endloop
  endfacet
  facet normal 0.000000e+00 0.000000e+00 1.000000e+00
    outer loop
      vertex -2.642000e+01 -2.590000e+00 1.200000e+00
      vertex -1.372000e+01 -2.590000e+00 1.200000e+00
      vertex -2.642000e+01 6.900002e+00 1.200000e+00
    endloop
  endfacet
  facet normal 0.000000e+00 0.000000e+00 1.000000e+00
    outer loop
      vertex -2.642000e+01 6.900002e+00 1.200000e+00
      vertex -1.372000e+01 -2.590000e+00 1.200000e+00
      vertex -1.372000e+01 6.900002e+00 1.200000e+00
    endloop
  endfacet
  facet normal 0.000000e+00 0.000000e+00 -1.000000e+00
    outer loop
      vertex -2.642000e+01 6.900002e+00 8.000000e+00
      vertex -1.372000e+01 6.900002e+00 8.000000e+00
      vertex -2.642000e+01 4.900002e+00 8.000000e+00
    endloop
  endfacet
  facet normal 0.000000e+00 0.000000e+00 -1.000000e+00
    outer loop
      vertex -2.642000e+01 4.900002e+00 8.000000e+00
      vertex -1.372000e+01 6.900002e+00 8.000000e+00
      vertex -1.372000e+01 4.900002e+00 8.000000e+00
    endloop
  endfacet
  facet normal 0.000000e+00 1.000000e+00 0.000000e+00
    outer loop
      vertex -1.372000e+01 -2.590000e+00 1.200000e+00
      vertex -2.642000e+01 -2.590000e+00 1.200000e+00
      vertex -1.372000e+01 -2.590000e+00 8.000000e+00
    endloop
  endfacet
  facet normal 0.000000e+00 1.000000e+00 0.000000e+00
    outer loop
      vertex -1.372000e+01 -2.590000e+00 8.000000e+00
      vertex -2.642000e+01 -2.590000e+00 1.200000e+00
      vertex -2.642000e+01 -2.590000e+00 8.000000e+00
    endloop
  endfacet
endsolid Default
