solid Default
  facet normal -4.499279e-32 2.449294e-16 1.000000e+00
    outer loop
      vertex -4.650000e+00 -3.325000e+01 3.000000e+00
      vertex -6.650001e+00 -3.525000e+01 3.000000e+00
      vertex 4.650001e+00 -3.325000e+01 3.000000e+00
    endloop
  endfacet
  facet normal -4.499279e-32 2.449294e-16 1.000000e+00
    outer loop
      vertex 4.650001e+00 -3.325000e+01 3.000000e+00
      vertex -6.650001e+00 -3.525000e+01 3.000000e+00
      vertex 6.650001e+00 -3.525000e+01 3.000000e+00
    endloop
  endfacet
  facet normal -4.499279e-32 2.449294e-16 1.000000e+00
    outer loop
      vertex 4.650001e+00 -3.325000e+01 3.000000e+00
      vertex 6.650001e+00 -3.525000e+01 3.000000e+00
      vertex 4.650001e+00 3.325000e+01 3.000000e+00
    endloop
  endfacet
  facet normal -4.499279e-32 2.449294e-16 1.000000e+00
    outer loop
      vertex 4.650001e+00 3.325000e+01 3.000000e+00
      vertex 6.650001e+00 -3.525000e+01 3.000000e+00
      vertex 6.650001e+00 3.525000e+01 3.000000e+00
    endloop
  endfacet
  facet normal -4.499279e-32 2.449294e-16 1.000000e+00
    outer loop
      vertex 4.650001e+00 3.325000e+01 3.000000e+00
      vertex 6.650001e+00 3.525000e+01 3.000000e+00
      vertex -4.650000e+00 3.325000e+01 3.000000e+00
    endloop
  endfacet
  facet normal -4.499279e-32 2.449294e-16 1.000000e+00
    outer loop
      vertex -4.650000e+00 3.325000e+01 3.000000e+00
      vertex 6.650001e+00 3.525000e+01 3.000000e+00
      vertex -6.650001e+00 3.525000e+01 3.000000e+00
    endloop
  endfacet
  facet normal -4.499279e-32 2.449294e-16 1.000000e+00
    outer loop
      vertex -4.650000e+00 3.325000e+01 3.000000e+00
      vertex -6.650001e+00 3.525000e+01 3.000000e+00
      vertex -4.650000e+00 -3.325000e+01 3.000000e+00
    endloop
  endfacet
  facet normal -4.499279e-32 2.449294e-16 1.000000e+00
    outer loop
      vertex -4.650000e+00 -3.325000e+01 3.000000e+00
      vertex -6.650001e+00 3.525000e+01 3.000000e+00
      vertex -6.650001e+00 -3.525000e+01 3.000000e+00
    endloop
  endfacet
  facet normal 4.499279e-32 -2.449294e-16 -1.000000e+00
    outer loop
      vertex -4.650000e+00 -3.325000e+01 1.677766e-14
      vertex -6.650001e+00 -3.525000e+01 1.726752e-14
      vertex -4.650000e+00 3.325000e+01 4.898569e-16
    endloop
  endfacet
  facet normal 4.499279e-32 -2.449294e-16 -1.000000e+00
    outer loop
      vertex -4.650000e+00 3.325000e+01 4.898569e-16
      vertex -6.650001e+00 -3.525000e+01 1.726752e-14
      vertex -6.650001e+00 3.525000e+01 0.000000e+00
    endloop
  endfacet
  facet normal 4.499279e-32 -2.449294e-16 -1.000000e+00
    outer loop
      vertex -4.650000e+00 3.325000e+01 4.898569e-16
      vertex -6.650001e+00 3.525000e+01 0.000000e+00
      vertex 4.650001e+00 3.325000e+01 4.898569e-16
    endloop
  endfacet
  facet normal 4.499279e-32 -2.449294e-16 -1.000000e+00
    outer loop
      vertex 4.650001e+00 3.325000e+01 4.898569e-16
      vertex -6.650001e+00 3.525000e+01 0.000000e+00
      vertex 6.650001e+00 3.525000e+01 0.000000e+00
    endloop
  endfacet
  facet normal 4.499279e-32 -2.449294e-16 -1.000000e+00
    outer loop
      vertex 4.650001e+00 3.325000e+01 4.898569e-16
      vertex 6.650001e+00 3.525000e+01 0.000000e+00
      vertex 4.650001e+00 -3.325000e+01 1.677766e-14
    endloop
  endfacet
  facet normal 4.499279e-32 -2.449294e-16 -1.000000e+00
    outer loop
      vertex 4.650001e+00 -3.325000e+01 1.677766e-14
      vertex 6.650001e+00 3.525000e+01 0.000000e+00
      vertex 6.650001e+00 -3.525000e+01 1.726752e-14
    endloop
  endfacet
  facet normal 4.499279e-32 -2.449294e-16 -1.000000e+00
    outer loop
      vertex 4.650001e+00 -3.325000e+01 1.677766e-14
      vertex 6.650001e+00 -3.525000e+01 1.726752e-14
      vertex -4.650000e+00 -3.325000e+01 1.677766e-14
    endloop
  endfacet
  facet normal 4.499279e-32 -2.449294e-16 -1.000000e+00
    outer loop
      vertex -4.650000e+00 -3.325000e+01 1.677766e-14
      vertex 6.650001e+00 -3.525000e+01 1.726752e-14
      vertex -6.650001e+00 -3.525000e+01 1.726752e-14
    endloop
  endfacet
  facet normal 1.836970e-16 -1.000000e+00 2.449294e-16
    outer loop
      vertex 6.650001e+00 -3.525000e+01 3.000000e+00
      vertex -6.650001e+00 -3.525000e+01 3.000000e+00
      vertex 6.650001e+00 -3.525000e+01 1.726752e-14
    endloop
  endfacet
  facet normal 1.836970e-16 -1.000000e+00 2.449294e-16
    outer loop
      vertex 6.650001e+00 -3.525000e+01 1.726752e-14
      vertex -6.650001e+00 -3.525000e+01 3.000000e+00
      vertex -6.650001e+00 -3.525000e+01 1.726752e-14
    endloop
  endfacet
  facet normal 1.000000e+00 1.836970e-16 0.000000e+00
    outer loop
      vertex 6.650001e+00 3.525000e+01 3.000000e+00
      vertex 6.650001e+00 -3.525000e+01 3.000000e+00
      vertex 6.650001e+00 3.525000e+01 0.000000e+00
    endloop
  endfacet
  facet normal 1.000000e+00 1.836970e-16 0.000000e+00
    outer loop
      vertex 6.650001e+00 3.525000e+01 0.000000e+00
      vertex 6.650001e+00 -3.525000e+01 3.000000e+00
      vertex 6.650001e+00 -3.525000e+01 1.726752e-14
    endloop
  endfacet
  facet normal -1.836970e-16 1.000000e+00 -2.449294e-16
    outer loop
      vertex -6.650001e+00 3.525000e+01 3.000000e+00
      vertex 6.650001e+00 3.525000e+01 3.000000e+00
      vertex -6.650001e+00 3.525000e+01 0.000000e+00
    endloop
  endfacet
  facet normal -1.836970e-16 1.000000e+00 -2.449294e-16
    outer loop
      vertex -6.650001e+00 3.525000e+01 0.000000e+00
      vertex 6.650001e+00 3.525000e+01 3.000000e+00
      vertex 6.650001e+00 3.525000e+01 0.000000e+00
    endloop
  endfacet
  facet normal -1.000000e+00 -1.836970e-16 0.000000e+00
    outer loop
      vertex -6.650001e+00 -3.525000e+01 3.000000e+00
      vertex -6.650001e+00 3.525000e+01 3.000000e+00
      vertex -6.650001e+00 -3.525000e+01 1.726752e-14
    endloop
  endfacet
  facet normal -1.000000e+00 -1.836970e-16 0.000000e+00
    outer loop
      vertex -6.650001e+00 -3.525000e+01 1.726752e-14
      vertex -6.650001e+00 3.525000e+01 3.000000e+00
      vertex -6.650001e+00 3.525000e+01 0.000000e+00
    endloop
  endfacet
  facet normal -1.836970e-16 1.000000e+00 -2.449294e-16
    outer loop
      vertex -4.650000e+00 -3.325000e+01 3.000000e+00
      vertex 4.650001e+00 -3.325000e+01 3.000000e+00
      vertex -4.650000e+00 -3.325000e+01 1.677766e-14
    endloop
  endfacet
  facet normal -1.836970e-16 1.000000e+00 -2.449294e-16
    outer loop
      vertex -4.650000e+00 -3.325000e+01 1.677766e-14
      vertex 4.650001e+00 -3.325000e+01 3.000000e+00
      vertex 4.650001e+00 -3.325000e+01 1.677766e-14
    endloop
  endfacet
  facet normal -1.000000e+00 -1.836970e-16 0.000000e+00
    outer loop
      vertex 4.650001e+00 -3.325000e+01 3.000000e+00
      vertex 4.650001e+00 3.325000e+01 3.000000e+00
      vertex 4.650001e+00 -3.325000e+01 1.677766e-14
    endloop
  endfacet
  facet normal -1.000000e+00 -1.836970e-16 0.000000e+00
    outer loop
      vertex 4.650001e+00 -3.325000e+01 1.677766e-14
      vertex 4.650001e+00 3.325000e+01 3.000000e+00
      vertex 4.650001e+00 3.325000e+01 4.898569e-16
    endloop
  endfacet
  facet normal 1.836970e-16 -1.000000e+00 2.449294e-16
    outer loop
      vertex 4.650001e+00 3.325000e+01 3.000000e+00
      vertex -4.650000e+00 3.325000e+01 3.000000e+00
      vertex 4.650001e+00 3.325000e+01 4.898569e-16
    endloop
  endfacet
  facet normal 1.836970e-16 -1.000000e+00 2.449294e-16
    outer loop
      vertex 4.650001e+00 3.325000e+01 4.898569e-16
      vertex -4.650000e+00 3.325000e+01 3.000000e+00
      vertex -4.650000e+00 3.325000e+01 4.898569e-16
    endloop
  endfacet
  facet normal 1.000000e+00 1.836970e-16 0.000000e+00
    outer loop
      vertex -4.650000e+00 3.325000e+01 3.000000e+00
      vertex -4.650000e+00 -3.325000e+01 3.000000e+00
      vertex -4.650000e+00 3.325000e+01 4.898569e-16
    endloop
  endfacet
  facet normal 1.000000e+00 1.836970e-16 0.000000e+00
    outer loop
      vertex -4.650000e+00 3.325000e+01 4.898569e-16
      vertex -4.650000e+00 -3.325000e+01 3.000000e+00
      vertex -4.650000e+00 -3.325000e+01 1.677766e-14
    endloop
  endfacet
endsolid Default
