solid Default
  facet normal 3.590010e-32 -1.000000e+00 1.836970e-16
    outer loop
      vertex -4.280000e+00 -3.525000e+01 1.295064e-14
      vertex 4.280000e+00 -3.525000e+01 1.295064e-14
      vertex -4.280000e+00 -3.525000e+01 8.000000e+00
    endloop
  endfacet
  facet normal 3.590010e-32 -1.000000e+00 1.836970e-16
    outer loop
      vertex -4.280000e+00 -3.525000e+01 8.000000e+00
      vertex 4.280000e+00 -3.525000e+01 1.295064e-14
      vertex 4.280000e+00 -3.525000e+01 8.000000e+00
    endloop
  endfacet
  facet normal 4.930381e-32 -1.836970e-16 -1.000000e+00
    outer loop
      vertex -4.280000e+00 3.525000e+01 0.000000e+00
      vertex 4.280000e+00 3.525000e+01 0.000000e+00
      vertex -4.280000e+00 -3.525000e+01 1.295064e-14
    endloop
  endfacet
  facet normal 4.930381e-32 -1.836970e-16 -1.000000e+00
    outer loop
      vertex -4.280000e+00 -3.525000e+01 1.295064e-14
      vertex 4.280000e+00 3.525000e+01 0.000000e+00
      vertex 4.280000e+00 -3.525000e+01 1.295064e-14
    endloop
  endfacet
  facet normal -3.590010e-32 1.000000e+00 -1.836970e-16
    outer loop
      vertex -4.280000e+00 3.525000e+01 8.000000e+00
      vertex 4.280000e+00 3.525000e+01 8.000000e+00
      vertex -4.280000e+00 3.525000e+01 0.000000e+00
    endloop
  endfacet
  facet normal -3.590010e-32 1.000000e+00 -1.836970e-16
    outer loop
      vertex -4.280000e+00 3.525000e+01 0.000000e+00
      vertex 4.280000e+00 3.525000e+01 8.000000e+00
      vertex 4.280000e+00 3.525000e+01 0.000000e+00
    endloop
  endfacet
  facet normal -4.930381e-32 1.836970e-16 1.000000e+00
    outer loop
      vertex -4.280000e+00 -2.667000e+01 8.000000e+00
      vertex -4.280000e+00 -3.525000e+01 8.000000e+00
      vertex 2.199998e-01 -2.667000e+01 8.000000e+00
    endloop
  endfacet
  facet normal -4.930381e-32 1.836970e-16 1.000000e+00
    outer loop
      vertex 2.199998e-01 -2.667000e+01 8.000000e+00
      vertex -4.280000e+00 -3.525000e+01 8.000000e+00
      vertex 4.280000e+00 -3.525000e+01 8.000000e+00
    endloop
  endfacet
  facet normal -4.930381e-32 1.836970e-16 1.000000e+00
    outer loop
      vertex 2.199998e-01 -2.667000e+01 8.000000e+00
      vertex 4.280000e+00 -3.525000e+01 8.000000e+00
      vertex 2.199998e-01 -1.347000e+01 8.000000e+00
    endloop
  endfacet
  facet normal -4.930381e-32 1.836970e-16 1.000000e+00
    outer loop
      vertex 2.199998e-01 -1.347000e+01 8.000000e+00
      vertex 4.280000e+00 -3.525000e+01 8.000000e+00
      vertex 4.280000e+00 3.525000e+01 8.000000e+00
    endloop
  endfacet
  facet normal -4.930381e-32 1.836970e-16 1.000000e+00
    outer loop
      vertex 2.199998e-01 -1.347000e+01 8.000000e+00
      vertex 4.280000e+00 3.525000e+01 8.000000e+00
      vertex -4.280000e+00 -1.347000e+01 8.000000e+00
    endloop
  endfacet
  facet normal -4.930381e-32 1.836970e-16 1.000000e+00
    outer loop
      vertex -4.280000e+00 -1.347000e+01 8.000000e+00
      vertex 4.280000e+00 3.525000e+01 8.000000e+00
      vertex -4.280000e+00 3.525000e+01 8.000000e+00
    endloop
  endfacet
  facet normal 1.000000e+00 2.465190e-32 3.697785e-32
    outer loop
      vertex 4.280000e+00 3.525000e+01 0.000000e+00
      vertex 4.280000e+00 3.525000e+01 8.000000e+00
      vertex 4.280000e+00 -3.525000e+01 1.295064e-14
    endloop
  endfacet
  facet normal 1.000000e+00 2.465190e-32 3.697785e-32
    outer loop
      vertex 4.280000e+00 -3.525000e+01 1.295064e-14
      vertex 4.280000e+00 3.525000e+01 8.000000e+00
      vertex 4.280000e+00 -3.525000e+01 8.000000e+00
    endloop
  endfacet
  facet normal -1.000000e+00 -2.465190e-32 -3.697785e-32
    outer loop
      vertex -4.280000e+00 -1.347000e+01 1.200000e+00
      vertex -4.280000e+00 -1.347000e+01 8.000000e+00
      vertex -4.280000e+00 3.525000e+01 8.000000e+00
    endloop
  endfacet
  facet normal -1.000000e+00 -2.465190e-32 -3.697785e-32
    outer loop
      vertex -4.280000e+00 -3.525000e+01 1.295064e-14
      vertex -4.280000e+00 -3.525000e+01 8.000000e+00
      vertex -4.280000e+00 -2.667000e+01 8.000000e+00
    endloop
  endfacet
  facet normal -1.000000e+00 -2.465190e-32 -3.697785e-32
    outer loop
      vertex -4.280000e+00 -2.667000e+01 8.000000e+00
      vertex -4.280000e+00 -2.667000e+01 1.200000e+00
      vertex -4.280000e+00 -3.525000e+01 1.295064e-14
    endloop
  endfacet
  facet normal -1.000000e+00 -2.465190e-32 -3.697785e-32
    outer loop
      vertex -4.280000e+00 -3.525000e+01 1.295064e-14
      vertex -4.280000e+00 -2.667000e+01 1.200000e+00
      vertex -4.280000e+00 -1.347000e+01 1.200000e+00
    endloop
  endfacet
  facet normal -1.000000e+00 -2.465190e-32 -3.697785e-32
    outer loop
      vertex -4.280000e+00 -3.525000e+01 1.295064e-14
      vertex -4.280000e+00 -1.347000e+01 1.200000e+00
      vertex -4.280000e+00 3.525000e+01 0.000000e+00
    endloop
  endfacet
  facet normal -1.000000e+00 -2.465190e-32 -3.697785e-32
    outer loop
      vertex -4.280000e+00 3.525000e+01 0.000000e+00
      vertex -4.280000e+00 -1.347000e+01 1.200000e+00
      vertex -4.280000e+00 3.525000e+01 8.000000e+00
    endloop
  endfacet
  facet normal 3.590010e-32 -1.000000e+00 1.836970e-16
    outer loop
      vertex -4.280000e+00 -1.347000e+01 1.200000e+00
      vertex 2.199998e-01 -1.347000e+01 1.200000e+00
      vertex -4.280000e+00 -1.347000e+01 8.000000e+00
    endloop
  endfacet
  facet normal 3.590010e-32 -1.000000e+00 1.836970e-16
    outer loop
      vertex -4.280000e+00 -1.347000e+01 8.000000e+00
      vertex 2.199998e-01 -1.347000e+01 1.200000e+00
      vertex 2.199998e-01 -1.347000e+01 8.000000e+00
    endloop
  endfacet
  facet normal -1.000000e+00 -2.465190e-32 -3.697785e-32
    outer loop
      vertex 2.199998e-01 -1.347000e+01 1.200000e+00
      vertex 2.199998e-01 -2.667000e+01 1.200000e+00
      vertex 2.199998e-01 -1.347000e+01 8.000000e+00
    endloop
  endfacet
  facet normal -1.000000e+00 -2.465190e-32 -3.697785e-32
    outer loop
      vertex 2.199998e-01 -1.347000e+01 8.000000e+00
      vertex 2.199998e-01 -2.667000e+01 1.200000e+00
      vertex 2.199998e-01 -2.667000e+01 8.000000e+00
    endloop
  endfacet
  facet normal -3.590010e-32 1.000000e+00 -1.836970e-16
    outer loop
      vertex 2.199998e-01 -2.667000e+01 1.200000e+00
      vertex -4.280000e+00 -2.667000e+01 1.200000e+00
      vertex 2.199998e-01 -2.667000e+01 8.000000e+00
    endloop
  endfacet
  facet normal -3.590010e-32 1.000000e+00 -1.836970e-16
    outer loop
      vertex 2.199998e-01 -2.667000e+01 8.000000e+00
      vertex -4.280000e+00 -2.667000e+01 1.200000e+00
      vertex -4.280000e+00 -2.667000e+01 8.000000e+00
    endloop
  endfacet
  facet normal -4.930381e-32 1.836970e-16 1.000000e+00
    outer loop
      vertex -4.280000e+00 -2.667000e+01 1.200000e+00
      vertex 2.199998e-01 -2.667000e+01 1.200000e+00
      vertex -4.280000e+00 -1.347000e+01 1.200000e+00
    endloop
  endfacet
  facet normal -4.930381e-32 1.836970e-16 1.000000e+00
    outer loop
      vertex -4.280000e+00 -1.347000e+01 1.200000e+00
      vertex 2.199998e-01 -2.667000e+01 1.200000e+00
      vertex 2.199998e-01 -1.347000e+01 1.200000e+00
    endloop
  endfacet
endsolid Default
