solid Default
  facet normal 7.217342e-02 9.973921e-01 -6.107265e-17
    outer loop
      vertex -6.519258e-08 6.350000e+00 1.428420e-15
      vertex 6.865558e-01 6.312776e+00 7.620000e+00
      vertex 6.865558e-01 6.312776e+00 1.430699e-15
    endloop
  endfacet
  facet normal 1.439238e-01 9.895887e-01 -6.059483e-17
    outer loop
      vertex 6.865558e-01 6.312776e+00 1.430699e-15
      vertex 6.865558e-01 6.312776e+00 7.620000e+00
      vertex 1.365062e+00 6.201541e+00 7.620000e+00
    endloop
  endfacet
  facet normal 1.795874e-01 9.837420e-01 -6.023683e-17
    outer loop
      vertex 6.865558e-01 6.312776e+00 1.430699e-15
      vertex 1.365062e+00 6.201541e+00 7.620000e+00
      vertex 1.365062e+00 6.201541e+00 1.437510e-15
    endloop
  endfacet
  facet normal 2.500735e-01 9.682269e-01 -5.928679e-17
    outer loop
      vertex 1.365062e+00 6.201541e+00 1.437510e-15
      vertex 1.365062e+00 6.201541e+00 7.620000e+00
      vertex 2.027565e+00 6.017598e+00 7.620000e+00
    endloop
  endfacet
  facet normal 2.848958e-01 9.585585e-01 -5.869478e-17
    outer loop
      vertex 1.365062e+00 6.201541e+00 1.437510e-15
      vertex 2.027565e+00 6.017598e+00 7.620000e+00
      vertex 2.027565e+00 6.017598e+00 1.448773e-15
    endloop
  endfacet
  facet normal 3.532912e-01 9.355134e-01 -5.728367e-17
    outer loop
      vertex 2.027565e+00 6.017598e+00 1.448773e-15
      vertex 2.027565e+00 6.017598e+00 7.620000e+00
      vertex 2.666295e+00 5.763104e+00 7.620000e+00
    endloop
  endfacet
  facet normal 3.868642e-01 9.221368e-01 -5.646459e-17
    outer loop
      vertex 2.027565e+00 6.017598e+00 1.448773e-15
      vertex 2.666295e+00 5.763104e+00 7.620000e+00
      vertex 2.666295e+00 5.763104e+00 1.464357e-15
    endloop
  endfacet
  facet normal 4.523670e-01 8.918319e-01 -5.460895e-17
    outer loop
      vertex 2.666295e+00 5.763104e+00 1.464357e-15
      vertex 2.666295e+00 5.763104e+00 7.620000e+00
      vertex 3.273767e+00 5.441043e+00 7.620000e+00
    endloop
  endfacet
  facet normal 4.842969e-01 8.749038e-01 -5.357241e-17
    outer loop
      vertex 2.666295e+00 5.763104e+00 1.464357e-15
      vertex 3.273767e+00 5.441043e+00 7.620000e+00
      vertex 3.273767e+00 5.441043e+00 1.484077e-15
    endloop
  endfacet
  facet normal 5.461392e-01 8.376944e-01 -5.129399e-17
    outer loop
      vertex 3.273767e+00 5.441043e+00 1.484077e-15
      vertex 3.273767e+00 5.441043e+00 7.620000e+00
      vertex 3.842856e+00 5.055191e+00 7.620000e+00
    endloop
  endfacet
  facet normal 5.760517e-01 8.174133e-01 -5.005213e-17
    outer loop
      vertex 3.273767e+00 5.441043e+00 1.484077e-15
      vertex 3.842856e+00 5.055191e+00 7.620000e+00
      vertex 3.842856e+00 5.055191e+00 1.507704e-15
    endloop
  endfacet
  facet normal 6.335084e-01 7.737358e-01 -4.737765e-17
    outer loop
      vertex 3.842856e+00 5.055191e+00 1.507704e-15
      vertex 3.842856e+00 5.055191e+00 7.620000e+00
      vertex 4.366891e+00 4.610071e+00 7.620000e+00
    endloop
  endfacet
  facet normal 6.610527e-01 7.503394e-01 -4.594504e-17
    outer loop
      vertex 3.842856e+00 5.055191e+00 1.507704e-15
      vertex 4.366891e+00 4.610071e+00 7.620000e+00
      vertex 4.366891e+00 4.610071e+00 1.534959e-15
    endloop
  endfacet
  facet normal 7.134504e-01 7.007058e-01 -4.290586e-17
    outer loop
      vertex 4.366891e+00 4.610071e+00 1.534959e-15
      vertex 4.366891e+00 4.610071e+00 7.620000e+00
      vertex 4.839729e+00 4.110903e+00 7.620000e+00
    endloop
  endfacet
  facet normal 7.383035e-01 6.744686e-01 -4.129929e-17
    outer loop
      vertex 4.366891e+00 4.610071e+00 1.534959e-15
      vertex 4.839729e+00 4.110903e+00 7.620000e+00
      vertex 4.839729e+00 4.110903e+00 1.565525e-15
    endloop
  endfacet
  facet normal 7.850277e-01 6.194607e-01 -3.793103e-17
    outer loop
      vertex 4.839729e+00 4.110903e+00 1.565525e-15
      vertex 4.839729e+00 4.110903e+00 7.620000e+00
      vertex 5.255825e+00 3.563538e+00 7.620000e+00
    endloop
  endfacet
  facet normal 8.068986e-01 5.906901e-01 -3.616934e-17
    outer loop
      vertex 4.839729e+00 4.110903e+00 1.565525e-15
      vertex 5.255825e+00 3.563538e+00 7.620000e+00
      vertex 5.255825e+00 3.563538e+00 1.599041e-15
    endloop
  endfacet
  facet normal 8.474013e-01 5.309530e-01 -3.251149e-17
    outer loop
      vertex 5.255825e+00 3.563538e+00 1.599041e-15
      vertex 5.255825e+00 3.563538e+00 7.620000e+00
      vertex 5.610301e+00 2.974394e+00 7.620000e+00
    endloop
  endfacet
  facet normal 8.660333e-01 4.999864e-01 -3.061534e-17
    outer loop
      vertex 5.255825e+00 3.563538e+00 1.599041e-15
      vertex 5.610301e+00 2.974394e+00 7.620000e+00
      vertex 5.610301e+00 2.974394e+00 1.635116e-15
    endloop
  endfacet
  facet normal 8.998399e-01 4.362203e-01 -2.671079e-17
    outer loop
      vertex 5.610301e+00 2.974394e+00 1.635116e-15
      vertex 5.610301e+00 2.974394e+00 7.620000e+00
      vertex 5.899002e+00 2.350377e+00 7.620000e+00
    endloop
  endfacet
  facet normal 9.150146e-01 4.034208e-01 -2.470240e-17
    outer loop
      vertex 5.610301e+00 2.974394e+00 1.635116e-15
      vertex 5.899002e+00 2.350377e+00 7.620000e+00
      vertex 5.899002e+00 2.350377e+00 1.673326e-15
    endloop
  endfacet
  facet normal 9.417287e-01 3.363733e-01 -2.059693e-17
    outer loop
      vertex 5.899002e+00 2.350377e+00 1.673326e-15
      vertex 5.899002e+00 2.350377e+00 7.620000e+00
      vertex 6.118543e+00 1.698805e+00 7.620000e+00
    endloop
  endfacet
  facet normal 9.532682e-01 3.021254e-01 -1.849984e-17
    outer loop
      vertex 5.899002e+00 2.350377e+00 1.673326e-15
      vertex 6.118543e+00 1.698805e+00 7.620000e+00
      vertex 6.118543e+00 1.698805e+00 1.713223e-15
    endloop
  endfacet
  facet normal 9.725766e-01 2.325827e-01 -1.424158e-17
    outer loop
      vertex 6.118543e+00 1.698805e+00 1.713223e-15
      vertex 6.118543e+00 1.698805e+00 7.620000e+00
      vertex 6.266348e+00 1.027315e+00 7.620000e+00
    endloop
  endfacet
  facet normal 9.803455e-01 1.972880e-01 -1.208040e-17
    outer loop
      vertex 6.118543e+00 1.698805e+00 1.713223e-15
      vertex 6.266348e+00 1.027315e+00 7.620000e+00
      vertex 6.266348e+00 1.027315e+00 1.754340e-15
    endloop
  endfacet
  facet normal 9.920219e-01 1.260653e-01 -7.719273e-18
    outer loop
      vertex 6.266348e+00 1.027315e+00 1.754340e-15
      vertex 6.266348e+00 1.027315e+00 7.620000e+00
      vertex 6.340687e+00 3.437819e-01 7.620000e+00
    endloop
  endfacet
  facet normal 9.959293e-01 9.013744e-02 -5.519326e-18
    outer loop
      vertex 6.266348e+00 1.027315e+00 1.754340e-15
      vertex 6.340687e+00 3.437819e-01 7.620000e+00
      vertex 6.340687e+00 3.437819e-01 1.796194e-15
    endloop
  endfacet
  facet normal 9.998368e-01 1.806986e-02 -1.106460e-18
    outer loop
      vertex 6.340687e+00 3.437819e-01 1.796194e-15
      vertex 6.340687e+00 3.437819e-01 7.620000e+00
      vertex 6.340687e+00 -3.437819e-01 7.620000e+00
    endloop
  endfacet
  facet normal 9.998368e-01 -1.806986e-02 1.106460e-18
    outer loop
      vertex 6.340687e+00 3.437819e-01 1.796194e-15
      vertex 6.340687e+00 -3.437819e-01 7.620000e+00
      vertex 6.340687e+00 -3.437819e-01 1.838295e-15
    endloop
  endfacet
  facet normal 9.959293e-01 -9.013744e-02 5.519326e-18
    outer loop
      vertex 6.340687e+00 -3.437819e-01 1.838295e-15
      vertex 6.340687e+00 -3.437819e-01 7.620000e+00
      vertex 6.266348e+00 -1.027316e+00 7.620000e+00
    endloop
  endfacet
  facet normal 9.920219e-01 -1.260653e-01 7.719273e-18
    outer loop
      vertex 6.340687e+00 -3.437819e-01 1.838295e-15
      vertex 6.266348e+00 -1.027316e+00 7.620000e+00
      vertex 6.266348e+00 -1.027316e+00 1.880150e-15
    endloop
  endfacet
  facet normal 9.803455e-01 -1.972880e-01 1.208040e-17
    outer loop
      vertex 6.266348e+00 -1.027316e+00 1.880150e-15
      vertex 6.266348e+00 -1.027316e+00 7.620000e+00
      vertex 6.118543e+00 -1.698804e+00 7.620000e+00
    endloop
  endfacet
  facet normal 9.725766e-01 -2.325827e-01 1.424158e-17
    outer loop
      vertex 6.266348e+00 -1.027316e+00 1.880150e-15
      vertex 6.118543e+00 -1.698804e+00 7.620000e+00
      vertex 6.118543e+00 -1.698804e+00 1.921267e-15
    endloop
  endfacet
  facet normal 9.532682e-01 -3.021254e-01 1.849985e-17
    outer loop
      vertex 6.118543e+00 -1.698804e+00 1.921267e-15
      vertex 6.118543e+00 -1.698804e+00 7.620000e+00
      vertex 5.899002e+00 -2.350378e+00 7.620000e+00
    endloop
  endfacet
  facet normal 9.417287e-01 -3.363733e-01 2.059693e-17
    outer loop
      vertex 6.118543e+00 -1.698804e+00 1.921267e-15
      vertex 5.899002e+00 -2.350378e+00 7.620000e+00
      vertex 5.899002e+00 -2.350378e+00 1.961164e-15
    endloop
  endfacet
  facet normal 9.150146e-01 -4.034208e-01 2.470240e-17
    outer loop
      vertex 5.899002e+00 -2.350378e+00 1.961164e-15
      vertex 5.899002e+00 -2.350378e+00 7.620000e+00
      vertex 5.610301e+00 -2.974393e+00 7.620000e+00
    endloop
  endfacet
  facet normal 8.998399e-01 -4.362203e-01 2.671079e-17
    outer loop
      vertex 5.899002e+00 -2.350378e+00 1.961164e-15
      vertex 5.610301e+00 -2.974393e+00 7.620000e+00
      vertex 5.610301e+00 -2.974393e+00 1.999374e-15
    endloop
  endfacet
  facet normal 8.660333e-01 -4.999864e-01 3.061534e-17
    outer loop
      vertex 5.610301e+00 -2.974393e+00 1.999374e-15
      vertex 5.610301e+00 -2.974393e+00 7.620000e+00
      vertex 5.255825e+00 -3.563538e+00 7.620000e+00
    endloop
  endfacet
  facet normal 8.474013e-01 -5.309530e-01 3.251149e-17
    outer loop
      vertex 5.610301e+00 -2.974393e+00 1.999374e-15
      vertex 5.255825e+00 -3.563538e+00 7.620000e+00
      vertex 5.255825e+00 -3.563538e+00 2.035449e-15
    endloop
  endfacet
  facet normal 8.068985e-01 -5.906901e-01 3.616934e-17
    outer loop
      vertex 5.255825e+00 -3.563538e+00 2.035449e-15
      vertex 5.255825e+00 -3.563538e+00 7.620000e+00
      vertex 4.839729e+00 -4.110903e+00 7.620000e+00
    endloop
  endfacet
  facet normal 7.850277e-01 -6.194607e-01 3.793103e-17
    outer loop
      vertex 5.255825e+00 -3.563538e+00 2.035449e-15
      vertex 4.839729e+00 -4.110903e+00 7.620000e+00
      vertex 4.839729e+00 -4.110903e+00 2.068965e-15
    endloop
  endfacet
  facet normal 7.383035e-01 -6.744686e-01 4.129929e-17
    outer loop
      vertex 4.839729e+00 -4.110903e+00 2.068965e-15
      vertex 4.839729e+00 -4.110903e+00 7.620000e+00
      vertex 4.366891e+00 -4.610072e+00 7.620000e+00
    endloop
  endfacet
  facet normal 7.134503e-01 -7.007059e-01 4.290586e-17
    outer loop
      vertex 4.839729e+00 -4.110903e+00 2.068965e-15
      vertex 4.366891e+00 -4.610072e+00 7.620000e+00
      vertex 4.366891e+00 -4.610072e+00 2.099530e-15
    endloop
  endfacet
  facet normal 6.610528e-01 -7.503394e-01 4.594504e-17
    outer loop
      vertex 4.366891e+00 -4.610072e+00 2.099530e-15
      vertex 4.366891e+00 -4.610072e+00 7.620000e+00
      vertex 3.842856e+00 -5.055191e+00 7.620000e+00
    endloop
  endfacet
  facet normal 6.335084e-01 -7.737358e-01 4.737765e-17
    outer loop
      vertex 4.366891e+00 -4.610072e+00 2.099530e-15
      vertex 3.842856e+00 -5.055191e+00 7.620000e+00
      vertex 3.842856e+00 -5.055191e+00 2.126786e-15
    endloop
  endfacet
  facet normal 5.760517e-01 -8.174133e-01 5.005213e-17
    outer loop
      vertex 3.842856e+00 -5.055191e+00 2.126786e-15
      vertex 3.842856e+00 -5.055191e+00 7.620000e+00
      vertex 3.273767e+00 -5.441043e+00 7.620000e+00
    endloop
  endfacet
  facet normal 5.461392e-01 -8.376945e-01 5.129399e-17
    outer loop
      vertex 3.842856e+00 -5.055191e+00 2.126786e-15
      vertex 3.273767e+00 -5.441043e+00 7.620000e+00
      vertex 3.273767e+00 -5.441043e+00 2.150413e-15
    endloop
  endfacet
  facet normal 4.842969e-01 -8.749038e-01 5.357241e-17
    outer loop
      vertex 3.273767e+00 -5.441043e+00 2.150413e-15
      vertex 3.273767e+00 -5.441043e+00 7.620000e+00
      vertex 2.666295e+00 -5.763104e+00 7.620000e+00
    endloop
  endfacet
  facet normal 4.523670e-01 -8.918319e-01 5.460895e-17
    outer loop
      vertex 3.273767e+00 -5.441043e+00 2.150413e-15
      vertex 2.666295e+00 -5.763104e+00 7.620000e+00
      vertex 2.666295e+00 -5.763104e+00 2.170133e-15
    endloop
  endfacet
  facet normal 3.868642e-01 -9.221368e-01 5.646459e-17
    outer loop
      vertex 2.666295e+00 -5.763104e+00 2.170133e-15
      vertex 2.666295e+00 -5.763104e+00 7.620000e+00
      vertex 2.027565e+00 -6.017598e+00 7.620000e+00
    endloop
  endfacet
  facet normal 3.532912e-01 -9.355134e-01 5.728367e-17
    outer loop
      vertex 2.666295e+00 -5.763104e+00 2.170133e-15
      vertex 2.027565e+00 -6.017598e+00 7.620000e+00
      vertex 2.027565e+00 -6.017598e+00 2.185716e-15
    endloop
  endfacet
  facet normal 2.848958e-01 -9.585585e-01 5.869478e-17
    outer loop
      vertex 2.027565e+00 -6.017598e+00 2.185716e-15
      vertex 2.027565e+00 -6.017598e+00 7.620000e+00
      vertex 1.365062e+00 -6.201540e+00 7.620000e+00
    endloop
  endfacet
  facet normal 2.500735e-01 -9.682269e-01 5.928679e-17
    outer loop
      vertex 2.027565e+00 -6.017598e+00 2.185716e-15
      vertex 1.365062e+00 -6.201540e+00 7.620000e+00
      vertex 1.365062e+00 -6.201540e+00 2.196980e-15
    endloop
  endfacet
  facet normal 1.795874e-01 -9.837420e-01 6.023683e-17
    outer loop
      vertex 1.365062e+00 -6.201540e+00 2.196980e-15
      vertex 1.365062e+00 -6.201540e+00 7.620000e+00
      vertex 6.865558e-01 -6.312776e+00 7.620000e+00
    endloop
  endfacet
  facet normal 1.439238e-01 -9.895887e-01 6.059483e-17
    outer loop
      vertex 1.365062e+00 -6.201540e+00 2.196980e-15
      vertex 6.865558e-01 -6.312776e+00 7.620000e+00
      vertex 6.865558e-01 -6.312776e+00 2.203791e-15
    endloop
  endfacet
  facet normal 7.217342e-02 -9.973921e-01 6.107265e-17
    outer loop
      vertex 6.865558e-01 -6.312776e+00 2.203791e-15
      vertex 6.865558e-01 -6.312776e+00 7.620000e+00
      vertex -6.519258e-08 -6.350000e+00 7.620000e+00
    endloop
  endfacet
  facet normal 3.608671e-02 -9.993486e-01 6.119245e-17
    outer loop
      vertex 6.865558e-01 -6.312776e+00 2.203791e-15
      vertex -6.519258e-08 -6.350000e+00 7.620000e+00
      vertex -6.519258e-08 -6.350000e+00 2.206070e-15
    endloop
  endfacet
  facet normal -3.608671e-02 -9.993486e-01 6.119245e-17
    outer loop
      vertex -6.519258e-08 -6.350000e+00 2.206070e-15
      vertex -6.519258e-08 -6.350000e+00 7.620000e+00
      vertex -6.865555e-01 -6.312776e+00 7.620000e+00
    endloop
  endfacet
  facet normal -7.217342e-02 -9.973921e-01 6.107265e-17
    outer loop
      vertex -6.519258e-08 -6.350000e+00 2.206070e-15
      vertex -6.865555e-01 -6.312776e+00 7.620000e+00
      vertex -6.865555e-01 -6.312776e+00 2.203791e-15
    endloop
  endfacet
  facet normal -1.439238e-01 -9.895887e-01 6.059483e-17
    outer loop
      vertex -6.865555e-01 -6.312776e+00 2.203791e-15
      vertex -6.865555e-01 -6.312776e+00 7.620000e+00
      vertex -1.365062e+00 -6.201540e+00 7.620000e+00
    endloop
  endfacet
  facet normal -1.795874e-01 -9.837420e-01 6.023683e-17
    outer loop
      vertex -6.865555e-01 -6.312776e+00 2.203791e-15
      vertex -1.365062e+00 -6.201540e+00 7.620000e+00
      vertex -1.365062e+00 -6.201540e+00 2.196980e-15
    endloop
  endfacet
  facet normal -2.500735e-01 -9.682269e-01 5.928679e-17
    outer loop
      vertex -1.365062e+00 -6.201540e+00 2.196980e-15
      vertex -1.365062e+00 -6.201540e+00 7.620000e+00
      vertex -2.027565e+00 -6.017598e+00 7.620000e+00
    endloop
  endfacet
  facet normal -2.848958e-01 -9.585585e-01 5.869478e-17
    outer loop
      vertex -1.365062e+00 -6.201540e+00 2.196980e-15
      vertex -2.027565e+00 -6.017598e+00 7.620000e+00
      vertex -2.027565e+00 -6.017598e+00 2.185716e-15
    endloop
  endfacet
  facet normal -3.532912e-01 -9.355134e-01 5.728367e-17
    outer loop
      vertex -2.027565e+00 -6.017598e+00 2.185716e-15
      vertex -2.027565e+00 -6.017598e+00 7.620000e+00
      vertex -2.666296e+00 -5.763104e+00 7.620000e+00
    endloop
  endfacet
  facet normal -3.868642e-01 -9.221368e-01 5.646459e-17
    outer loop
      vertex -2.027565e+00 -6.017598e+00 2.185716e-15
      vertex -2.666296e+00 -5.763104e+00 7.620000e+00
      vertex -2.666296e+00 -5.763104e+00 2.170133e-15
    endloop
  endfacet
  facet normal -4.523670e-01 -8.918319e-01 5.460895e-17
    outer loop
      vertex -2.666296e+00 -5.763104e+00 2.170133e-15
      vertex -2.666296e+00 -5.763104e+00 7.620000e+00
      vertex -3.273767e+00 -5.441043e+00 7.620000e+00
    endloop
  endfacet
  facet normal -4.842969e-01 -8.749038e-01 5.357241e-17
    outer loop
      vertex -2.666296e+00 -5.763104e+00 2.170133e-15
      vertex -3.273767e+00 -5.441043e+00 7.620000e+00
      vertex -3.273767e+00 -5.441043e+00 2.150413e-15
    endloop
  endfacet
  facet normal -5.461392e-01 -8.376944e-01 5.129399e-17
    outer loop
      vertex -3.273767e+00 -5.441043e+00 2.150413e-15
      vertex -3.273767e+00 -5.441043e+00 7.620000e+00
      vertex -3.842856e+00 -5.055191e+00 7.620000e+00
    endloop
  endfacet
  facet normal -5.760517e-01 -8.174133e-01 5.005213e-17
    outer loop
      vertex -3.273767e+00 -5.441043e+00 2.150413e-15
      vertex -3.842856e+00 -5.055191e+00 7.620000e+00
      vertex -3.842856e+00 -5.055191e+00 2.126786e-15
    endloop
  endfacet
  facet normal -6.335084e-01 -7.737358e-01 4.737765e-17
    outer loop
      vertex -3.842856e+00 -5.055191e+00 2.126786e-15
      vertex -3.842856e+00 -5.055191e+00 7.620000e+00
      vertex -4.366891e+00 -4.610072e+00 7.620000e+00
    endloop
  endfacet
  facet normal -6.610527e-01 -7.503394e-01 4.594504e-17
    outer loop
      vertex -3.842856e+00 -5.055191e+00 2.126786e-15
      vertex -4.366891e+00 -4.610072e+00 7.620000e+00
      vertex -4.366891e+00 -4.610072e+00 2.099530e-15
    endloop
  endfacet
  facet normal -7.134504e-01 -7.007058e-01 4.290586e-17
    outer loop
      vertex -4.366891e+00 -4.610072e+00 2.099530e-15
      vertex -4.366891e+00 -4.610072e+00 7.620000e+00
      vertex -4.839729e+00 -4.110903e+00 7.620000e+00
    endloop
  endfacet
  facet normal -7.383035e-01 -6.744686e-01 4.129929e-17
    outer loop
      vertex -4.366891e+00 -4.610072e+00 2.099530e-15
      vertex -4.839729e+00 -4.110903e+00 7.620000e+00
      vertex -4.839729e+00 -4.110903e+00 2.068965e-15
    endloop
  endfacet
  facet normal -7.850277e-01 -6.194607e-01 3.793103e-17
    outer loop
      vertex -4.839729e+00 -4.110903e+00 2.068965e-15
      vertex -4.839729e+00 -4.110903e+00 7.620000e+00
      vertex -5.255825e+00 -3.563538e+00 7.620000e+00
    endloop
  endfacet
  facet normal -8.068986e-01 -5.906901e-01 3.616934e-17
    outer loop
      vertex -4.839729e+00 -4.110903e+00 2.068965e-15
      vertex -5.255825e+00 -3.563538e+00 7.620000e+00
      vertex -5.255825e+00 -3.563538e+00 2.035449e-15
    endloop
  endfacet
  facet normal -8.474013e-01 -5.309530e-01 3.251149e-17
    outer loop
      vertex -5.255825e+00 -3.563538e+00 2.035449e-15
      vertex -5.255825e+00 -3.563538e+00 7.620000e+00
      vertex -5.610302e+00 -2.974393e+00 7.620000e+00
    endloop
  endfacet
  facet normal -8.660333e-01 -4.999864e-01 3.061534e-17
    outer loop
      vertex -5.255825e+00 -3.563538e+00 2.035449e-15
      vertex -5.610302e+00 -2.974393e+00 7.620000e+00
      vertex -5.610302e+00 -2.974393e+00 1.999374e-15
    endloop
  endfacet
  facet normal -8.998399e-01 -4.362203e-01 2.671079e-17
    outer loop
      vertex -5.610302e+00 -2.974393e+00 1.999374e-15
      vertex -5.610302e+00 -2.974393e+00 7.620000e+00
      vertex -5.899002e+00 -2.350378e+00 7.620000e+00
    endloop
  endfacet
  facet normal -9.150146e-01 -4.034208e-01 2.470240e-17
    outer loop
      vertex -5.610302e+00 -2.974393e+00 1.999374e-15
      vertex -5.899002e+00 -2.350378e+00 7.620000e+00
      vertex -5.899002e+00 -2.350378e+00 1.961164e-15
    endloop
  endfacet
  facet normal -9.417287e-01 -3.363733e-01 2.059693e-17
    outer loop
      vertex -5.899002e+00 -2.350378e+00 1.961164e-15
      vertex -5.899002e+00 -2.350378e+00 7.620000e+00
      vertex -6.118543e+00 -1.698804e+00 7.620000e+00
    endloop
  endfacet
  facet normal -9.532682e-01 -3.021254e-01 1.849984e-17
    outer loop
      vertex -5.899002e+00 -2.350378e+00 1.961164e-15
      vertex -6.118543e+00 -1.698804e+00 7.620000e+00
      vertex -6.118543e+00 -1.698804e+00 1.921267e-15
    endloop
  endfacet
  facet normal -9.725766e-01 -2.325827e-01 1.424158e-17
    outer loop
      vertex -6.118543e+00 -1.698804e+00 1.921267e-15
      vertex -6.118543e+00 -1.698804e+00 7.620000e+00
      vertex -6.266349e+00 -1.027316e+00 7.620000e+00
    endloop
  endfacet
  facet normal -9.803455e-01 -1.972880e-01 1.208040e-17
    outer loop
      vertex -6.118543e+00 -1.698804e+00 1.921267e-15
      vertex -6.266349e+00 -1.027316e+00 7.620000e+00
      vertex -6.266349e+00 -1.027316e+00 1.880150e-15
    endloop
  endfacet
  facet normal -9.920219e-01 -1.260653e-01 7.719273e-18
    outer loop
      vertex -6.266349e+00 -1.027316e+00 1.880150e-15
      vertex -6.266349e+00 -1.027316e+00 7.620000e+00
      vertex -6.340687e+00 -3.437819e-01 7.620000e+00
    endloop
  endfacet
  facet normal -9.959293e-01 -9.013744e-02 5.519326e-18
    outer loop
      vertex -6.266349e+00 -1.027316e+00 1.880150e-15
      vertex -6.340687e+00 -3.437819e-01 7.620000e+00
      vertex -6.340687e+00 -3.437819e-01 1.838295e-15
    endloop
  endfacet
  facet normal -9.998368e-01 -1.806986e-02 1.106460e-18
    outer loop
      vertex -6.340687e+00 -3.437819e-01 1.838295e-15
      vertex -6.340687e+00 -3.437819e-01 7.620000e+00
      vertex -6.340687e+00 3.437819e-01 7.620000e+00
    endloop
  endfacet
  facet normal -9.998368e-01 1.806986e-02 -1.106460e-18
    outer loop
      vertex -6.340687e+00 -3.437819e-01 1.838295e-15
      vertex -6.340687e+00 3.437819e-01 7.620000e+00
      vertex -6.340687e+00 3.437819e-01 1.796194e-15
    endloop
  endfacet
  facet normal -9.959293e-01 9.013744e-02 -5.519326e-18
    outer loop
      vertex -6.340687e+00 3.437819e-01 1.796194e-15
      vertex -6.340687e+00 3.437819e-01 7.620000e+00
      vertex -6.266349e+00 1.027315e+00 7.620000e+00
    endloop
  endfacet
  facet normal -9.920219e-01 1.260653e-01 -7.719273e-18
    outer loop
      vertex -6.340687e+00 3.437819e-01 1.796194e-15
      vertex -6.266349e+00 1.027315e+00 7.620000e+00
      vertex -6.266349e+00 1.027315e+00 1.754340e-15
    endloop
  endfacet
  facet normal -9.803455e-01 1.972880e-01 -1.208040e-17
    outer loop
      vertex -6.266349e+00 1.027315e+00 1.754340e-15
      vertex -6.266349e+00 1.027315e+00 7.620000e+00
      vertex -6.118543e+00 1.698805e+00 7.620000e+00
    endloop
  endfacet
  facet normal -9.725766e-01 2.325827e-01 -1.424158e-17
    outer loop
      vertex -6.266349e+00 1.027315e+00 1.754340e-15
      vertex -6.118543e+00 1.698805e+00 7.620000e+00
      vertex -6.118543e+00 1.698805e+00 1.713223e-15
    endloop
  endfacet
  facet normal -9.532682e-01 3.021254e-01 -1.849985e-17
    outer loop
      vertex -6.118543e+00 1.698805e+00 1.713223e-15
      vertex -6.118543e+00 1.698805e+00 7.620000e+00
      vertex -5.899002e+00 2.350377e+00 7.620000e+00
    endloop
  endfacet
  facet normal -9.417287e-01 3.363733e-01 -2.059693e-17
    outer loop
      vertex -6.118543e+00 1.698805e+00 1.713223e-15
      vertex -5.899002e+00 2.350377e+00 7.620000e+00
      vertex -5.899002e+00 2.350377e+00 1.673326e-15
    endloop
  endfacet
  facet normal -9.150146e-01 4.034208e-01 -2.470240e-17
    outer loop
      vertex -5.899002e+00 2.350377e+00 1.673326e-15
      vertex -5.899002e+00 2.350377e+00 7.620000e+00
      vertex -5.610302e+00 2.974394e+00 7.620000e+00
    endloop
  endfacet
  facet normal -8.998399e-01 4.362203e-01 -2.671079e-17
    outer loop
      vertex -5.899002e+00 2.350377e+00 1.673326e-15
      vertex -5.610302e+00 2.974394e+00 7.620000e+00
      vertex -5.610302e+00 2.974394e+00 1.635116e-15
    endloop
  endfacet
  facet normal -8.660333e-01 4.999864e-01 -3.061534e-17
    outer loop
      vertex -5.610302e+00 2.974394e+00 1.635116e-15
      vertex -5.610302e+00 2.974394e+00 7.620000e+00
      vertex -5.255825e+00 3.563538e+00 7.620000e+00
    endloop
  endfacet
  facet normal -8.474013e-01 5.309530e-01 -3.251149e-17
    outer loop
      vertex -5.610302e+00 2.974394e+00 1.635116e-15
      vertex -5.255825e+00 3.563538e+00 7.620000e+00
      vertex -5.255825e+00 3.563538e+00 1.599041e-15
    endloop
  endfacet
  facet normal -8.068985e-01 5.906901e-01 -3.616934e-17
    outer loop
      vertex -5.255825e+00 3.563538e+00 1.599041e-15
      vertex -5.255825e+00 3.563538e+00 7.620000e+00
      vertex -4.839729e+00 4.110903e+00 7.620000e+00
    endloop
  endfacet
  facet normal -7.850277e-01 6.194607e-01 -3.793103e-17
    outer loop
      vertex -5.255825e+00 3.563538e+00 1.599041e-15
      vertex -4.839729e+00 4.110903e+00 7.620000e+00
      vertex -4.839729e+00 4.110903e+00 1.565525e-15
    endloop
  endfacet
  facet normal -7.383035e-01 6.744686e-01 -4.129929e-17
    outer loop
      vertex -4.839729e+00 4.110903e+00 1.565525e-15
      vertex -4.839729e+00 4.110903e+00 7.620000e+00
      vertex -4.366891e+00 4.610071e+00 7.620000e+00
    endloop
  endfacet
  facet normal -7.134503e-01 7.007059e-01 -4.290586e-17
    outer loop
      vertex -4.839729e+00 4.110903e+00 1.565525e-15
      vertex -4.366891e+00 4.610071e+00 7.620000e+00
      vertex -4.366891e+00 4.610071e+00 1.534959e-15
    endloop
  endfacet
  facet normal -6.610528e-01 7.503394e-01 -4.594504e-17
    outer loop
      vertex -4.366891e+00 4.610071e+00 1.534959e-15
      vertex -4.366891e+00 4.610071e+00 7.620000e+00
      vertex -3.842856e+00 5.055191e+00 7.620000e+00
    endloop
  endfacet
  facet normal -6.335084e-01 7.737358e-01 -4.737765e-17
    outer loop
      vertex -4.366891e+00 4.610071e+00 1.534959e-15
      vertex -3.842856e+00 5.055191e+00 7.620000e+00
      vertex -3.842856e+00 5.055191e+00 1.507704e-15
    endloop
  endfacet
  facet normal -5.760517e-01 8.174133e-01 -5.005213e-17
    outer loop
      vertex -3.842856e+00 5.055191e+00 1.507704e-15
      vertex -3.842856e+00 5.055191e+00 7.620000e+00
      vertex -3.273767e+00 5.441043e+00 7.620000e+00
    endloop
  endfacet
  facet normal -5.461392e-01 8.376945e-01 -5.129399e-17
    outer loop
      vertex -3.842856e+00 5.055191e+00 1.507704e-15
      vertex -3.273767e+00 5.441043e+00 7.620000e+00
      vertex -3.273767e+00 5.441043e+00 1.484077e-15
    endloop
  endfacet
  facet normal -4.842969e-01 8.749038e-01 -5.357241e-17
    outer loop
      vertex -3.273767e+00 5.441043e+00 1.484077e-15
      vertex -3.273767e+00 5.441043e+00 7.620000e+00
      vertex -2.666296e+00 5.763104e+00 7.620000e+00
    endloop
  endfacet
  facet normal -4.523670e-01 8.918319e-01 -5.460895e-17
    outer loop
      vertex -3.273767e+00 5.441043e+00 1.484077e-15
      vertex -2.666296e+00 5.763104e+00 7.620000e+00
      vertex -2.666296e+00 5.763104e+00 1.464357e-15
    endloop
  endfacet
  facet normal -3.868642e-01 9.221368e-01 -5.646459e-17
    outer loop
      vertex -2.666296e+00 5.763104e+00 1.464357e-15
      vertex -2.666296e+00 5.763104e+00 7.620000e+00
      vertex -2.027565e+00 6.017598e+00 7.620000e+00
    endloop
  endfacet
  facet normal -3.532912e-01 9.355134e-01 -5.728367e-17
    outer loop
      vertex -2.666296e+00 5.763104e+00 1.464357e-15
      vertex -2.027565e+00 6.017598e+00 7.620000e+00
      vertex -2.027565e+00 6.017598e+00 1.448773e-15
    endloop
  endfacet
  facet normal -2.848958e-01 9.585585e-01 -5.869478e-17
    outer loop
      vertex -2.027565e+00 6.017598e+00 1.448773e-15
      vertex -2.027565e+00 6.017598e+00 7.620000e+00
      vertex -1.365062e+00 6.201541e+00 7.620000e+00
    endloop
  endfacet
  facet normal -2.500735e-01 9.682269e-01 -5.928679e-17
    outer loop
      vertex -2.027565e+00 6.017598e+00 1.448773e-15
      vertex -1.365062e+00 6.201541e+00 7.620000e+00
      vertex -1.365062e+00 6.201541e+00 1.437510e-15
    endloop
  endfacet
  facet normal -1.795874e-01 9.837420e-01 -6.023683e-17
    outer loop
      vertex -1.365062e+00 6.201541e+00 1.437510e-15
      vertex -1.365062e+00 6.201541e+00 7.620000e+00
      vertex -6.865555e-01 6.312776e+00 7.620000e+00
    endloop
  endfacet
  facet normal -1.439238e-01 9.895887e-01 -6.059483e-17
    outer loop
      vertex -1.365062e+00 6.201541e+00 1.437510e-15
      vertex -6.865555e-01 6.312776e+00 7.620000e+00
      vertex -6.865555e-01 6.312776e+00 1.430699e-15
    endloop
  endfacet
  facet normal -7.217342e-02 9.973921e-01 -6.107265e-17
    outer loop
      vertex -6.865555e-01 6.312776e+00 1.430699e-15
      vertex -6.865555e-01 6.312776e+00 7.620000e+00
      vertex -6.519258e-08 6.350000e+00 7.620000e+00
    endloop
  endfacet
  facet normal -3.608671e-02 9.993486e-01 -6.119245e-17
    outer loop
      vertex -6.865555e-01 6.312776e+00 1.430699e-15
      vertex -6.519258e-08 6.350000e+00 7.620000e+00
      vertex -6.519258e-08 6.350000e+00 1.428420e-15
    endloop
  endfacet
  facet normal 3.608671e-02 9.993486e-01 -6.119245e-17
    outer loop
      vertex -6.519258e-08 6.350000e+00 1.428420e-15
      vertex -6.519258e-08 6.350000e+00 7.620000e+00
      vertex 6.865558e-01 6.312776e+00 7.620000e+00
    endloop
  endfacet
  facet normal 0.000000e+00 6.123234e-17 1.000000e+00
    outer loop
      vertex -6.519258e-08 -1.352550e+00 7.620000e+00
      vertex -2.285820e-01 -1.333095e+00 7.620000e+00
      vertex -6.865555e-01 -6.312776e+00 7.620000e+00
    endloop
  endfacet
  facet normal 0.000000e+00 6.123234e-17 1.000000e+00
    outer loop
      vertex -1.015322e+00 -8.935957e-01 7.620000e+00
      vertex -4.366891e+00 -4.610072e+00 7.620000e+00
      vertex -8.496991e-01 -1.052332e+00 7.620000e+00
    endloop
  endfacet
  facet normal 0.000000e+00 6.123234e-17 1.000000e+00
    outer loop
      vertex -8.496991e-01 -1.052332e+00 7.620000e+00
      vertex -4.366891e+00 -4.610072e+00 7.620000e+00
      vertex -3.842856e+00 -5.055191e+00 7.620000e+00
    endloop
  endfacet
  facet normal 0.000000e+00 6.123234e-17 1.000000e+00
    outer loop
      vertex -8.496991e-01 -1.052332e+00 7.620000e+00
      vertex -3.842856e+00 -5.055191e+00 7.620000e+00
      vertex -6.596323e-01 -1.180796e+00 7.620000e+00
    endloop
  endfacet
  facet normal 0.000000e+00 6.123234e-17 1.000000e+00
    outer loop
      vertex -1.255016e+00 -5.043068e-01 7.620000e+00
      vertex -5.610302e+00 -2.974393e+00 7.620000e+00
      vertex -1.151736e+00 -7.091517e-01 7.620000e+00
    endloop
  endfacet
  facet normal 0.000000e+00 6.123234e-17 1.000000e+00
    outer loop
      vertex -1.151736e+00 -7.091517e-01 7.620000e+00
      vertex -5.610302e+00 -2.974393e+00 7.620000e+00
      vertex -5.255825e+00 -3.563538e+00 7.620000e+00
    endloop
  endfacet
  facet normal 0.000000e+00 6.123234e-17 1.000000e+00
    outer loop
      vertex -1.151736e+00 -7.091517e-01 7.620000e+00
      vertex -5.255825e+00 -3.563538e+00 7.620000e+00
      vertex -1.015322e+00 -8.935957e-01 7.620000e+00
    endloop
  endfacet
  facet normal 0.000000e+00 6.123234e-17 1.000000e+00
    outer loop
      vertex -1.015322e+00 -8.935957e-01 7.620000e+00
      vertex -5.255825e+00 -3.563538e+00 7.620000e+00
      vertex -4.839729e+00 -4.110903e+00 7.620000e+00
    endloop
  endfacet
  facet normal 0.000000e+00 6.123234e-17 1.000000e+00
    outer loop
      vertex -1.015322e+00 -8.935957e-01 7.620000e+00
      vertex -4.839729e+00 -4.110903e+00 7.620000e+00
      vertex -4.366891e+00 -4.610072e+00 7.620000e+00
    endloop
  endfacet
  facet normal 0.000000e+00 6.123234e-17 1.000000e+00
    outer loop
      vertex -1.207727e+00 6.089230e-01 7.620000e+00
      vertex -5.899002e+00 2.350377e+00 7.620000e+00
      vertex -1.293264e+00 3.960576e-01 7.620000e+00
    endloop
  endfacet
  facet normal 0.000000e+00 6.123234e-17 1.000000e+00
    outer loop
      vertex -1.293264e+00 3.960576e-01 7.620000e+00
      vertex -5.899002e+00 2.350377e+00 7.620000e+00
      vertex -6.118543e+00 1.698805e+00 7.620000e+00
    endloop
  endfacet
  facet normal 0.000000e+00 6.123234e-17 1.000000e+00
    outer loop
      vertex -1.293264e+00 3.960576e-01 7.620000e+00
      vertex -6.118543e+00 1.698805e+00 7.620000e+00
      vertex -1.341595e+00 1.717978e-01 7.620000e+00
    endloop
  endfacet
  facet normal 0.000000e+00 6.123234e-17 1.000000e+00
    outer loop
      vertex -6.865555e-01 -6.312776e+00 7.620000e+00
      vertex -6.519258e-08 -6.350000e+00 7.620000e+00
      vertex -6.519258e-08 -1.352550e+00 7.620000e+00
    endloop
  endfacet
  facet normal 0.000000e+00 6.123234e-17 1.000000e+00
    outer loop
      vertex -6.519258e-08 -1.352550e+00 7.620000e+00
      vertex -6.519258e-08 -6.350000e+00 7.620000e+00
      vertex 6.865558e-01 -6.312776e+00 7.620000e+00
    endloop
  endfacet
  facet normal 0.000000e+00 6.123234e-17 1.000000e+00
    outer loop
      vertex -6.519258e-08 -1.352550e+00 7.620000e+00
      vertex 6.865558e-01 -6.312776e+00 7.620000e+00
      vertex 2.285818e-01 -1.333095e+00 7.620000e+00
    endloop
  endfacet
  facet normal 0.000000e+00 6.123234e-17 1.000000e+00
    outer loop
      vertex 2.285818e-01 -1.333095e+00 7.620000e+00
      vertex 6.865558e-01 -6.312776e+00 7.620000e+00
      vertex 1.365062e+00 -6.201540e+00 7.620000e+00
    endloop
  endfacet
  facet normal 0.000000e+00 6.123234e-17 1.000000e+00
    outer loop
      vertex 2.285818e-01 -1.333095e+00 7.620000e+00
      vertex 1.365062e+00 -6.201540e+00 7.620000e+00
      vertex 4.505882e-01 -1.275289e+00 7.620000e+00
    endloop
  endfacet
  facet normal 0.000000e+00 6.123234e-17 1.000000e+00
    outer loop
      vertex -3.842856e+00 -5.055191e+00 7.620000e+00
      vertex -3.273767e+00 -5.441043e+00 7.620000e+00
      vertex -6.596323e-01 -1.180796e+00 7.620000e+00
    endloop
  endfacet
  facet normal 0.000000e+00 6.123234e-17 1.000000e+00
    outer loop
      vertex -6.596323e-01 -1.180796e+00 7.620000e+00
      vertex -3.273767e+00 -5.441043e+00 7.620000e+00
      vertex -2.666296e+00 -5.763104e+00 7.620000e+00
    endloop
  endfacet
  facet normal 0.000000e+00 6.123234e-17 1.000000e+00
    outer loop
      vertex -6.596323e-01 -1.180796e+00 7.620000e+00
      vertex -2.666296e+00 -5.763104e+00 7.620000e+00
      vertex -4.505883e-01 -1.275289e+00 7.620000e+00
    endloop
  endfacet
  facet normal 0.000000e+00 6.123234e-17 1.000000e+00
    outer loop
      vertex -4.505883e-01 -1.275289e+00 7.620000e+00
      vertex -2.666296e+00 -5.763104e+00 7.620000e+00
      vertex -2.027565e+00 -6.017598e+00 7.620000e+00
    endloop
  endfacet
  facet normal 0.000000e+00 6.123234e-17 1.000000e+00
    outer loop
      vertex -4.505883e-01 -1.275289e+00 7.620000e+00
      vertex -2.027565e+00 -6.017598e+00 7.620000e+00
      vertex -2.285820e-01 -1.333095e+00 7.620000e+00
    endloop
  endfacet
  facet normal 0.000000e+00 6.123234e-17 1.000000e+00
    outer loop
      vertex -2.285820e-01 -1.333095e+00 7.620000e+00
      vertex -2.027565e+00 -6.017598e+00 7.620000e+00
      vertex -1.365062e+00 -6.201540e+00 7.620000e+00
    endloop
  endfacet
  facet normal 0.000000e+00 6.123234e-17 1.000000e+00
    outer loop
      vertex -2.285820e-01 -1.333095e+00 7.620000e+00
      vertex -1.365062e+00 -6.201540e+00 7.620000e+00
      vertex -6.865555e-01 -6.312776e+00 7.620000e+00
    endloop
  endfacet
  facet normal 0.000000e+00 6.123234e-17 1.000000e+00
    outer loop
      vertex -1.322193e+00 -2.849545e-01 7.620000e+00
      vertex -6.118543e+00 -1.698804e+00 7.620000e+00
      vertex -1.255016e+00 -5.043068e-01 7.620000e+00
    endloop
  endfacet
  facet normal 0.000000e+00 6.123234e-17 1.000000e+00
    outer loop
      vertex -1.255016e+00 -5.043068e-01 7.620000e+00
      vertex -6.118543e+00 -1.698804e+00 7.620000e+00
      vertex -5.899002e+00 -2.350378e+00 7.620000e+00
    endloop
  endfacet
  facet normal 0.000000e+00 6.123234e-17 1.000000e+00
    outer loop
      vertex -1.255016e+00 -5.043068e-01 7.620000e+00
      vertex -5.899002e+00 -2.350378e+00 7.620000e+00
      vertex -5.610302e+00 -2.974393e+00 7.620000e+00
    endloop
  endfacet
  facet normal 0.000000e+00 6.123234e-17 1.000000e+00
    outer loop
      vertex -9.358817e-01 9.764819e-01 7.620000e+00
      vertex -4.839729e+00 4.110903e+00 7.620000e+00
      vertex -1.087446e+00 8.042712e-01 7.620000e+00
    endloop
  endfacet
  facet normal 0.000000e+00 6.123234e-17 1.000000e+00
    outer loop
      vertex -1.087446e+00 8.042712e-01 7.620000e+00
      vertex -4.839729e+00 4.110903e+00 7.620000e+00
      vertex -5.255825e+00 3.563538e+00 7.620000e+00
    endloop
  endfacet
  facet normal 0.000000e+00 6.123234e-17 1.000000e+00
    outer loop
      vertex -1.087446e+00 8.042712e-01 7.620000e+00
      vertex -5.255825e+00 3.563538e+00 7.620000e+00
      vertex -1.207727e+00 6.089230e-01 7.620000e+00
    endloop
  endfacet
  facet normal 0.000000e+00 6.123234e-17 1.000000e+00
    outer loop
      vertex -1.207727e+00 6.089230e-01 7.620000e+00
      vertex -5.255825e+00 3.563538e+00 7.620000e+00
      vertex -5.610302e+00 2.974394e+00 7.620000e+00
    endloop
  endfacet
  facet normal 0.000000e+00 6.123234e-17 1.000000e+00
    outer loop
      vertex -1.207727e+00 6.089230e-01 7.620000e+00
      vertex -5.610302e+00 2.974394e+00 7.620000e+00
      vertex -5.899002e+00 2.350377e+00 7.620000e+00
    endloop
  endfacet
  facet normal 0.000000e+00 6.123234e-17 1.000000e+00
    outer loop
      vertex -7.573939e-01 1.120601e+00 7.620000e+00
      vertex -3.842856e+00 5.055191e+00 7.620000e+00
      vertex -9.358817e-01 9.764819e-01 7.620000e+00
    endloop
  endfacet
  facet normal 0.000000e+00 6.123234e-17 1.000000e+00
    outer loop
      vertex -9.358817e-01 9.764819e-01 7.620000e+00
      vertex -3.842856e+00 5.055191e+00 7.620000e+00
      vertex -4.366891e+00 4.610071e+00 7.620000e+00
    endloop
  endfacet
  facet normal 0.000000e+00 6.123234e-17 1.000000e+00
    outer loop
      vertex -9.358817e-01 9.764819e-01 7.620000e+00
      vertex -4.366891e+00 4.610071e+00 7.620000e+00
      vertex -4.839729e+00 4.110903e+00 7.620000e+00
    endloop
  endfacet
  facet normal 0.000000e+00 6.123234e-17 1.000000e+00
    outer loop
      vertex -6.118543e+00 1.698805e+00 7.620000e+00
      vertex -6.266349e+00 1.027315e+00 7.620000e+00
      vertex -1.341595e+00 1.717978e-01 7.620000e+00
    endloop
  endfacet
  facet normal 0.000000e+00 6.123234e-17 1.000000e+00
    outer loop
      vertex -1.341595e+00 1.717978e-01 7.620000e+00
      vertex -6.266349e+00 1.027315e+00 7.620000e+00
      vertex -6.340687e+00 3.437819e-01 7.620000e+00
    endloop
  endfacet
  facet normal 0.000000e+00 6.123234e-17 1.000000e+00
    outer loop
      vertex -1.341595e+00 1.717978e-01 7.620000e+00
      vertex -6.340687e+00 3.437819e-01 7.620000e+00
      vertex -1.351331e+00 -5.740404e-02 7.620000e+00
    endloop
  endfacet
  facet normal 0.000000e+00 6.123234e-17 1.000000e+00
    outer loop
      vertex -1.351331e+00 -5.740404e-02 7.620000e+00
      vertex -6.340687e+00 3.437819e-01 7.620000e+00
      vertex -6.340687e+00 -3.437819e-01 7.620000e+00
    endloop
  endfacet
  facet normal 0.000000e+00 6.123234e-17 1.000000e+00
    outer loop
      vertex -1.351331e+00 -5.740404e-02 7.620000e+00
      vertex -6.340687e+00 -3.437819e-01 7.620000e+00
      vertex -1.322193e+00 -2.849545e-01 7.620000e+00
    endloop
  endfacet
  facet normal 0.000000e+00 6.123234e-17 1.000000e+00
    outer loop
      vertex -1.322193e+00 -2.849545e-01 7.620000e+00
      vertex -6.340687e+00 -3.437819e-01 7.620000e+00
      vertex -6.266349e+00 -1.027316e+00 7.620000e+00
    endloop
  endfacet
  facet normal 0.000000e+00 6.123234e-17 1.000000e+00
    outer loop
      vertex -1.322193e+00 -2.849545e-01 7.620000e+00
      vertex -6.266349e+00 -1.027316e+00 7.620000e+00
      vertex -6.118543e+00 -1.698804e+00 7.620000e+00
    endloop
  endfacet
  facet normal 0.000000e+00 6.123234e-17 1.000000e+00
    outer loop
      vertex -3.408127e-01 1.308907e+00 7.620000e+00
      vertex -2.027565e+00 6.017598e+00 7.620000e+00
      vertex -5.571171e-01 1.232482e+00 7.620000e+00
    endloop
  endfacet
  facet normal 0.000000e+00 6.123234e-17 1.000000e+00
    outer loop
      vertex -5.571171e-01 1.232482e+00 7.620000e+00
      vertex -2.027565e+00 6.017598e+00 7.620000e+00
      vertex -2.666296e+00 5.763104e+00 7.620000e+00
    endloop
  endfacet
  facet normal 0.000000e+00 6.123234e-17 1.000000e+00
    outer loop
      vertex -5.571171e-01 1.232482e+00 7.620000e+00
      vertex -2.666296e+00 5.763104e+00 7.620000e+00
      vertex -7.573939e-01 1.120601e+00 7.620000e+00
    endloop
  endfacet
  facet normal 0.000000e+00 6.123234e-17 1.000000e+00
    outer loop
      vertex -7.573939e-01 1.120601e+00 7.620000e+00
      vertex -2.666296e+00 5.763104e+00 7.620000e+00
      vertex -3.273767e+00 5.441043e+00 7.620000e+00
    endloop
  endfacet
  facet normal 0.000000e+00 6.123234e-17 1.000000e+00
    outer loop
      vertex -7.573939e-01 1.120601e+00 7.620000e+00
      vertex -3.273767e+00 5.441043e+00 7.620000e+00
      vertex -3.842856e+00 5.055191e+00 7.620000e+00
    endloop
  endfacet
  facet normal 0.000000e+00 6.123234e-17 1.000000e+00
    outer loop
      vertex 1.147045e-01 1.347677e+00 7.620000e+00
      vertex -6.519258e-08 6.350000e+00 7.620000e+00
      vertex -1.147047e-01 1.347677e+00 7.620000e+00
    endloop
  endfacet
  facet normal 0.000000e+00 6.123234e-17 1.000000e+00
    outer loop
      vertex -1.147047e-01 1.347677e+00 7.620000e+00
      vertex -6.519258e-08 6.350000e+00 7.620000e+00
      vertex -6.865555e-01 6.312776e+00 7.620000e+00
    endloop
  endfacet
  facet normal 0.000000e+00 6.123234e-17 1.000000e+00
    outer loop
      vertex -1.147047e-01 1.347677e+00 7.620000e+00
      vertex -6.865555e-01 6.312776e+00 7.620000e+00
      vertex -3.408127e-01 1.308907e+00 7.620000e+00
    endloop
  endfacet
  facet normal 0.000000e+00 6.123234e-17 1.000000e+00
    outer loop
      vertex -3.408127e-01 1.308907e+00 7.620000e+00
      vertex -6.865555e-01 6.312776e+00 7.620000e+00
      vertex -1.365062e+00 6.201541e+00 7.620000e+00
    endloop
  endfacet
  facet normal 0.000000e+00 6.123234e-17 1.000000e+00
    outer loop
      vertex -3.408127e-01 1.308907e+00 7.620000e+00
      vertex -1.365062e+00 6.201541e+00 7.620000e+00
      vertex -2.027565e+00 6.017598e+00 7.620000e+00
    endloop
  endfacet
  facet normal 0.000000e+00 6.123234e-17 1.000000e+00
    outer loop
      vertex 5.571169e-01 1.232482e+00 7.620000e+00
      vertex 2.027565e+00 6.017598e+00 7.620000e+00
      vertex 3.408126e-01 1.308907e+00 7.620000e+00
    endloop
  endfacet
  facet normal 0.000000e+00 6.123234e-17 1.000000e+00
    outer loop
      vertex 3.408126e-01 1.308907e+00 7.620000e+00
      vertex 2.027565e+00 6.017598e+00 7.620000e+00
      vertex 1.365062e+00 6.201541e+00 7.620000e+00
    endloop
  endfacet
  facet normal 0.000000e+00 6.123234e-17 1.000000e+00
    outer loop
      vertex 3.408126e-01 1.308907e+00 7.620000e+00
      vertex 1.365062e+00 6.201541e+00 7.620000e+00
      vertex 1.147045e-01 1.347677e+00 7.620000e+00
    endloop
  endfacet
  facet normal 0.000000e+00 6.123234e-17 1.000000e+00
    outer loop
      vertex 1.147045e-01 1.347677e+00 7.620000e+00
      vertex 1.365062e+00 6.201541e+00 7.620000e+00
      vertex 6.865558e-01 6.312776e+00 7.620000e+00
    endloop
  endfacet
  facet normal 0.000000e+00 6.123234e-17 1.000000e+00
    outer loop
      vertex 1.147045e-01 1.347677e+00 7.620000e+00
      vertex 6.865558e-01 6.312776e+00 7.620000e+00
      vertex -6.519258e-08 6.350000e+00 7.620000e+00
    endloop
  endfacet
  facet normal 0.000000e+00 6.123234e-17 1.000000e+00
    outer loop
      vertex 9.358820e-01 9.764819e-01 7.620000e+00
      vertex 3.842856e+00 5.055191e+00 7.620000e+00
      vertex 7.573938e-01 1.120601e+00 7.620000e+00
    endloop
  endfacet
  facet normal 0.000000e+00 6.123234e-17 1.000000e+00
    outer loop
      vertex 7.573938e-01 1.120601e+00 7.620000e+00
      vertex 3.842856e+00 5.055191e+00 7.620000e+00
      vertex 3.273767e+00 5.441043e+00 7.620000e+00
    endloop
  endfacet
  facet normal 0.000000e+00 6.123234e-17 1.000000e+00
    outer loop
      vertex 7.573938e-01 1.120601e+00 7.620000e+00
      vertex 3.273767e+00 5.441043e+00 7.620000e+00
      vertex 5.571169e-01 1.232482e+00 7.620000e+00
    endloop
  endfacet
  facet normal 0.000000e+00 6.123234e-17 1.000000e+00
    outer loop
      vertex 5.571169e-01 1.232482e+00 7.620000e+00
      vertex 3.273767e+00 5.441043e+00 7.620000e+00
      vertex 2.666295e+00 5.763104e+00 7.620000e+00
    endloop
  endfacet
  facet normal 0.000000e+00 6.123234e-17 1.000000e+00
    outer loop
      vertex 5.571169e-01 1.232482e+00 7.620000e+00
      vertex 2.666295e+00 5.763104e+00 7.620000e+00
      vertex 2.027565e+00 6.017598e+00 7.620000e+00
    endloop
  endfacet
  facet normal 0.000000e+00 6.123234e-17 1.000000e+00
    outer loop
      vertex 1.351331e+00 -5.740404e-02 7.620000e+00
      vertex 6.340687e+00 3.437819e-01 7.620000e+00
      vertex 1.341595e+00 1.717978e-01 7.620000e+00
    endloop
  endfacet
  facet normal 0.000000e+00 6.123234e-17 1.000000e+00
    outer loop
      vertex 1.341595e+00 1.717978e-01 7.620000e+00
      vertex 6.340687e+00 3.437819e-01 7.620000e+00
      vertex 6.266348e+00 1.027315e+00 7.620000e+00
    endloop
  endfacet
  facet normal 0.000000e+00 6.123234e-17 1.000000e+00
    outer loop
      vertex 1.341595e+00 1.717978e-01 7.620000e+00
      vertex 6.266348e+00 1.027315e+00 7.620000e+00
      vertex 1.293263e+00 3.960576e-01 7.620000e+00
    endloop
  endfacet
  facet normal 0.000000e+00 6.123234e-17 1.000000e+00
    outer loop
      vertex 1.255016e+00 -5.043068e-01 7.620000e+00
      vertex 6.118543e+00 -1.698804e+00 7.620000e+00
      vertex 1.322193e+00 -2.849545e-01 7.620000e+00
    endloop
  endfacet
  facet normal 0.000000e+00 6.123234e-17 1.000000e+00
    outer loop
      vertex 1.322193e+00 -2.849545e-01 7.620000e+00
      vertex 6.118543e+00 -1.698804e+00 7.620000e+00
      vertex 6.266348e+00 -1.027316e+00 7.620000e+00
    endloop
  endfacet
  facet normal 0.000000e+00 6.123234e-17 1.000000e+00
    outer loop
      vertex 1.322193e+00 -2.849545e-01 7.620000e+00
      vertex 6.266348e+00 -1.027316e+00 7.620000e+00
      vertex 1.351331e+00 -5.740404e-02 7.620000e+00
    endloop
  endfacet
  facet normal 0.000000e+00 6.123234e-17 1.000000e+00
    outer loop
      vertex 1.351331e+00 -5.740404e-02 7.620000e+00
      vertex 6.266348e+00 -1.027316e+00 7.620000e+00
      vertex 6.340687e+00 -3.437819e-01 7.620000e+00
    endloop
  endfacet
  facet normal 0.000000e+00 6.123234e-17 1.000000e+00
    outer loop
      vertex 1.351331e+00 -5.740404e-02 7.620000e+00
      vertex 6.340687e+00 -3.437819e-01 7.620000e+00
      vertex 6.340687e+00 3.437819e-01 7.620000e+00
    endloop
  endfacet
  facet normal 0.000000e+00 6.123234e-17 1.000000e+00
    outer loop
      vertex 1.087446e+00 8.042712e-01 7.620000e+00
      vertex 4.839729e+00 4.110903e+00 7.620000e+00
      vertex 9.358820e-01 9.764819e-01 7.620000e+00
    endloop
  endfacet
  facet normal 0.000000e+00 6.123234e-17 1.000000e+00
    outer loop
      vertex 9.358820e-01 9.764819e-01 7.620000e+00
      vertex 4.839729e+00 4.110903e+00 7.620000e+00
      vertex 4.366891e+00 4.610071e+00 7.620000e+00
    endloop
  endfacet
  facet normal 0.000000e+00 6.123234e-17 1.000000e+00
    outer loop
      vertex 9.358820e-01 9.764819e-01 7.620000e+00
      vertex 4.366891e+00 4.610071e+00 7.620000e+00
      vertex 3.842856e+00 5.055191e+00 7.620000e+00
    endloop
  endfacet
  facet normal 0.000000e+00 6.123234e-17 1.000000e+00
    outer loop
      vertex 6.266348e+00 1.027315e+00 7.620000e+00
      vertex 6.118543e+00 1.698805e+00 7.620000e+00
      vertex 1.293263e+00 3.960576e-01 7.620000e+00
    endloop
  endfacet
  facet normal 0.000000e+00 6.123234e-17 1.000000e+00
    outer loop
      vertex 1.293263e+00 3.960576e-01 7.620000e+00
      vertex 6.118543e+00 1.698805e+00 7.620000e+00
      vertex 5.899002e+00 2.350377e+00 7.620000e+00
    endloop
  endfacet
  facet normal 0.000000e+00 6.123234e-17 1.000000e+00
    outer loop
      vertex 1.293263e+00 3.960576e-01 7.620000e+00
      vertex 5.899002e+00 2.350377e+00 7.620000e+00
      vertex 1.207727e+00 6.089230e-01 7.620000e+00
    endloop
  endfacet
  facet normal 0.000000e+00 6.123234e-17 1.000000e+00
    outer loop
      vertex 1.207727e+00 6.089230e-01 7.620000e+00
      vertex 5.899002e+00 2.350377e+00 7.620000e+00
      vertex 5.610301e+00 2.974394e+00 7.620000e+00
    endloop
  endfacet
  facet normal 0.000000e+00 6.123234e-17 1.000000e+00
    outer loop
      vertex 1.207727e+00 6.089230e-01 7.620000e+00
      vertex 5.610301e+00 2.974394e+00 7.620000e+00
      vertex 1.087446e+00 8.042712e-01 7.620000e+00
    endloop
  endfacet
  facet normal 0.000000e+00 6.123234e-17 1.000000e+00
    outer loop
      vertex 1.087446e+00 8.042712e-01 7.620000e+00
      vertex 5.610301e+00 2.974394e+00 7.620000e+00
      vertex 5.255825e+00 3.563538e+00 7.620000e+00
    endloop
  endfacet
  facet normal 0.000000e+00 6.123234e-17 1.000000e+00
    outer loop
      vertex 1.087446e+00 8.042712e-01 7.620000e+00
      vertex 5.255825e+00 3.563538e+00 7.620000e+00
      vertex 4.839729e+00 4.110903e+00 7.620000e+00
    endloop
  endfacet
  facet normal 0.000000e+00 6.123234e-17 1.000000e+00
    outer loop
      vertex 1.151736e+00 -7.091517e-01 7.620000e+00
      vertex 5.610301e+00 -2.974393e+00 7.620000e+00
      vertex 1.255016e+00 -5.043068e-01 7.620000e+00
    endloop
  endfacet
  facet normal 0.000000e+00 6.123234e-17 1.000000e+00
    outer loop
      vertex 1.255016e+00 -5.043068e-01 7.620000e+00
      vertex 5.610301e+00 -2.974393e+00 7.620000e+00
      vertex 5.899002e+00 -2.350378e+00 7.620000e+00
    endloop
  endfacet
  facet normal 0.000000e+00 6.123234e-17 1.000000e+00
    outer loop
      vertex 1.255016e+00 -5.043068e-01 7.620000e+00
      vertex 5.899002e+00 -2.350378e+00 7.620000e+00
      vertex 6.118543e+00 -1.698804e+00 7.620000e+00
    endloop
  endfacet
  facet normal 0.000000e+00 6.123234e-17 1.000000e+00
    outer loop
      vertex 8.496990e-01 -1.052332e+00 7.620000e+00
      vertex 4.366891e+00 -4.610072e+00 7.620000e+00
      vertex 1.015322e+00 -8.935957e-01 7.620000e+00
    endloop
  endfacet
  facet normal 0.000000e+00 6.123234e-17 1.000000e+00
    outer loop
      vertex 1.015322e+00 -8.935957e-01 7.620000e+00
      vertex 4.366891e+00 -4.610072e+00 7.620000e+00
      vertex 4.839729e+00 -4.110903e+00 7.620000e+00
    endloop
  endfacet
  facet normal 0.000000e+00 6.123234e-17 1.000000e+00
    outer loop
      vertex 1.015322e+00 -8.935957e-01 7.620000e+00
      vertex 4.839729e+00 -4.110903e+00 7.620000e+00
      vertex 1.151736e+00 -7.091517e-01 7.620000e+00
    endloop
  endfacet
  facet normal 0.000000e+00 6.123234e-17 1.000000e+00
    outer loop
      vertex 1.151736e+00 -7.091517e-01 7.620000e+00
      vertex 4.839729e+00 -4.110903e+00 7.620000e+00
      vertex 5.255825e+00 -3.563538e+00 7.620000e+00
    endloop
  endfacet
  facet normal 0.000000e+00 6.123234e-17 1.000000e+00
    outer loop
      vertex 1.151736e+00 -7.091517e-01 7.620000e+00
      vertex 5.255825e+00 -3.563538e+00 7.620000e+00
      vertex 5.610301e+00 -2.974393e+00 7.620000e+00
    endloop
  endfacet
  facet normal 0.000000e+00 6.123234e-17 1.000000e+00
    outer loop
      vertex 1.365062e+00 -6.201540e+00 7.620000e+00
      vertex 2.027565e+00 -6.017598e+00 7.620000e+00
      vertex 4.505882e-01 -1.275289e+00 7.620000e+00
    endloop
  endfacet
  facet normal 0.000000e+00 6.123234e-17 1.000000e+00
    outer loop
      vertex 4.505882e-01 -1.275289e+00 7.620000e+00
      vertex 2.027565e+00 -6.017598e+00 7.620000e+00
      vertex 2.666295e+00 -5.763104e+00 7.620000e+00
    endloop
  endfacet
  facet normal 0.000000e+00 6.123234e-17 1.000000e+00
    outer loop
      vertex 4.505882e-01 -1.275289e+00 7.620000e+00
      vertex 2.666295e+00 -5.763104e+00 7.620000e+00
      vertex 6.596321e-01 -1.180796e+00 7.620000e+00
    endloop
  endfacet
  facet normal 0.000000e+00 6.123234e-17 1.000000e+00
    outer loop
      vertex 6.596321e-01 -1.180796e+00 7.620000e+00
      vertex 2.666295e+00 -5.763104e+00 7.620000e+00
      vertex 3.273767e+00 -5.441043e+00 7.620000e+00
    endloop
  endfacet
  facet normal 0.000000e+00 6.123234e-17 1.000000e+00
    outer loop
      vertex 6.596321e-01 -1.180796e+00 7.620000e+00
      vertex 3.273767e+00 -5.441043e+00 7.620000e+00
      vertex 8.496990e-01 -1.052332e+00 7.620000e+00
    endloop
  endfacet
  facet normal 0.000000e+00 6.123234e-17 1.000000e+00
    outer loop
      vertex 8.496990e-01 -1.052332e+00 7.620000e+00
      vertex 3.273767e+00 -5.441043e+00 7.620000e+00
      vertex 3.842856e+00 -5.055191e+00 7.620000e+00
    endloop
  endfacet
  facet normal 0.000000e+00 6.123234e-17 1.000000e+00
    outer loop
      vertex 8.496990e-01 -1.052332e+00 7.620000e+00
      vertex 3.842856e+00 -5.055191e+00 7.620000e+00
      vertex 4.366891e+00 -4.610072e+00 7.620000e+00
    endloop
  endfacet
  facet normal 0.000000e+00 -6.123234e-17 -1.000000e+00
    outer loop
      vertex -1.147047e-01 1.347677e+00 1.734723e-15
      vertex -6.519258e-08 6.350000e+00 1.428420e-15
      vertex 1.147045e-01 1.347677e+00 1.734723e-15
    endloop
  endfacet
  facet normal 0.000000e+00 -6.123234e-17 -1.000000e+00
    outer loop
      vertex 1.147045e-01 1.347677e+00 1.734723e-15
      vertex -6.519258e-08 6.350000e+00 1.428420e-15
      vertex 6.865558e-01 6.312776e+00 1.430699e-15
    endloop
  endfacet
  facet normal 0.000000e+00 -6.123234e-17 -1.000000e+00
    outer loop
      vertex 1.147045e-01 1.347677e+00 1.734723e-15
      vertex 6.865558e-01 6.312776e+00 1.430699e-15
      vertex 3.408126e-01 1.308907e+00 1.737097e-15
    endloop
  endfacet
  facet normal 0.000000e+00 -6.123234e-17 -1.000000e+00
    outer loop
      vertex -9.358817e-01 9.764819e-01 1.757453e-15
      vertex -3.842856e+00 5.055191e+00 1.507704e-15
      vertex -7.573939e-01 1.120601e+00 1.748628e-15
    endloop
  endfacet
  facet normal 0.000000e+00 -6.123234e-17 -1.000000e+00
    outer loop
      vertex -7.573939e-01 1.120601e+00 1.748628e-15
      vertex -3.842856e+00 5.055191e+00 1.507704e-15
      vertex -3.273767e+00 5.441043e+00 1.484077e-15
    endloop
  endfacet
  facet normal 0.000000e+00 -6.123234e-17 -1.000000e+00
    outer loop
      vertex -7.573939e-01 1.120601e+00 1.748628e-15
      vertex -3.273767e+00 5.441043e+00 1.484077e-15
      vertex -5.571171e-01 1.232482e+00 1.741777e-15
    endloop
  endfacet
  facet normal 0.000000e+00 -6.123234e-17 -1.000000e+00
    outer loop
      vertex -3.273767e+00 5.441043e+00 1.484077e-15
      vertex -2.666296e+00 5.763104e+00 1.464357e-15
      vertex -5.571171e-01 1.232482e+00 1.741777e-15
    endloop
  endfacet
  facet normal 0.000000e+00 -6.123234e-17 -1.000000e+00
    outer loop
      vertex -5.571171e-01 1.232482e+00 1.741777e-15
      vertex -2.666296e+00 5.763104e+00 1.464357e-15
      vertex -2.027565e+00 6.017598e+00 1.448773e-15
    endloop
  endfacet
  facet normal 0.000000e+00 -6.123234e-17 -1.000000e+00
    outer loop
      vertex -5.571171e-01 1.232482e+00 1.741777e-15
      vertex -2.027565e+00 6.017598e+00 1.448773e-15
      vertex -3.408127e-01 1.308907e+00 1.737097e-15
    endloop
  endfacet
  facet normal 0.000000e+00 -6.123234e-17 -1.000000e+00
    outer loop
      vertex -3.408127e-01 1.308907e+00 1.737097e-15
      vertex -2.027565e+00 6.017598e+00 1.448773e-15
      vertex -1.365062e+00 6.201541e+00 1.437510e-15
    endloop
  endfacet
  facet normal 0.000000e+00 -6.123234e-17 -1.000000e+00
    outer loop
      vertex -3.408127e-01 1.308907e+00 1.737097e-15
      vertex -1.365062e+00 6.201541e+00 1.437510e-15
      vertex -1.147047e-01 1.347677e+00 1.734723e-15
    endloop
  endfacet
  facet normal 0.000000e+00 -6.123234e-17 -1.000000e+00
    outer loop
      vertex -1.147047e-01 1.347677e+00 1.734723e-15
      vertex -1.365062e+00 6.201541e+00 1.437510e-15
      vertex -6.865555e-01 6.312776e+00 1.430699e-15
    endloop
  endfacet
  facet normal 0.000000e+00 -6.123234e-17 -1.000000e+00
    outer loop
      vertex -1.147047e-01 1.347677e+00 1.734723e-15
      vertex -6.865555e-01 6.312776e+00 1.430699e-15
      vertex -6.519258e-08 6.350000e+00 1.428420e-15
    endloop
  endfacet
  facet normal 0.000000e+00 -6.123234e-17 -1.000000e+00
    outer loop
      vertex -1.293264e+00 3.960576e-01 1.792993e-15
      vertex -5.899002e+00 2.350377e+00 1.673326e-15
      vertex -1.207727e+00 6.089230e-01 1.779959e-15
    endloop
  endfacet
  facet normal 0.000000e+00 -6.123234e-17 -1.000000e+00
    outer loop
      vertex -1.207727e+00 6.089230e-01 1.779959e-15
      vertex -5.899002e+00 2.350377e+00 1.673326e-15
      vertex -5.610302e+00 2.974394e+00 1.635116e-15
    endloop
  endfacet
  facet normal 0.000000e+00 -6.123234e-17 -1.000000e+00
    outer loop
      vertex -1.207727e+00 6.089230e-01 1.779959e-15
      vertex -5.610302e+00 2.974394e+00 1.635116e-15
      vertex -1.087446e+00 8.042712e-01 1.767997e-15
    endloop
  endfacet
  facet normal 0.000000e+00 -6.123234e-17 -1.000000e+00
    outer loop
      vertex -1.351331e+00 -5.740404e-02 1.820760e-15
      vertex -6.340687e+00 3.437819e-01 1.796194e-15
      vertex -1.341595e+00 1.717978e-01 1.806725e-15
    endloop
  endfacet
  facet normal 0.000000e+00 -6.123234e-17 -1.000000e+00
    outer loop
      vertex -1.341595e+00 1.717978e-01 1.806725e-15
      vertex -6.340687e+00 3.437819e-01 1.796194e-15
      vertex -6.266349e+00 1.027315e+00 1.754340e-15
    endloop
  endfacet
  facet normal 0.000000e+00 -6.123234e-17 -1.000000e+00
    outer loop
      vertex -1.341595e+00 1.717978e-01 1.806725e-15
      vertex -6.266349e+00 1.027315e+00 1.754340e-15
      vertex -1.293264e+00 3.960576e-01 1.792993e-15
    endloop
  endfacet
  facet normal 0.000000e+00 -6.123234e-17 -1.000000e+00
    outer loop
      vertex -1.293264e+00 3.960576e-01 1.792993e-15
      vertex -6.266349e+00 1.027315e+00 1.754340e-15
      vertex -6.118543e+00 1.698805e+00 1.713223e-15
    endloop
  endfacet
  facet normal 0.000000e+00 -6.123234e-17 -1.000000e+00
    outer loop
      vertex -1.293264e+00 3.960576e-01 1.792993e-15
      vertex -6.118543e+00 1.698805e+00 1.713223e-15
      vertex -5.899002e+00 2.350377e+00 1.673326e-15
    endloop
  endfacet
  facet normal 0.000000e+00 -6.123234e-17 -1.000000e+00
    outer loop
      vertex -1.255016e+00 -5.043068e-01 1.848125e-15
      vertex -6.118543e+00 -1.698804e+00 1.921267e-15
      vertex -1.322193e+00 -2.849545e-01 1.834693e-15
    endloop
  endfacet
  facet normal 0.000000e+00 -6.123234e-17 -1.000000e+00
    outer loop
      vertex -1.322193e+00 -2.849545e-01 1.834693e-15
      vertex -6.118543e+00 -1.698804e+00 1.921267e-15
      vertex -6.266349e+00 -1.027316e+00 1.880150e-15
    endloop
  endfacet
  facet normal 0.000000e+00 -6.123234e-17 -1.000000e+00
    outer loop
      vertex -1.322193e+00 -2.849545e-01 1.834693e-15
      vertex -6.266349e+00 -1.027316e+00 1.880150e-15
      vertex -1.351331e+00 -5.740404e-02 1.820760e-15
    endloop
  endfacet
  facet normal 0.000000e+00 -6.123234e-17 -1.000000e+00
    outer loop
      vertex -1.351331e+00 -5.740404e-02 1.820760e-15
      vertex -6.266349e+00 -1.027316e+00 1.880150e-15
      vertex -6.340687e+00 -3.437819e-01 1.838295e-15
    endloop
  endfacet
  facet normal 0.000000e+00 -6.123234e-17 -1.000000e+00
    outer loop
      vertex -1.351331e+00 -5.740404e-02 1.820760e-15
      vertex -6.340687e+00 -3.437819e-01 1.838295e-15
      vertex -6.340687e+00 3.437819e-01 1.796194e-15
    endloop
  endfacet
  facet normal 0.000000e+00 -6.123234e-17 -1.000000e+00
    outer loop
      vertex -1.151736e+00 -7.091517e-01 1.860668e-15
      vertex -5.610302e+00 -2.974393e+00 1.999374e-15
      vertex -1.255016e+00 -5.043068e-01 1.848125e-15
    endloop
  endfacet
  facet normal 0.000000e+00 -6.123234e-17 -1.000000e+00
    outer loop
      vertex -1.255016e+00 -5.043068e-01 1.848125e-15
      vertex -5.610302e+00 -2.974393e+00 1.999374e-15
      vertex -5.899002e+00 -2.350378e+00 1.961164e-15
    endloop
  endfacet
  facet normal 0.000000e+00 -6.123234e-17 -1.000000e+00
    outer loop
      vertex -1.255016e+00 -5.043068e-01 1.848125e-15
      vertex -5.899002e+00 -2.350378e+00 1.961164e-15
      vertex -6.118543e+00 -1.698804e+00 1.921267e-15
    endloop
  endfacet
  facet normal 0.000000e+00 -6.123234e-17 -1.000000e+00
    outer loop
      vertex -8.496991e-01 -1.052332e+00 1.881682e-15
      vertex -4.366891e+00 -4.610072e+00 2.099530e-15
      vertex -1.015322e+00 -8.935957e-01 1.871962e-15
    endloop
  endfacet
  facet normal 0.000000e+00 -6.123234e-17 -1.000000e+00
    outer loop
      vertex -1.015322e+00 -8.935957e-01 1.871962e-15
      vertex -4.366891e+00 -4.610072e+00 2.099530e-15
      vertex -4.839729e+00 -4.110903e+00 2.068965e-15
    endloop
  endfacet
  facet normal 0.000000e+00 -6.123234e-17 -1.000000e+00
    outer loop
      vertex -1.015322e+00 -8.935957e-01 1.871962e-15
      vertex -4.839729e+00 -4.110903e+00 2.068965e-15
      vertex -1.151736e+00 -7.091517e-01 1.860668e-15
    endloop
  endfacet
  facet normal 0.000000e+00 -6.123234e-17 -1.000000e+00
    outer loop
      vertex -1.151736e+00 -7.091517e-01 1.860668e-15
      vertex -4.839729e+00 -4.110903e+00 2.068965e-15
      vertex -5.255825e+00 -3.563538e+00 2.035449e-15
    endloop
  endfacet
  facet normal 0.000000e+00 -6.123234e-17 -1.000000e+00
    outer loop
      vertex -1.151736e+00 -7.091517e-01 1.860668e-15
      vertex -5.255825e+00 -3.563538e+00 2.035449e-15
      vertex -5.610302e+00 -2.974393e+00 1.999374e-15
    endloop
  endfacet
  facet normal 0.000000e+00 -6.123234e-17 -1.000000e+00
    outer loop
      vertex -4.505883e-01 -1.275289e+00 1.895334e-15
      vertex -2.666296e+00 -5.763104e+00 2.170133e-15
      vertex -6.596323e-01 -1.180796e+00 1.889548e-15
    endloop
  endfacet
  facet normal 0.000000e+00 -6.123234e-17 -1.000000e+00
    outer loop
      vertex -6.596323e-01 -1.180796e+00 1.889548e-15
      vertex -2.666296e+00 -5.763104e+00 2.170133e-15
      vertex -3.273767e+00 -5.441043e+00 2.150413e-15
    endloop
  endfacet
  facet normal 0.000000e+00 -6.123234e-17 -1.000000e+00
    outer loop
      vertex -6.596323e-01 -1.180796e+00 1.889548e-15
      vertex -3.273767e+00 -5.441043e+00 2.150413e-15
      vertex -8.496991e-01 -1.052332e+00 1.881682e-15
    endloop
  endfacet
  facet normal 0.000000e+00 -6.123234e-17 -1.000000e+00
    outer loop
      vertex -8.496991e-01 -1.052332e+00 1.881682e-15
      vertex -3.273767e+00 -5.441043e+00 2.150413e-15
      vertex -3.842856e+00 -5.055191e+00 2.126786e-15
    endloop
  endfacet
  facet normal 0.000000e+00 -6.123234e-17 -1.000000e+00
    outer loop
      vertex -8.496991e-01 -1.052332e+00 1.881682e-15
      vertex -3.842856e+00 -5.055191e+00 2.126786e-15
      vertex -4.366891e+00 -4.610072e+00 2.099530e-15
    endloop
  endfacet
  facet normal 0.000000e+00 -6.123234e-17 -1.000000e+00
    outer loop
      vertex -5.610302e+00 2.974394e+00 1.635116e-15
      vertex -5.255825e+00 3.563538e+00 1.599041e-15
      vertex -1.087446e+00 8.042712e-01 1.767997e-15
    endloop
  endfacet
  facet normal 0.000000e+00 -6.123234e-17 -1.000000e+00
    outer loop
      vertex -1.087446e+00 8.042712e-01 1.767997e-15
      vertex -5.255825e+00 3.563538e+00 1.599041e-15
      vertex -4.839729e+00 4.110903e+00 1.565525e-15
    endloop
  endfacet
  facet normal 0.000000e+00 -6.123234e-17 -1.000000e+00
    outer loop
      vertex -1.087446e+00 8.042712e-01 1.767997e-15
      vertex -4.839729e+00 4.110903e+00 1.565525e-15
      vertex -9.358817e-01 9.764819e-01 1.757453e-15
    endloop
  endfacet
  facet normal 0.000000e+00 -6.123234e-17 -1.000000e+00
    outer loop
      vertex -9.358817e-01 9.764819e-01 1.757453e-15
      vertex -4.839729e+00 4.110903e+00 1.565525e-15
      vertex -4.366891e+00 4.610071e+00 1.534959e-15
    endloop
  endfacet
  facet normal 0.000000e+00 -6.123234e-17 -1.000000e+00
    outer loop
      vertex -9.358817e-01 9.764819e-01 1.757453e-15
      vertex -4.366891e+00 4.610071e+00 1.534959e-15
      vertex -3.842856e+00 5.055191e+00 1.507704e-15
    endloop
  endfacet
  facet normal 0.000000e+00 -6.123234e-17 -1.000000e+00
    outer loop
      vertex -6.519258e-08 -1.352550e+00 1.900065e-15
      vertex -6.865555e-01 -6.312776e+00 2.203791e-15
      vertex -2.285820e-01 -1.333095e+00 1.898873e-15
    endloop
  endfacet
  facet normal 0.000000e+00 -6.123234e-17 -1.000000e+00
    outer loop
      vertex -2.285820e-01 -1.333095e+00 1.898873e-15
      vertex -6.865555e-01 -6.312776e+00 2.203791e-15
      vertex -1.365062e+00 -6.201540e+00 2.196980e-15
    endloop
  endfacet
  facet normal 0.000000e+00 -6.123234e-17 -1.000000e+00
    outer loop
      vertex -2.285820e-01 -1.333095e+00 1.898873e-15
      vertex -1.365062e+00 -6.201540e+00 2.196980e-15
      vertex -4.505883e-01 -1.275289e+00 1.895334e-15
    endloop
  endfacet
  facet normal 0.000000e+00 -6.123234e-17 -1.000000e+00
    outer loop
      vertex -4.505883e-01 -1.275289e+00 1.895334e-15
      vertex -1.365062e+00 -6.201540e+00 2.196980e-15
      vertex -2.027565e+00 -6.017598e+00 2.185716e-15
    endloop
  endfacet
  facet normal 0.000000e+00 -6.123234e-17 -1.000000e+00
    outer loop
      vertex -4.505883e-01 -1.275289e+00 1.895334e-15
      vertex -2.027565e+00 -6.017598e+00 2.185716e-15
      vertex -2.666296e+00 -5.763104e+00 2.170133e-15
    endloop
  endfacet
  facet normal 0.000000e+00 -6.123234e-17 -1.000000e+00
    outer loop
      vertex 2.285818e-01 -1.333095e+00 1.898873e-15
      vertex 6.865558e-01 -6.312776e+00 2.203791e-15
      vertex -6.519258e-08 -1.352550e+00 1.900065e-15
    endloop
  endfacet
  facet normal 0.000000e+00 -6.123234e-17 -1.000000e+00
    outer loop
      vertex -6.519258e-08 -1.352550e+00 1.900065e-15
      vertex 6.865558e-01 -6.312776e+00 2.203791e-15
      vertex -6.519258e-08 -6.350000e+00 2.206070e-15
    endloop
  endfacet
  facet normal 0.000000e+00 -6.123234e-17 -1.000000e+00
    outer loop
      vertex -6.519258e-08 -1.352550e+00 1.900065e-15
      vertex -6.519258e-08 -6.350000e+00 2.206070e-15
      vertex -6.865555e-01 -6.312776e+00 2.203791e-15
    endloop
  endfacet
  facet normal 0.000000e+00 -6.123234e-17 -1.000000e+00
    outer loop
      vertex 1.255016e+00 -5.043068e-01 1.848125e-15
      vertex 5.610301e+00 -2.974393e+00 1.999374e-15
      vertex 1.151736e+00 -7.091517e-01 1.860668e-15
    endloop
  endfacet
  facet normal 0.000000e+00 -6.123234e-17 -1.000000e+00
    outer loop
      vertex 1.151736e+00 -7.091517e-01 1.860668e-15
      vertex 5.610301e+00 -2.974393e+00 1.999374e-15
      vertex 5.255825e+00 -3.563538e+00 2.035449e-15
    endloop
  endfacet
  facet normal 0.000000e+00 -6.123234e-17 -1.000000e+00
    outer loop
      vertex 1.151736e+00 -7.091517e-01 1.860668e-15
      vertex 5.255825e+00 -3.563538e+00 2.035449e-15
      vertex 1.015322e+00 -8.935957e-01 1.871962e-15
    endloop
  endfacet
  facet normal 0.000000e+00 -6.123234e-17 -1.000000e+00
    outer loop
      vertex 6.596321e-01 -1.180796e+00 1.889548e-15
      vertex 2.666295e+00 -5.763104e+00 2.170133e-15
      vertex 4.505882e-01 -1.275289e+00 1.895334e-15
    endloop
  endfacet
  facet normal 0.000000e+00 -6.123234e-17 -1.000000e+00
    outer loop
      vertex 4.505882e-01 -1.275289e+00 1.895334e-15
      vertex 2.666295e+00 -5.763104e+00 2.170133e-15
      vertex 2.027565e+00 -6.017598e+00 2.185716e-15
    endloop
  endfacet
  facet normal 0.000000e+00 -6.123234e-17 -1.000000e+00
    outer loop
      vertex 4.505882e-01 -1.275289e+00 1.895334e-15
      vertex 2.027565e+00 -6.017598e+00 2.185716e-15
      vertex 2.285818e-01 -1.333095e+00 1.898873e-15
    endloop
  endfacet
  facet normal 0.000000e+00 -6.123234e-17 -1.000000e+00
    outer loop
      vertex 2.285818e-01 -1.333095e+00 1.898873e-15
      vertex 2.027565e+00 -6.017598e+00 2.185716e-15
      vertex 1.365062e+00 -6.201540e+00 2.196980e-15
    endloop
  endfacet
  facet normal 0.000000e+00 -6.123234e-17 -1.000000e+00
    outer loop
      vertex 2.285818e-01 -1.333095e+00 1.898873e-15
      vertex 1.365062e+00 -6.201540e+00 2.196980e-15
      vertex 6.865558e-01 -6.312776e+00 2.203791e-15
    endloop
  endfacet
  facet normal 0.000000e+00 -6.123234e-17 -1.000000e+00
    outer loop
      vertex 5.255825e+00 -3.563538e+00 2.035449e-15
      vertex 4.839729e+00 -4.110903e+00 2.068965e-15
      vertex 1.015322e+00 -8.935957e-01 1.871962e-15
    endloop
  endfacet
  facet normal 0.000000e+00 -6.123234e-17 -1.000000e+00
    outer loop
      vertex 1.015322e+00 -8.935957e-01 1.871962e-15
      vertex 4.839729e+00 -4.110903e+00 2.068965e-15
      vertex 4.366891e+00 -4.610072e+00 2.099530e-15
    endloop
  endfacet
  facet normal 0.000000e+00 -6.123234e-17 -1.000000e+00
    outer loop
      vertex 1.015322e+00 -8.935957e-01 1.871962e-15
      vertex 4.366891e+00 -4.610072e+00 2.099530e-15
      vertex 8.496990e-01 -1.052332e+00 1.881682e-15
    endloop
  endfacet
  facet normal 0.000000e+00 -6.123234e-17 -1.000000e+00
    outer loop
      vertex 8.496990e-01 -1.052332e+00 1.881682e-15
      vertex 4.366891e+00 -4.610072e+00 2.099530e-15
      vertex 3.842856e+00 -5.055191e+00 2.126786e-15
    endloop
  endfacet
  facet normal 0.000000e+00 -6.123234e-17 -1.000000e+00
    outer loop
      vertex 8.496990e-01 -1.052332e+00 1.881682e-15
      vertex 3.842856e+00 -5.055191e+00 2.126786e-15
      vertex 6.596321e-01 -1.180796e+00 1.889548e-15
    endloop
  endfacet
  facet normal 0.000000e+00 -6.123234e-17 -1.000000e+00
    outer loop
      vertex 6.596321e-01 -1.180796e+00 1.889548e-15
      vertex 3.842856e+00 -5.055191e+00 2.126786e-15
      vertex 3.273767e+00 -5.441043e+00 2.150413e-15
    endloop
  endfacet
  facet normal 0.000000e+00 -6.123234e-17 -1.000000e+00
    outer loop
      vertex 6.596321e-01 -1.180796e+00 1.889548e-15
      vertex 3.273767e+00 -5.441043e+00 2.150413e-15
      vertex 2.666295e+00 -5.763104e+00 2.170133e-15
    endloop
  endfacet
  facet normal 0.000000e+00 -6.123234e-17 -1.000000e+00
    outer loop
      vertex 1.322193e+00 -2.849545e-01 1.834693e-15
      vertex 6.118543e+00 -1.698804e+00 1.921267e-15
      vertex 1.255016e+00 -5.043068e-01 1.848125e-15
    endloop
  endfacet
  facet normal 0.000000e+00 -6.123234e-17 -1.000000e+00
    outer loop
      vertex 1.255016e+00 -5.043068e-01 1.848125e-15
      vertex 6.118543e+00 -1.698804e+00 1.921267e-15
      vertex 5.899002e+00 -2.350378e+00 1.961164e-15
    endloop
  endfacet
  facet normal 0.000000e+00 -6.123234e-17 -1.000000e+00
    outer loop
      vertex 1.255016e+00 -5.043068e-01 1.848125e-15
      vertex 5.899002e+00 -2.350378e+00 1.961164e-15
      vertex 5.610301e+00 -2.974393e+00 1.999374e-15
    endloop
  endfacet
  facet normal 0.000000e+00 -6.123234e-17 -1.000000e+00
    outer loop
      vertex 1.341595e+00 1.717978e-01 1.806725e-15
      vertex 6.340687e+00 3.437819e-01 1.796194e-15
      vertex 1.351331e+00 -5.740404e-02 1.820760e-15
    endloop
  endfacet
  facet normal 0.000000e+00 -6.123234e-17 -1.000000e+00
    outer loop
      vertex 1.351331e+00 -5.740404e-02 1.820760e-15
      vertex 6.340687e+00 3.437819e-01 1.796194e-15
      vertex 6.340687e+00 -3.437819e-01 1.838295e-15
    endloop
  endfacet
  facet normal 0.000000e+00 -6.123234e-17 -1.000000e+00
    outer loop
      vertex 1.351331e+00 -5.740404e-02 1.820760e-15
      vertex 6.340687e+00 -3.437819e-01 1.838295e-15
      vertex 1.322193e+00 -2.849545e-01 1.834693e-15
    endloop
  endfacet
  facet normal 0.000000e+00 -6.123234e-17 -1.000000e+00
    outer loop
      vertex 1.322193e+00 -2.849545e-01 1.834693e-15
      vertex 6.340687e+00 -3.437819e-01 1.838295e-15
      vertex 6.266348e+00 -1.027316e+00 1.880150e-15
    endloop
  endfacet
  facet normal 0.000000e+00 -6.123234e-17 -1.000000e+00
    outer loop
      vertex 1.322193e+00 -2.849545e-01 1.834693e-15
      vertex 6.266348e+00 -1.027316e+00 1.880150e-15
      vertex 6.118543e+00 -1.698804e+00 1.921267e-15
    endloop
  endfacet
  facet normal 0.000000e+00 -6.123234e-17 -1.000000e+00
    outer loop
      vertex 1.207727e+00 6.089230e-01 1.779959e-15
      vertex 5.899002e+00 2.350377e+00 1.673326e-15
      vertex 1.293263e+00 3.960576e-01 1.792993e-15
    endloop
  endfacet
  facet normal 0.000000e+00 -6.123234e-17 -1.000000e+00
    outer loop
      vertex 1.293263e+00 3.960576e-01 1.792993e-15
      vertex 5.899002e+00 2.350377e+00 1.673326e-15
      vertex 6.118543e+00 1.698805e+00 1.713223e-15
    endloop
  endfacet
  facet normal 0.000000e+00 -6.123234e-17 -1.000000e+00
    outer loop
      vertex 1.293263e+00 3.960576e-01 1.792993e-15
      vertex 6.118543e+00 1.698805e+00 1.713223e-15
      vertex 1.341595e+00 1.717978e-01 1.806725e-15
    endloop
  endfacet
  facet normal 0.000000e+00 -6.123234e-17 -1.000000e+00
    outer loop
      vertex 1.341595e+00 1.717978e-01 1.806725e-15
      vertex 6.118543e+00 1.698805e+00 1.713223e-15
      vertex 6.266348e+00 1.027315e+00 1.754340e-15
    endloop
  endfacet
  facet normal 0.000000e+00 -6.123234e-17 -1.000000e+00
    outer loop
      vertex 1.341595e+00 1.717978e-01 1.806725e-15
      vertex 6.266348e+00 1.027315e+00 1.754340e-15
      vertex 6.340687e+00 3.437819e-01 1.796194e-15
    endloop
  endfacet
  facet normal 0.000000e+00 -6.123234e-17 -1.000000e+00
    outer loop
      vertex 9.358820e-01 9.764819e-01 1.757453e-15
      vertex 4.839729e+00 4.110903e+00 1.565525e-15
      vertex 1.087446e+00 8.042712e-01 1.767997e-15
    endloop
  endfacet
  facet normal 0.000000e+00 -6.123234e-17 -1.000000e+00
    outer loop
      vertex 1.087446e+00 8.042712e-01 1.767997e-15
      vertex 4.839729e+00 4.110903e+00 1.565525e-15
      vertex 5.255825e+00 3.563538e+00 1.599041e-15
    endloop
  endfacet
  facet normal 0.000000e+00 -6.123234e-17 -1.000000e+00
    outer loop
      vertex 1.087446e+00 8.042712e-01 1.767997e-15
      vertex 5.255825e+00 3.563538e+00 1.599041e-15
      vertex 1.207727e+00 6.089230e-01 1.779959e-15
    endloop
  endfacet
  facet normal 0.000000e+00 -6.123234e-17 -1.000000e+00
    outer loop
      vertex 1.207727e+00 6.089230e-01 1.779959e-15
      vertex 5.255825e+00 3.563538e+00 1.599041e-15
      vertex 5.610301e+00 2.974394e+00 1.635116e-15
    endloop
  endfacet
  facet normal 0.000000e+00 -6.123234e-17 -1.000000e+00
    outer loop
      vertex 1.207727e+00 6.089230e-01 1.779959e-15
      vertex 5.610301e+00 2.974394e+00 1.635116e-15
      vertex 5.899002e+00 2.350377e+00 1.673326e-15
    endloop
  endfacet
  facet normal 0.000000e+00 -6.123234e-17 -1.000000e+00
    outer loop
      vertex 7.573938e-01 1.120601e+00 1.748628e-15
      vertex 3.842856e+00 5.055191e+00 1.507704e-15
      vertex 9.358820e-01 9.764819e-01 1.757453e-15
    endloop
  endfacet
  facet normal 0.000000e+00 -6.123234e-17 -1.000000e+00
    outer loop
      vertex 9.358820e-01 9.764819e-01 1.757453e-15
      vertex 3.842856e+00 5.055191e+00 1.507704e-15
      vertex 4.366891e+00 4.610071e+00 1.534959e-15
    endloop
  endfacet
  facet normal 0.000000e+00 -6.123234e-17 -1.000000e+00
    outer loop
      vertex 9.358820e-01 9.764819e-01 1.757453e-15
      vertex 4.366891e+00 4.610071e+00 1.534959e-15
      vertex 4.839729e+00 4.110903e+00 1.565525e-15
    endloop
  endfacet
  facet normal 0.000000e+00 -6.123234e-17 -1.000000e+00
    outer loop
      vertex 6.865558e-01 6.312776e+00 1.430699e-15
      vertex 1.365062e+00 6.201541e+00 1.437510e-15
      vertex 3.408126e-01 1.308907e+00 1.737097e-15
    endloop
  endfacet
  facet normal 0.000000e+00 -6.123234e-17 -1.000000e+00
    outer loop
      vertex 3.408126e-01 1.308907e+00 1.737097e-15
      vertex 1.365062e+00 6.201541e+00 1.437510e-15
      vertex 2.027565e+00 6.017598e+00 1.448773e-15
    endloop
  endfacet
  facet normal 0.000000e+00 -6.123234e-17 -1.000000e+00
    outer loop
      vertex 3.408126e-01 1.308907e+00 1.737097e-15
      vertex 2.027565e+00 6.017598e+00 1.448773e-15
      vertex 5.571169e-01 1.232482e+00 1.741777e-15
    endloop
  endfacet
  facet normal 0.000000e+00 -6.123234e-17 -1.000000e+00
    outer loop
      vertex 5.571169e-01 1.232482e+00 1.741777e-15
      vertex 2.027565e+00 6.017598e+00 1.448773e-15
      vertex 2.666295e+00 5.763104e+00 1.464357e-15
    endloop
  endfacet
  facet normal 0.000000e+00 -6.123234e-17 -1.000000e+00
    outer loop
      vertex 5.571169e-01 1.232482e+00 1.741777e-15
      vertex 2.666295e+00 5.763104e+00 1.464357e-15
      vertex 7.573938e-01 1.120601e+00 1.748628e-15
    endloop
  endfacet
  facet normal 0.000000e+00 -6.123234e-17 -1.000000e+00
    outer loop
      vertex 7.573938e-01 1.120601e+00 1.748628e-15
      vertex 2.666295e+00 5.763104e+00 1.464357e-15
      vertex 3.273767e+00 5.441043e+00 1.484077e-15
    endloop
  endfacet
  facet normal 0.000000e+00 -6.123234e-17 -1.000000e+00
    outer loop
      vertex 7.573938e-01 1.120601e+00 1.748628e-15
      vertex 3.273767e+00 5.441043e+00 1.484077e-15
      vertex 3.842856e+00 5.055191e+00 1.507704e-15
    endloop
  endfacet
  facet normal -5.651454e-02 9.984018e-01 -6.113448e-17
    outer loop
      vertex -6.519258e-08 -1.352550e+00 1.653412e-16
      vertex -6.519258e-08 -1.352550e+00 7.620000e+00
      vertex 2.285818e-01 -1.333095e+00 1.641499e-16
    endloop
  endfacet
  facet normal -1.130291e-01 9.935917e-01 -6.083994e-17
    outer loop
      vertex 2.285818e-01 -1.333095e+00 1.641499e-16
      vertex -6.519258e-08 -1.352550e+00 7.620000e+00
      vertex 2.285818e-01 -1.333095e+00 7.620000e+00
    endloop
  endfacet
  facet normal -2.244324e-01 9.744897e-01 -5.967028e-17
    outer loop
      vertex 2.285818e-01 -1.333095e+00 1.641499e-16
      vertex 2.285818e-01 -1.333095e+00 7.620000e+00
      vertex 4.505882e-01 -1.275289e+00 1.606104e-16
    endloop
  endfacet
  facet normal -2.793211e-01 9.601977e-01 -5.879516e-17
    outer loop
      vertex 4.505882e-01 -1.275289e+00 1.606104e-16
      vertex 2.285818e-01 -1.333095e+00 7.620000e+00
      vertex 4.505882e-01 -1.275289e+00 7.620000e+00
    endloop
  endfacet
  facet normal -3.858936e-01 9.225433e-01 -5.648948e-17
    outer loop
      vertex 4.505882e-01 -1.275289e+00 1.606104e-16
      vertex 4.505882e-01 -1.275289e+00 7.620000e+00
      vertex 6.596321e-01 -1.180796e+00 1.548243e-16
    endloop
  endfacet
  facet normal -4.375775e-01 8.991807e-01 -5.505894e-17
    outer loop
      vertex 6.596321e-01 -1.180796e+00 1.548243e-16
      vertex 4.505882e-01 -1.275289e+00 7.620000e+00
      vertex 6.596321e-01 -1.180796e+00 7.620000e+00
    endloop
  endfacet
  facet normal -5.362535e-01 8.440570e-01 -5.168358e-17
    outer loop
      vertex 6.596321e-01 -1.180796e+00 1.548243e-16
      vertex 6.596321e-01 -1.180796e+00 7.620000e+00
      vertex 8.496990e-01 -1.052332e+00 1.469582e-16
    endloop
  endfacet
  facet normal -5.832456e-01 8.122959e-01 -4.973878e-17
    outer loop
      vertex 8.496990e-01 -1.052332e+00 1.469582e-16
      vertex 6.596321e-01 -1.180796e+00 7.620000e+00
      vertex 8.496990e-01 -1.052332e+00 7.620000e+00
    endloop
  endfacet
  facet normal -6.711863e-01 7.412888e-01 -4.539085e-17
    outer loop
      vertex 8.496990e-01 -1.052332e+00 1.469582e-16
      vertex 8.496990e-01 -1.052332e+00 7.620000e+00
      vertex 1.015322e+00 -8.935957e-01 1.372384e-16
    endloop
  endfacet
  facet normal -7.121348e-01 7.020427e-01 -4.298772e-17
    outer loop
      vertex 1.015322e+00 -8.935957e-01 1.372384e-16
      vertex 8.496990e-01 -1.052332e+00 7.620000e+00
      vertex 1.015322e+00 -8.935957e-01 7.620000e+00
    endloop
  endfacet
  facet normal -7.868103e-01 6.171949e-01 -3.779229e-17
    outer loop
      vertex 1.015322e+00 -8.935957e-01 1.372384e-16
      vertex 1.015322e+00 -8.935957e-01 7.620000e+00
      vertex 1.151736e+00 -7.091517e-01 1.259445e-16
    endloop
  endfacet
  facet normal -8.205372e-01 5.715931e-01 -3.499998e-17
    outer loop
      vertex 1.151736e+00 -7.091517e-01 1.259445e-16
      vertex 1.015322e+00 -8.935957e-01 7.620000e+00
      vertex 1.151736e+00 -7.091517e-01 7.620000e+00
    endloop
  endfacet
  facet normal -8.797992e-01 4.753455e-01 -2.910652e-17
    outer loop
      vertex 1.151736e+00 -7.091517e-01 1.259445e-16
      vertex 1.151736e+00 -7.091517e-01 7.620000e+00
      vertex 1.255016e+00 -5.043068e-01 1.134013e-16
    endloop
  endfacet
  facet normal -9.053342e-01 4.246998e-01 -2.600536e-17
    outer loop
      vertex 1.255016e+00 -5.043068e-01 1.134013e-16
      vertex 1.151736e+00 -7.091517e-01 7.620000e+00
      vertex 1.255016e+00 -5.043068e-01 7.620000e+00
    endloop
  endfacet
  facet normal -9.474779e-01 3.198213e-01 -1.958341e-17
    outer loop
      vertex 1.255016e+00 -5.043068e-01 1.134013e-16
      vertex 1.255016e+00 -5.043068e-01 7.620000e+00
      vertex 1.322193e+00 -2.849545e-01 9.996986e-17
    endloop
  endfacet
  facet normal -9.640865e-01 2.655886e-01 -1.626261e-17
    outer loop
      vertex 1.322193e+00 -2.849545e-01 9.996986e-17
      vertex 1.255016e+00 -5.043068e-01 7.620000e+00
      vertex 1.322193e+00 -2.849545e-01 7.620000e+00
    endloop
  endfacet
  facet normal -9.878993e-01 1.550965e-01 -9.496919e-18
    outer loop
      vertex 1.322193e+00 -2.849545e-01 9.996986e-17
      vertex 1.322193e+00 -2.849545e-01 7.620000e+00
      vertex 1.351331e+00 -5.740404e-02 8.603641e-17
    endloop
  endfacet
  facet normal -9.951037e-01 9.883700e-02 -6.052021e-18
    outer loop
      vertex 1.351331e+00 -5.740404e-02 8.603641e-17
      vertex 1.322193e+00 -2.849545e-01 7.620000e+00
      vertex 1.351331e+00 -5.740404e-02 7.620000e+00
    endloop
  endfacet
  facet normal -9.999007e-01 -1.409025e-02 8.627789e-19
    outer loop
      vertex 1.351331e+00 -5.740404e-02 8.603641e-17
      vertex 1.351331e+00 -5.740404e-02 7.620000e+00
      vertex 1.341595e+00 1.717978e-01 7.200185e-17
    endloop
  endfacet
  facet normal -9.974935e-01 -7.075802e-02 4.332679e-18
    outer loop
      vertex 1.341595e+00 1.717978e-01 7.200185e-17
      vertex 1.351331e+00 -5.740404e-02 7.620000e+00
      vertex 1.341595e+00 1.717978e-01 7.620000e+00
    endloop
  endfacet
  facet normal -9.831368e-01 -1.828716e-01 1.119766e-17
    outer loop
      vertex 1.341595e+00 1.717978e-01 7.200185e-17
      vertex 1.341595e+00 1.717978e-01 7.620000e+00
      vertex 1.293263e+00 3.960576e-01 5.826990e-17
    endloop
  endfacet
  facet normal -9.711873e-01 -2.383175e-01 1.459274e-17
    outer loop
      vertex 1.293263e+00 3.960576e-01 5.826990e-17
      vertex 1.341595e+00 1.717978e-01 7.620000e+00
      vertex 1.293263e+00 3.960576e-01 7.620000e+00
    endloop
  endfacet
  facet normal -9.380898e-01 -3.463921e-01 2.121040e-17
    outer loop
      vertex 1.293263e+00 3.960576e-01 5.826990e-17
      vertex 1.293263e+00 3.960576e-01 7.620000e+00
      vertex 1.207727e+00 6.089230e-01 4.523565e-17
    endloop
  endfacet
  facet normal -9.169418e-01 -3.990209e-01 2.443298e-17
    outer loop
      vertex 1.207727e+00 6.089230e-01 4.523565e-17
      vertex 1.293263e+00 3.960576e-01 7.620000e+00
      vertex 1.207727e+00 6.089230e-01 7.620000e+00
    endloop
  endfacet
  facet normal -8.660558e-01 -4.999475e-01 3.061296e-17
    outer loop
      vertex 1.207727e+00 6.089230e-01 4.523565e-17
      vertex 1.207727e+00 6.089230e-01 7.620000e+00
      vertex 1.087446e+00 8.042712e-01 3.327402e-17
    endloop
  endfacet
  facet normal -8.363176e-01 -5.482453e-01 3.357034e-17
    outer loop
      vertex 1.087446e+00 8.042712e-01 3.327402e-17
      vertex 1.207727e+00 6.089230e-01 7.620000e+00
      vertex 1.087446e+00 8.042712e-01 7.620000e+00
    endloop
  endfacet
  facet normal -7.691067e-01 -6.391203e-01 3.913483e-17
    outer loop
      vertex 1.087446e+00 8.042712e-01 3.327402e-17
      vertex 1.087446e+00 8.042712e-01 7.620000e+00
      vertex 9.358820e-01 9.764819e-01 2.272916e-17
    endloop
  endfacet
  facet normal -7.316340e-01 -6.816977e-01 4.174194e-17
    outer loop
      vertex 9.358820e-01 9.764819e-01 2.272916e-17
      vertex 1.087446e+00 8.042712e-01 7.620000e+00
      vertex 9.358820e-01 9.764819e-01 7.620000e+00
    endloop
  endfacet
  facet normal -6.500319e-01 -7.599068e-01 4.653087e-17
    outer loop
      vertex 9.358820e-01 9.764819e-01 2.272916e-17
      vertex 9.358820e-01 9.764819e-01 7.620000e+00
      vertex 7.573938e-01 1.120601e+00 1.390443e-17
    endloop
  endfacet
  facet normal -6.059027e-01 -7.955388e-01 4.871270e-17
    outer loop
      vertex 7.573938e-01 1.120601e+00 1.390443e-17
      vertex 9.358820e-01 9.764819e-01 7.620000e+00
      vertex 7.573938e-01 1.120601e+00 7.620000e+00
    endloop
  endfacet
  facet normal -5.122570e-01 -8.588323e-01 5.258831e-17
    outer loop
      vertex 7.573938e-01 1.120601e+00 1.390443e-17
      vertex 7.573938e-01 1.120601e+00 7.620000e+00
      vertex 5.571169e-01 1.232482e+00 7.053676e-18
    endloop
  endfacet
  facet normal -4.627406e-01 -8.864938e-01 5.428209e-17
    outer loop
      vertex 5.571169e-01 1.232482e+00 7.053676e-18
      vertex 7.573938e-01 1.120601e+00 7.620000e+00
      vertex 5.571169e-01 1.232482e+00 7.620000e+00
    endloop
  endfacet
  facet normal -3.597453e-01 -9.330506e-01 5.713287e-17
    outer loop
      vertex 5.571169e-01 1.232482e+00 7.053676e-18
      vertex 5.571169e-01 1.232482e+00 7.620000e+00
      vertex 3.408126e-01 1.308907e+00 2.373990e-18
    endloop
  endfacet
  facet normal -3.062663e-01 -9.519458e-01 5.828987e-17
    outer loop
      vertex 3.408126e-01 1.308907e+00 2.373990e-18
      vertex 5.571169e-01 1.232482e+00 7.620000e+00
      vertex 3.408126e-01 1.308907e+00 7.620000e+00
    endloop
  endfacet
  facet normal -1.968844e-01 -9.804267e-01 6.003382e-17
    outer loop
      vertex 3.408126e-01 1.308907e+00 2.373990e-18
      vertex 3.408126e-01 1.308907e+00 7.620000e+00
      vertex 1.147045e-01 1.347677e+00 0.000000e+00
    endloop
  endfacet
  facet normal -1.409813e-01 -9.900122e-01 6.062076e-17
    outer loop
      vertex 1.147045e-01 1.347677e+00 0.000000e+00
      vertex 3.408126e-01 1.308907e+00 7.620000e+00
      vertex 1.147045e-01 1.347677e+00 7.620000e+00
    endloop
  endfacet
  facet normal -2.835944e-02 -9.995978e-01 6.120771e-17
    outer loop
      vertex 1.147045e-01 1.347677e+00 0.000000e+00
      vertex 1.147045e-01 1.347677e+00 7.620000e+00
      vertex -1.147047e-01 1.347677e+00 0.000000e+00
    endloop
  endfacet
  facet normal 2.835944e-02 -9.995978e-01 6.120771e-17
    outer loop
      vertex -1.147047e-01 1.347677e+00 0.000000e+00
      vertex 1.147045e-01 1.347677e+00 7.620000e+00
      vertex -1.147047e-01 1.347677e+00 7.620000e+00
    endloop
  endfacet
  facet normal 1.409813e-01 -9.900122e-01 6.062076e-17
    outer loop
      vertex -1.147047e-01 1.347677e+00 0.000000e+00
      vertex -1.147047e-01 1.347677e+00 7.620000e+00
      vertex -3.408127e-01 1.308907e+00 2.373990e-18
    endloop
  endfacet
  facet normal 1.968844e-01 -9.804267e-01 6.003382e-17
    outer loop
      vertex -3.408127e-01 1.308907e+00 2.373990e-18
      vertex -1.147047e-01 1.347677e+00 7.620000e+00
      vertex -3.408127e-01 1.308907e+00 7.620000e+00
    endloop
  endfacet
  facet normal 3.062663e-01 -9.519458e-01 5.828987e-17
    outer loop
      vertex -3.408127e-01 1.308907e+00 2.373990e-18
      vertex -3.408127e-01 1.308907e+00 7.620000e+00
      vertex -5.571171e-01 1.232482e+00 7.053676e-18
    endloop
  endfacet
  facet normal 3.597453e-01 -9.330506e-01 5.713287e-17
    outer loop
      vertex -5.571171e-01 1.232482e+00 7.053676e-18
      vertex -3.408127e-01 1.308907e+00 7.620000e+00
      vertex -5.571171e-01 1.232482e+00 7.620000e+00
    endloop
  endfacet
  facet normal 4.627406e-01 -8.864938e-01 5.428209e-17
    outer loop
      vertex -5.571171e-01 1.232482e+00 7.053676e-18
      vertex -5.571171e-01 1.232482e+00 7.620000e+00
      vertex -7.573939e-01 1.120601e+00 1.390443e-17
    endloop
  endfacet
  facet normal 5.122570e-01 -8.588323e-01 5.258831e-17
    outer loop
      vertex -7.573939e-01 1.120601e+00 1.390443e-17
      vertex -5.571171e-01 1.232482e+00 7.620000e+00
      vertex -7.573939e-01 1.120601e+00 7.620000e+00
    endloop
  endfacet
  facet normal 6.059027e-01 -7.955388e-01 4.871270e-17
    outer loop
      vertex -7.573939e-01 1.120601e+00 1.390443e-17
      vertex -7.573939e-01 1.120601e+00 7.620000e+00
      vertex -9.358817e-01 9.764819e-01 2.272916e-17
    endloop
  endfacet
  facet normal 6.500319e-01 -7.599068e-01 4.653087e-17
    outer loop
      vertex -9.358817e-01 9.764819e-01 2.272916e-17
      vertex -7.573939e-01 1.120601e+00 7.620000e+00
      vertex -9.358817e-01 9.764819e-01 7.620000e+00
    endloop
  endfacet
  facet normal 7.316340e-01 -6.816977e-01 4.174194e-17
    outer loop
      vertex -9.358817e-01 9.764819e-01 2.272916e-17
      vertex -9.358817e-01 9.764819e-01 7.620000e+00
      vertex -1.087446e+00 8.042712e-01 3.327402e-17
    endloop
  endfacet
  facet normal 7.691067e-01 -6.391203e-01 3.913483e-17
    outer loop
      vertex -1.087446e+00 8.042712e-01 3.327402e-17
      vertex -9.358817e-01 9.764819e-01 7.620000e+00
      vertex -1.087446e+00 8.042712e-01 7.620000e+00
    endloop
  endfacet
  facet normal 8.363176e-01 -5.482453e-01 3.357034e-17
    outer loop
      vertex -1.087446e+00 8.042712e-01 3.327402e-17
      vertex -1.087446e+00 8.042712e-01 7.620000e+00
      vertex -1.207727e+00 6.089230e-01 4.523565e-17
    endloop
  endfacet
  facet normal 8.660558e-01 -4.999475e-01 3.061296e-17
    outer loop
      vertex -1.207727e+00 6.089230e-01 4.523565e-17
      vertex -1.087446e+00 8.042712e-01 7.620000e+00
      vertex -1.207727e+00 6.089230e-01 7.620000e+00
    endloop
  endfacet
  facet normal 9.169418e-01 -3.990209e-01 2.443298e-17
    outer loop
      vertex -1.207727e+00 6.089230e-01 4.523565e-17
      vertex -1.207727e+00 6.089230e-01 7.620000e+00
      vertex -1.293264e+00 3.960576e-01 5.826990e-17
    endloop
  endfacet
  facet normal 9.380898e-01 -3.463921e-01 2.121040e-17
    outer loop
      vertex -1.293264e+00 3.960576e-01 5.826990e-17
      vertex -1.207727e+00 6.089230e-01 7.620000e+00
      vertex -1.293264e+00 3.960576e-01 7.620000e+00
    endloop
  endfacet
  facet normal 9.711873e-01 -2.383175e-01 1.459274e-17
    outer loop
      vertex -1.293264e+00 3.960576e-01 5.826990e-17
      vertex -1.293264e+00 3.960576e-01 7.620000e+00
      vertex -1.341595e+00 1.717978e-01 7.200185e-17
    endloop
  endfacet
  facet normal 9.831368e-01 -1.828716e-01 1.119766e-17
    outer loop
      vertex -1.341595e+00 1.717978e-01 7.200185e-17
      vertex -1.293264e+00 3.960576e-01 7.620000e+00
      vertex -1.341595e+00 1.717978e-01 7.620000e+00
    endloop
  endfacet
  facet normal 9.974935e-01 -7.075802e-02 4.332679e-18
    outer loop
      vertex -1.341595e+00 1.717978e-01 7.200185e-17
      vertex -1.341595e+00 1.717978e-01 7.620000e+00
      vertex -1.351331e+00 -5.740404e-02 8.603641e-17
    endloop
  endfacet
  facet normal 9.999007e-01 -1.409025e-02 8.627789e-19
    outer loop
      vertex -1.351331e+00 -5.740404e-02 8.603641e-17
      vertex -1.341595e+00 1.717978e-01 7.620000e+00
      vertex -1.351331e+00 -5.740404e-02 7.620000e+00
    endloop
  endfacet
  facet normal 9.951037e-01 9.883700e-02 -6.052021e-18
    outer loop
      vertex -1.351331e+00 -5.740404e-02 8.603641e-17
      vertex -1.351331e+00 -5.740404e-02 7.620000e+00
      vertex -1.322193e+00 -2.849545e-01 9.996986e-17
    endloop
  endfacet
  facet normal 9.878993e-01 1.550965e-01 -9.496920e-18
    outer loop
      vertex -1.322193e+00 -2.849545e-01 9.996986e-17
      vertex -1.351331e+00 -5.740404e-02 7.620000e+00
      vertex -1.322193e+00 -2.849545e-01 7.620000e+00
    endloop
  endfacet
  facet normal 9.640865e-01 2.655886e-01 -1.626261e-17
    outer loop
      vertex -1.322193e+00 -2.849545e-01 9.996986e-17
      vertex -1.322193e+00 -2.849545e-01 7.620000e+00
      vertex -1.255016e+00 -5.043068e-01 1.134013e-16
    endloop
  endfacet
  facet normal 9.474779e-01 3.198213e-01 -1.958341e-17
    outer loop
      vertex -1.255016e+00 -5.043068e-01 1.134013e-16
      vertex -1.322193e+00 -2.849545e-01 7.620000e+00
      vertex -1.255016e+00 -5.043068e-01 7.620000e+00
    endloop
  endfacet
  facet normal 9.053342e-01 4.246998e-01 -2.600536e-17
    outer loop
      vertex -1.255016e+00 -5.043068e-01 1.134013e-16
      vertex -1.255016e+00 -5.043068e-01 7.620000e+00
      vertex -1.151736e+00 -7.091517e-01 1.259445e-16
    endloop
  endfacet
  facet normal 8.797992e-01 4.753455e-01 -2.910652e-17
    outer loop
      vertex -1.151736e+00 -7.091517e-01 1.259445e-16
      vertex -1.255016e+00 -5.043068e-01 7.620000e+00
      vertex -1.151736e+00 -7.091517e-01 7.620000e+00
    endloop
  endfacet
  facet normal 8.205372e-01 5.715931e-01 -3.499998e-17
    outer loop
      vertex -1.151736e+00 -7.091517e-01 1.259445e-16
      vertex -1.151736e+00 -7.091517e-01 7.620000e+00
      vertex -1.015322e+00 -8.935957e-01 1.372384e-16
    endloop
  endfacet
  facet normal 7.868103e-01 6.171949e-01 -3.779229e-17
    outer loop
      vertex -1.015322e+00 -8.935957e-01 1.372384e-16
      vertex -1.151736e+00 -7.091517e-01 7.620000e+00
      vertex -1.015322e+00 -8.935957e-01 7.620000e+00
    endloop
  endfacet
  facet normal 7.121348e-01 7.020427e-01 -4.298772e-17
    outer loop
      vertex -1.015322e+00 -8.935957e-01 1.372384e-16
      vertex -1.015322e+00 -8.935957e-01 7.620000e+00
      vertex -8.496991e-01 -1.052332e+00 1.469582e-16
    endloop
  endfacet
  facet normal 6.711863e-01 7.412888e-01 -4.539085e-17
    outer loop
      vertex -8.496991e-01 -1.052332e+00 1.469582e-16
      vertex -1.015322e+00 -8.935957e-01 7.620000e+00
      vertex -8.496991e-01 -1.052332e+00 7.620000e+00
    endloop
  endfacet
  facet normal 5.832456e-01 8.122959e-01 -4.973878e-17
    outer loop
      vertex -8.496991e-01 -1.052332e+00 1.469582e-16
      vertex -8.496991e-01 -1.052332e+00 7.620000e+00
      vertex -6.596323e-01 -1.180796e+00 1.548243e-16
    endloop
  endfacet
  facet normal 5.362535e-01 8.440570e-01 -5.168358e-17
    outer loop
      vertex -6.596323e-01 -1.180796e+00 1.548243e-16
      vertex -8.496991e-01 -1.052332e+00 7.620000e+00
      vertex -6.596323e-01 -1.180796e+00 7.620000e+00
    endloop
  endfacet
  facet normal 4.375775e-01 8.991807e-01 -5.505894e-17
    outer loop
      vertex -6.596323e-01 -1.180796e+00 1.548243e-16
      vertex -6.596323e-01 -1.180796e+00 7.620000e+00
      vertex -4.505883e-01 -1.275289e+00 1.606104e-16
    endloop
  endfacet
  facet normal 3.858936e-01 9.225433e-01 -5.648948e-17
    outer loop
      vertex -4.505883e-01 -1.275289e+00 1.606104e-16
      vertex -6.596323e-01 -1.180796e+00 7.620000e+00
      vertex -4.505883e-01 -1.275289e+00 7.620000e+00
    endloop
  endfacet
  facet normal 2.793211e-01 9.601977e-01 -5.879516e-17
    outer loop
      vertex -4.505883e-01 -1.275289e+00 1.606104e-16
      vertex -4.505883e-01 -1.275289e+00 7.620000e+00
      vertex -2.285820e-01 -1.333095e+00 1.641499e-16
    endloop
  endfacet
  facet normal 2.244324e-01 9.744897e-01 -5.967028e-17
    outer loop
      vertex -2.285820e-01 -1.333095e+00 1.641499e-16
      vertex -4.505883e-01 -1.275289e+00 7.620000e+00
      vertex -2.285820e-01 -1.333095e+00 7.620000e+00
    endloop
  endfacet
  facet normal 1.130291e-01 9.935917e-01 -6.083994e-17
    outer loop
      vertex -2.285820e-01 -1.333095e+00 1.641499e-16
      vertex -2.285820e-01 -1.333095e+00 7.620000e+00
      vertex -6.519258e-08 -1.352550e+00 1.653412e-16
    endloop
  endfacet
  facet normal 5.651454e-02 9.984018e-01 -6.113448e-17
    outer loop
      vertex -6.519258e-08 -1.352550e+00 1.653412e-16
      vertex -2.285820e-01 -1.333095e+00 7.620000e+00
      vertex -6.519258e-08 -1.352550e+00 7.620000e+00
    endloop
  endfacet
endsolid Default
