solid Default
  facet normal -4.286264e-16 -4.286264e-16 1.000000e+00
    outer loop
      vertex -5.150000e+00 -5.400000e+00 4.750000e+00
      vertex 1.400000e+00 -5.400000e+00 4.750000e+00
      vertex -5.150000e+00 5.400000e+00 4.750000e+00
    endloop
  endfacet
  facet normal -4.286264e-16 -4.286264e-16 1.000000e+00
    outer loop
      vertex -5.150000e+00 5.400000e+00 4.750000e+00
      vertex 1.400000e+00 -5.400000e+00 4.750000e+00
      vertex 1.400000e+00 5.400000e+00 4.750000e+00
    endloop
  endfacet
  facet normal -1.000000e+00 -2.449294e-16 -5.541656e-16
    outer loop
      vertex -5.150000e+00 -5.400000e+00 0.000000e+00
      vertex -5.150000e+00 -5.400000e+00 4.750000e+00
      vertex -5.150000e+00 5.400000e+00 3.552714e-15
    endloop
  endfacet
  facet normal -1.000000e+00 -2.449294e-16 -5.541656e-16
    outer loop
      vertex -5.150000e+00 5.400000e+00 3.552714e-15
      vertex -5.150000e+00 -5.400000e+00 4.750000e+00
      vertex -5.150000e+00 5.400000e+00 4.750000e+00
    endloop
  endfacet
  facet normal 5.549412e-16 4.286264e-16 -1.000000e+00
    outer loop
      vertex 5.150000e+00 -5.400000e+00 3.552714e-15
      vertex -5.150000e+00 -5.400000e+00 0.000000e+00
      vertex 5.150000e+00 5.400000e+00 7.105427e-15
    endloop
  endfacet
  facet normal 5.549412e-16 4.286264e-16 -1.000000e+00
    outer loop
      vertex 5.150000e+00 5.400000e+00 7.105427e-15
      vertex -5.150000e+00 -5.400000e+00 0.000000e+00
      vertex -5.150000e+00 5.400000e+00 3.552714e-15
    endloop
  endfacet
  facet normal 1.000000e+00 2.449294e-16 4.286264e-16
    outer loop
      vertex 5.150000e+00 -5.400000e+00 2.300000e+01
      vertex 5.150000e+00 -5.400000e+00 3.552714e-15
      vertex 5.150000e+00 5.400000e+00 2.300000e+01
    endloop
  endfacet
  facet normal 1.000000e+00 2.449294e-16 4.286264e-16
    outer loop
      vertex 5.150000e+00 5.400000e+00 2.300000e+01
      vertex 5.150000e+00 -5.400000e+00 3.552714e-15
      vertex 5.150000e+00 5.400000e+00 7.105427e-15
    endloop
  endfacet
  facet normal -4.286264e-16 -4.286264e-16 1.000000e+00
    outer loop
      vertex 1.400000e+00 -5.400000e+00 2.300000e+01
      vertex 5.150000e+00 -5.400000e+00 2.300000e+01
      vertex 1.400000e+00 5.400000e+00 2.300000e+01
    endloop
  endfacet
  facet normal -4.286264e-16 -4.286264e-16 1.000000e+00
    outer loop
      vertex 1.400000e+00 5.400000e+00 2.300000e+01
      vertex 5.150000e+00 -5.400000e+00 2.300000e+01
      vertex 5.150000e+00 5.400000e+00 2.300000e+01
    endloop
  endfacet
  facet normal -1.000000e+00 -2.449294e-16 -5.712064e-16
    outer loop
      vertex 1.400000e+00 -5.400000e+00 4.750000e+00
      vertex 1.400000e+00 -5.400000e+00 2.300000e+01
      vertex 1.400000e+00 5.400000e+00 4.750000e+00
    endloop
  endfacet
  facet normal -1.000000e+00 -2.449294e-16 -5.712064e-16
    outer loop
      vertex 1.400000e+00 5.400000e+00 4.750000e+00
      vertex 1.400000e+00 -5.400000e+00 2.300000e+01
      vertex 1.400000e+00 5.400000e+00 2.300000e+01
    endloop
  endfacet
  facet normal 2.449294e-16 -1.000000e+00 -4.286264e-16
    outer loop
      vertex -5.150000e+00 -5.400000e+00 4.750000e+00
      vertex -5.150000e+00 -5.400000e+00 0.000000e+00
      vertex 1.400000e+00 -5.400000e+00 4.750000e+00
    endloop
  endfacet
  facet normal 2.449294e-16 -1.000000e+00 -4.286264e-16
    outer loop
      vertex 1.400000e+00 -5.400000e+00 4.750000e+00
      vertex -5.150000e+00 -5.400000e+00 0.000000e+00
      vertex 5.150000e+00 -5.400000e+00 3.552714e-15
    endloop
  endfacet
  facet normal 2.449294e-16 -1.000000e+00 -4.286264e-16
    outer loop
      vertex 1.400000e+00 -5.400000e+00 4.750000e+00
      vertex 5.150000e+00 -5.400000e+00 3.552714e-15
      vertex 1.400000e+00 -5.400000e+00 2.300000e+01
    endloop
  endfacet
  facet normal 2.449294e-16 -1.000000e+00 -4.286264e-16
    outer loop
      vertex 1.400000e+00 -5.400000e+00 2.300000e+01
      vertex 5.150000e+00 -5.400000e+00 3.552714e-15
      vertex 5.150000e+00 -5.400000e+00 2.300000e+01
    endloop
  endfacet
  facet normal -2.449294e-16 1.000000e+00 4.286264e-16
    outer loop
      vertex 1.400000e+00 5.400000e+00 2.300000e+01
      vertex 5.150000e+00 5.400000e+00 2.300000e+01
      vertex 1.400000e+00 5.400000e+00 4.750000e+00
    endloop
  endfacet
  facet normal -2.449294e-16 1.000000e+00 4.286264e-16
    outer loop
      vertex 1.400000e+00 5.400000e+00 4.750000e+00
      vertex 5.150000e+00 5.400000e+00 2.300000e+01
      vertex 5.150000e+00 5.400000e+00 7.105427e-15
    endloop
  endfacet
  facet normal -2.449294e-16 1.000000e+00 4.286264e-16
    outer loop
      vertex 1.400000e+00 5.400000e+00 4.750000e+00
      vertex 5.150000e+00 5.400000e+00 7.105427e-15
      vertex -5.150000e+00 5.400000e+00 4.750000e+00
    endloop
  endfacet
  facet normal -2.449294e-16 1.000000e+00 4.286264e-16
    outer loop
      vertex -5.150000e+00 5.400000e+00 4.750000e+00
      vertex 5.150000e+00 5.400000e+00 7.105427e-15
      vertex -5.150000e+00 5.400000e+00 3.552714e-15
    endloop
  endfacet
endsolid Default
